<?xml version="1.0" standalone="no"?>
<!DOCTYPE svg PUBLIC "-//W3C//DTD SVG 1.1//EN" "http://www.w3.org/Graphics/SVG/1.1/DTD/svg11.dtd" >
<svg xmlns="http://www.w3.org/2000/svg">
<metadata>
This is a custom SVG webfont generated by Font Squirrel.
Copyright   : Copyright c 2010 by Santiago Orozco All rights reserved
Designer    : Santiago Orozco
Foundry     : Santiago Orozco
</metadata>
<defs>
<font id="webfontkMUFABmd" horiz-adv-x="958" >
<font-face units-per-em="2048" ascent="1536" descent="-512" />
<missing-glyph horiz-adv-x="612" />
<glyph unicode=" "  horiz-adv-x="612" />
<glyph unicode="&#x09;" horiz-adv-x="612" />
<glyph unicode="&#xa0;" horiz-adv-x="612" />
<glyph unicode="!" horiz-adv-x="409" d="M139 100.5q0 28.5 20.5 47t45 18.5t43.5 -19q20 -20 20 -47q0 -29 -18.5 -47t-44.5 -18q-29 0 -47.5 18.5t-18.5 47zM168 340v1196h72v-1196h-72z" />
<glyph unicode="&#x22;" horiz-adv-x="612" d="M129 967v508h76l-8 -508h-68zM401 967v508h76l-8 -508h-68z" />
<glyph unicode="#" horiz-adv-x="1167" d="M57 440l9 68h231l37 303h-230l7 72h231l53 434h72l-53 -434h305l53 434h72l-53 -434h266l-6 -72h-269l-37 -303h267l-8 -68h-267l-51 -440h-72l52 440h-306l-51 -440h-71l51 440h-232zM369 508h305l37 303h-305z" />
<glyph unicode="$" horiz-adv-x="1159" d="M152 170l53 55q143 -152 313 -168v662l-2 2q-307 92 -319 338q-8 137 75 254q84 115 246 127v125h76v-125q143 -8 276 -121l-47 -62q-102 92 -229 109v-590q98 -33 137 -51q68 -31 123 -70q68 -47 102 -114q35 -70 35 -160q0 -168 -114 -277q-117 -111 -283 -118v-125 h-76v125q-206 16 -366 184zM274 1079.5q0 -110.5 64 -172.5q70 -66 178 -104q0 -2 2 -2v565q-117 -12 -180.5 -94t-63.5 -192.5zM594 59q132 12 227 99q94 86 94 217q0 68 -28.5 125t-77.5 92t-102 61q-33 16 -113 43v-637z" />
<glyph unicode="%" horiz-adv-x="1484" d="M215 797q0 94 68 161q66 66 163 66q96 0 162 -66q70 -70 70 -161.5t-70 -161.5q-68 -68 -162 -68q-98 0 -163 66q-68 68 -68 164zM291 796.5q0 -70.5 43 -116.5q43 -47 112 -47q68 0 111 47q43 46 43 117q0 74 -43 116q-45 45 -111 45q-70 0 -112 -45q-43 -46 -43 -116.5 zM414 0l610 1024h72l-611 -1024h-71zM817 229q0 92 67.5 160t164.5 68q98 0 163 -66q68 -68 68 -162q0 -96 -68 -163q-66 -66 -164 -66t-163 66q-68 67 -68 163zM893 229.5q0 -70.5 43 -116.5q43 -47 113 -47q68 0 110.5 47t42.5 116q0 71 -43 117q-43 45 -110 45 q-70 0 -113 -45q-43 -46 -43 -116.5z" />
<glyph unicode="&#x26;" horiz-adv-x="1431" d="M215 383q0 145 96 258q98 115 236 135l-146 240q-82 123 -57 258q25 137 154 213q186 113 432 -43l-27 -51q-57 33 -117 57q-49 20 -122 20q-70 0 -132 -36q-106 -66 -120.5 -172.5t51.5 -206.5l465 -760q12 41 12 88v143q0 143 43 192.5t131 49.5h96v-74h-90 q-63 0 -86 -39q-20 -35 -20 -166v-106q0 -96 -35 -170l129 -211l-61 -41l-113 180q-120 -160 -320 -159q-164 0 -282 118q-117 117 -117 283zM291 383q0 -141 92 -237.5t231 -96.5q188 0 281 158l-309 506q-131 -8 -213 -101q-82 -90 -82 -229z" />
<glyph unicode="'" horiz-adv-x="260" d="M129 967v508h76l-8 -508h-68z" />
<glyph unicode="(" horiz-adv-x="815" d="M279 598q0 287 98 532q102 256 239 400l54 -47q-129 -147 -224 -383q-92 -231 -92 -501.5t92 -502.5q94 -236 224 -383l-54 -47q-139 143 -239 397q-98 246 -98 535z" />
<glyph unicode=")" horiz-adv-x="817" d="M205 -295q129 147 223 383q92 231 92 501.5t-92 502.5q-94 236 -223 383l53 47q139 -143 240 -398q98 -246 98 -534q0 -287 -98 -533q-102 -256 -240 -399z" />
<glyph unicode="*" horiz-adv-x="684" d="M70 1071l196 109l-196 114l39 68l196 -119v232h76l-4 -232l205 113l32 -60l-202 -116l200 -119l-34 -60l-203 115l-2 -227h-68v227l-196 -112z" />
<glyph unicode="+" horiz-adv-x="1110" d="M176 440v68h334v334h68v-334h335v-68h-335v-336h-68v336h-334z" />
<glyph unicode="," horiz-adv-x="407" d="M47 -246l158 422h82l-176 -422h-64z" />
<glyph unicode="-" horiz-adv-x="612" d="M109 356v68h376v-68h-376z" />
<glyph unicode="." horiz-adv-x="331" d="M109 63q0 27 20 46q25 20 45 20q25 0 45 -20q18 -18 19 -46q0 -29 -18.5 -47t-45.5 -18q-29 0 -47 18t-18 47z" />
<glyph unicode="/" horiz-adv-x="677" d="M35 -39l569 1546h72l-570 -1546h-71z" />
<glyph unicode="0" horiz-adv-x="1259" d="M76 670q2 305 160 493q157 187 393 185q233 -2 391 -190.5t154 -495.5q-4 -301 -168 -490q-166 -193 -385 -188q-221 4 -383 194q-164 197 -162 492zM152 668q-2 -254 137 -434.5t332 -182.5q190 -2 333 178q139 176 144 435q0 95 -25 196q-25 102 -76 199 q-51 94 -147 158q-98 63 -221 63q-96 0 -183 -41q-84 -41 -137 -106q-55 -68 -90 -148t-51 -162q-16 -85 -16 -155z" />
<glyph unicode="1" horiz-adv-x="516" d="M70 1118v74l268 156v-1348h-76v1229z" />
<glyph unicode="2" horiz-adv-x="1019" d="M100 956q0 170 98.5 281t276.5 111q166 0 266 -113q102 -115 103 -289q0 -92 -35 -184t-80 -170q-51 -88 -133 -186q-84 -100 -143 -164l-164 -174h647v-68h-827l170 170l147 160q84 90 141 164q39 51 103 147q49 76 75 147q23 61 23 134q0 188 -90 272q-92 86 -203 86 q-88 0 -147 -33q-63 -35 -92 -84q-31 -51 -46 -102q-14 -49 -14 -105q0 -129 80 -213l-53 -49q-103 108 -103 262z" />
<glyph unicode="3" horiz-adv-x="1122" d="M211 104l51 56q104 -109 262 -109q160 0 262 111q102 113 103 276q0 166 -107 271q-108 104 -258 104q-80 0 -147 -27l24 31l347 447h-467v67h591l-348 -450q178 0 307 -121q133 -123 134 -322q0 -203 -134 -329q-131 -125 -307 -125q-180 -1 -313 120z" />
<glyph unicode="4" horiz-adv-x="1040" d="M76 375l749 973v-906h199v-67h-199v-375h-75v375h-674zM219 442h531v693z" />
<glyph unicode="5" horiz-adv-x="1110" d="M211 104l51 56q104 -109 262 -109q160 0 262 111q102 113 103 276q0 166 -107 271q-108 104 -258 104q-135 0 -237 -78v596h614v-67h-539v-412q74 29 162 29q178 0 307 -121q133 -123 134 -322q0 -203 -134 -329q-131 -125 -307 -125q-180 -1 -313 120z" />
<glyph unicode="6" horiz-adv-x="1062" d="M102 403q0 115 43 226q41 109 104.5 196.5t160.5 180.5q113 106 178 155l192 144l43 -56q-373 -246 -557 -520q119 90 256 90q172 0 299 -121q125 -119 125 -295q0 -174 -125 -296.5t-299 -122.5t-297 122.5t-123 296.5zM178 403q0 -143 98.5 -247.5t242 -104.5 t247.5 104.5t104 247.5q0 145 -102 246q-106 102 -249.5 102.5t-242.5 -102.5q-98 -102 -98 -246z" />
<glyph unicode="7" d="M29 1264v67h825l-598 -1331h-76l572 1264h-723z" />
<glyph unicode="8" horiz-adv-x="1042" d="M102 403q0 131 74 235.5t195 152.5q-72 41 -111 106q-41 70 -41 150q0 125 88 213t211 88q125 0 213 -88.5t88 -212.5q0 -78 -41 -148t-108 -106q125 -43 200.5 -149.5t75.5 -240.5q0 -174 -125 -296.5t-299 -122.5t-297 122.5t-123 296.5zM178 403q0 -143 98.5 -247.5 t242 -104.5t247.5 104.5t104 247.5q0 145 -102 246q-106 102 -249.5 102.5t-242.5 -102.5q-98 -102 -98 -246zM295 1042q0 -94 65 -159q63 -63 162 -64q94 0 157.5 63.5t63.5 159.5q0 98 -63.5 168t-157.5 70q-92 0 -160 -72q-67 -71 -67 -166z" />
<glyph unicode="9" horiz-adv-x="1073" d="M102 885q0 174 125 297t299 123t297 -123t123 -297q0 -109 -45 -226q-45 -115 -102 -196q-63 -88 -160 -180q-113 -106 -178 -156l-193 -143l-43 55q373 246 557 520q-119 -90 -256 -90q-172 0 -299 121q-125 119 -125 295zM178 885q0 -145 103 -246q106 -102 249.5 -102 t241.5 102q98 101 98 246q0 141 -100 248q-98 104 -240 104q-143 0 -247.5 -104.5t-104.5 -247.5z" />
<glyph unicode=":" horiz-adv-x="356" d="M109 63q0 27 20 46q25 20 45 20q25 0 45 -20q18 -18 19 -46q0 -29 -18.5 -47t-45.5 -18q-29 0 -47 18t-18 47zM109 577.5q0 28.5 20 47.5q23 18 45 18q25 0 45 -20q18 -18 19 -45q0 -29 -18.5 -47.5t-45.5 -18.5q-29 0 -47 18.5t-18 47z" />
<glyph unicode=";" horiz-adv-x="409" d="M16 -246l158 422h82l-176 -422h-64zM172 578q0 29 20.5 47t45.5 18q23 0 43 -20.5t20 -44.5q0 -29 -18.5 -47.5t-45 -18.5t-44.5 18q-21 21 -21 48z" />
<glyph unicode="&#x3c;" horiz-adv-x="1390" d="M238 487l895 517v-74l-766 -443l766 -442v-74z" />
<glyph unicode="=" horiz-adv-x="1447" d="M205 287v65h1036v-65h-1036zM205 684v66h1036v-66h-1036z" />
<glyph unicode="&#x3e;" horiz-adv-x="1329" d="M238 -29v74l766 442l-766 443v74l895 -517z" />
<glyph unicode="?" horiz-adv-x="923" d="M63 1227q41 121 143.5 196.5t235.5 75.5q168 0 285 -116.5t117 -282.5q0 -203 -201 -355q-16 -12 -57 -36q-43 -25 -68 -47q-20 -18 -41 -62q-23 -49 -22 -104v-160h-72v199q0 63 24.5 108t55.5 70q28 22 92 61q66 41 94 64q119 106 119 262q0 145 -90 237 q-92 94 -236 95q-111 0 -194 -62q-82 -61 -113 -162zM350 94.5q0 28.5 21 46.5q23 18 45 19q25 0 43 -19q20 -20 20 -47q0 -29 -18.5 -47t-44.5 -18q-29 0 -47.5 18.5t-18.5 47z" />
<glyph unicode="@" horiz-adv-x="2025" d="M182 387q0 340 240 579.5t579 239.5q338 0 580 -241q240 -240 240 -580q-6 -203 -90 -293q-86 -92 -209 -92h-97q-53 0 -75 29q-18 25 -23 94l6 92q-41 -102 -133 -168q-90 -66 -207 -65q-164 0 -282 118q-117 117 -117 283q0 164 117 281q119 119 282 118 q119 0 205 -61.5t129 -163.5l10 211h66v-637q0 -39 8 -49q10 -12 39 -12h72q90 0 153 75q61 74 68 240q0 309 -217 526t-525 217q-309 0 -524 -217q-215 -219 -215 -526t215 -522q217 -217 524 -217q231 0 429 135l49 -60q-215 -154 -478 -153q-340 0 -579.5 239.5 t-239.5 579.5zM670 383q0 -141 92 -237.5t231 -96.5q141 0 233.5 96.5t92.5 237.5q0 145 -90 238q-92 94 -236 94q-139 0 -231 -94q-92 -97 -92 -238z" />
<glyph unicode="A" horiz-adv-x="1513" d="M125 0l635 1499l635 -1499h-80l-260 614h-590l-260 -614h-80zM494 684h530l-244 578l-20 65l-21 -65z" />
<glyph unicode="B" horiz-adv-x="1093" d="M164 0v1434h309q201 0 311.5 -86t110.5 -273q0 -129 -66 -225q-63 -94 -192 -129q131 -27 221 -121t90 -231q0 -172 -129 -270.5t-309 -98.5h-346zM240 68h270q154 0 258 79.5t104 221.5q0 160 -116.5 239.5t-280.5 79.5h-235v-620zM240 756h264q143 0 229 88 q86 90 86 231q0 291 -319 291h-260v-610z" />
<glyph unicode="C" horiz-adv-x="1370" d="M127 715q0 305 215 520t516 215q200 0 369 -98l-53 -60q-150 82 -316 82q-268 0 -463 -194q-193 -193 -192 -465q0 -270 192.5 -463t462.5 -193q166 0 313 80l58 -55q-170 -100 -371 -100q-301 0 -516 215t-215 516z" />
<glyph unicode="D" horiz-adv-x="1333" d="M168 0v1434h285q311 0 522 -199q213 -201 213 -518q0 -133 -45 -250q-49 -125 -137 -229q-94 -109 -252 -172q-166 -66 -373 -66h-213zM244 68h172q301 0 499 180q197 178 197 469q0 293 -196.5 471t-499.5 178h-172v-1298z" />
<glyph unicode="E" horiz-adv-x="1228" d="M186 0v1434h838v-68h-762v-610h682v-68h-682v-620h791v-68h-867z" />
<glyph unicode="F" horiz-adv-x="1200" d="M186 0v1434h838v-68h-762v-610h682v-68h-682v-688h-76z" />
<glyph unicode="G" horiz-adv-x="1415" d="M127 715q0 305 215 520t516 215q218 0 399 -117l-55 -57q-160 98 -344 98q-268 0 -463 -194q-193 -193 -192 -465q0 -270 192.5 -463t462.5 -193q158 0 303 74v350q0 39 -8 49q-10 12 -39 13h-260v69h283q55 0 77 -28q20 -27 21 -94v-402q-168 -106 -377 -106 q-301 0 -516 215t-215 516z" />
<glyph unicode="H" horiz-adv-x="1431" d="M205 0v1434h76v-678h872v678h76v-1434h-76v688h-872v-688h-76z" />
<glyph unicode="I" horiz-adv-x="481" d="M203 0v1434h76v-1434h-76z" />
<glyph unicode="J" horiz-adv-x="612" d="M37 -137q138 0 227 92q92 94 94 231v1248h76v-1248q-3 -163 -117 -276q-113 -113 -280 -113v66z" />
<glyph unicode="K" horiz-adv-x="1226" d="M150 0v1434h75v-652l-6 -65l39 47l703 670h88l-607 -578l678 -856h-88l-639 809l-168 -160v-649h-75z" />
<glyph unicode="L" horiz-adv-x="1212" d="M186 0v1434h76v-1366h791v-68h-867z" />
<glyph unicode="M" horiz-adv-x="1916" d="M205 0v1499l749 -973l750 973v-1499h-76v1231l6 65l-37 -55l-643 -840l-643 840l-37 55l7 -65v-1231h-76z" />
<glyph unicode="N" horiz-adv-x="1662" d="M205 0v1499l1143 -1325l38 -53l-6 65v1248h76v-1500l-1143 1326l-39 53l7 -66v-1247h-76z" />
<glyph unicode="O" horiz-adv-x="1718" d="M127 715q0 305 215 520t516 215q305 0 520 -215t215 -520q0 -301 -215 -516t-520 -215q-301 0 -516 215t-215 516zM203 715q0 -270 192.5 -463t462.5 -193q272 0 465 193q195 195 195 463q0 270 -195 464.5t-465 194.5q-268 0 -463 -194q-192 -193 -192 -465z" />
<glyph unicode="P" horiz-adv-x="927" d="M205 0v1434h295q88 0 182 -35q92 -34 166 -123q74 -88 74 -211q0 -176 -111 -280.5t-311 -104.5h-219v-680h-76zM281 748h208q98 0 173 30q76 31 110 78q41 55 57 100q16 47 17 109q0 123 -103 211q-106 90 -251 90h-211v-618z" />
<glyph unicode="Q" horiz-adv-x="1722" d="M127 715q0 305 215 520t516 215q305 0 520 -215t215 -520q0 -203 -104.5 -375t-278.5 -266h428v-76h-634q-78 -14 -146 -14q-301 0 -516 215t-215 516zM203 715q0 -270 192.5 -463t462.5 -193q272 0 465 193q195 195 195 463q0 270 -195 464.5t-465 194.5 q-268 0 -463 -194q-192 -193 -192 -465z" />
<glyph unicode="R" horiz-adv-x="1212" d="M205 0v1434h295q88 0 182 -35q92 -34 166 -123q74 -88 74 -211q0 -145 -78 -246q-76 -98 -223 -129l321 -690h-78l-317 680h-266v-680h-76zM281 748h208q98 0 173 30q76 31 110 78q41 55 57 100q16 47 17 109q0 123 -103 211q-106 90 -251 90h-211v-618z" />
<glyph unicode="S" horiz-adv-x="1159" d="M152 170l53 55q160 -168 348 -168q147 0 254 88q109 90 108 230q0 66 -30 121q-33 57 -64 86q-37 35 -102 63q-88 39 -98 43l-105 33q-307 92 -319 338q-1 13 -1 26q0 135 85 242q90 115 276 115q172 0 313 -123l-47 -62q-117 111 -270 111q-133 0 -207 -84 q-72 -80 -72 -205q0 -113 64 -174q66 -63 178 -102l68 -23l80 -26q23 -8 75 -31q35 -16 78 -41q31 -18 68 -49q31 -25 57 -68q16 -25 35 -82q14 -43 14 -102q0 -176 -125 -287q-126 -111 -307 -110q-227 0 -407 186z" />
<glyph unicode="T" horiz-adv-x="1130" d="M0 1366v68h1133v-68h-529v-1366h-76v1366h-528z" />
<glyph unicode="U" horiz-adv-x="1333" d="M201 463v971h75v-965q0 -195 109 -307q106 -111 285 -111q176 0 286 111q109 109 109 307v965h76v-971q0 -227 -131 -352q-133 -127 -340 -127t-338 127t-131 352z" />
<glyph unicode="V" horiz-adv-x="1476" d="M111 1434h79l537 -1266l18 -62l19 62l536 1266h80l-635 -1500z" />
<glyph unicode="W" horiz-adv-x="2267" d="M111 1434h79l537 -1266l18 -62l19 62l321 760l-213 506h80l537 -1266l18 -62l19 62l536 1266h80l-635 -1500l-362 854l-19 62l-18 -62l-363 -854z" />
<glyph unicode="X" horiz-adv-x="1431" d="M190 0l478 731l-457 703h84l395 -609l27 -55l26 55l390 596h84l-457 -702l469 -719h-86l-406 625l-28 57l-27 -57l-406 -625h-86z" />
<glyph unicode="Y" horiz-adv-x="1304" d="M84 1434h76l467 -781l24 -55h2l23 55l465 781h76l-527 -895l-2 -539h-74v539z" />
<glyph unicode="Z" horiz-adv-x="1431" d="M166 0v68l989 1298h-866q-68 0 -96 18q-27 18 -27 74v78h70v-55q0 -31 12 -39q10 -8 49 -8h954v-68l-989 -1298h1049v-68h-1145z" />
<glyph unicode="[" horiz-adv-x="690" d="M170 -305v1833h344v-68h-268v-1698h268v-67h-344z" />
<glyph unicode="\" horiz-adv-x="675" d="M0 1507h72l569 -1546h-72z" />
<glyph unicode="]" horiz-adv-x="698" d="M170 -238h268v1698h-268v68h344v-1833h-344v67z" />
<glyph unicode="^" horiz-adv-x="960" d="M229 981l246 371l246 -371h-68l-178 250l-178 -250h-68z" />
<glyph unicode="_" horiz-adv-x="1226" d="M205 0v68h819v-68h-819z" />
<glyph unicode="`" horiz-adv-x="407" d="M-61 1253h75l185 -272h-68z" />
<glyph unicode="a" horiz-adv-x="1126" d="M100 383q0 164 117 281q119 119 283 118q119 0 205 -61.5t129 -163.5l10 211h65v-768h-75v123l6 92q-41 -102 -133 -168q-90 -66 -207 -65q-164 0 -283 118q-117 117 -117 283zM176 383q0 -141 92 -237.5t232 -96.5q141 0 233 96.5t92 237.5t-92 238q-92 94 -233 94 q-139 0 -232 -94q-92 -97 -92 -238z" />
<glyph unicode="b" horiz-adv-x="1148" d="M205 0v1536h76v-979q43 102 129 163.5t204 61.5q164 0 283 -118q117 -117 117 -281q0 -166 -117 -283q-119 -119 -283 -118q-117 0 -206 65q-92 66 -134 168l7 -92v-123h-76zM289 383q0 -141 92 -237.5t233 -96.5q139 0 231.5 96.5t92.5 237.5q0 145 -90 238 q-92 94 -233.5 94t-233.5 -94q-92 -97 -92 -238z" />
<glyph unicode="c" horiz-adv-x="786" d="M57 383q0 164 117 281q119 119 283 118q154 0 266 -102l-41 -51q-92 86 -225 86q-139 0 -232 -94q-92 -96 -92 -238q0 -145 90 -238q92 -94 234 -94q133 0 225 86l41 -51q-115 -102 -266 -102q-164 0 -283 118q-117 117 -117 281z" />
<glyph unicode="d" horiz-adv-x="1069" d="M100 383q0 164 117 281q119 119 283 118q119 0 205 -61.5t129 -163.5v979h75v-1536h-75v123l6 92q-41 -102 -133 -168q-90 -66 -207 -65q-164 0 -283 118q-117 117 -117 283zM176 383q0 -141 92 -237.5t232 -96.5q141 0 233 96.5t92 237.5t-92 238q-92 94 -233 94 q-139 0 -232 -94q-92 -97 -92 -238z" />
<glyph unicode="e" horiz-adv-x="921" d="M80 381q0 164 117 281q119 119 282 118q133 0 223 -75q92 -76 132 -201l-656 -254q37 -92 117 -147.5t184 -55.5q131 0 221 84l52 -41q-113 -111 -273 -110q-164 0 -282 118q-117 117 -117 283zM156 381q0 -10 4 -64l585 228q-82 168 -266 168q-139 0 -231 -94.5 t-92 -237.5z" />
<glyph unicode="f" horiz-adv-x="573" d="M45 700v68h133v391q3 163 117 277q113 113 280 112v-65q-141 0 -229 -92.5t-92 -231.5v-391h238v-68h-238v-700h-76v700h-133z" />
<glyph unicode="g" horiz-adv-x="1058" d="M100 383q0 164 117 281q119 119 283 118q119 0 205 -61.5t129 -163.5l10 211h65v-893q-3 -163 -116 -276t-281 -113q-184 0 -311 123l53 43q102 -100 258 -101q139 0 231 93q90 90 91 231v248l6 92q-41 -102 -133 -168q-90 -66 -207 -65q-164 0 -283 118 q-117 117 -117 283zM176 383q0 -141 92 -237.5t232 -96.5q141 0 233 96.5t92 237.5t-92 238q-92 94 -233 94q-139 0 -232 -94q-92 -97 -92 -238z" />
<glyph unicode="h" horiz-adv-x="1001" d="M205 0v1536h76v-975q43 100 131 160q86 57 198 61q121 0 190.5 -63.5t76.5 -165.5v-553h-76v553q-2 63 -51 113q-45 45 -138 49q-137 0 -233 -82q-98 -84 -98 -205v-428h-76z" />
<glyph unicode="i" horiz-adv-x="366" d="M131 1067q0 29 20.5 47.5t45 18.5t43.5 -19q20 -20 20 -47q0 -29 -18.5 -47.5t-44.5 -18.5q-29 0 -47.5 18.5t-18.5 47.5zM150 0v768h75v-768h-75z" />
<glyph unicode="j" horiz-adv-x="458" d="M94 -465q104 94 109 246v987h76v-987q-6 -180 -134 -293zM180 1067q0 29 20.5 47.5t45 18.5t43.5 -19q20 -20 20 -47q0 -29 -18.5 -47.5t-44.5 -18.5q-29 0 -47.5 18.5t-18.5 47.5z" />
<glyph unicode="k" horiz-adv-x="917" d="M150 0v1536h73v-1163l459 426l45 -49l-293 -277l342 -473h-86l-309 422l-156 -146v-276h-75z" />
<glyph unicode="l" horiz-adv-x="376" d="M154 0v1536h73v-1536h-73z" />
<glyph unicode="m" horiz-adv-x="1628" d="M205 0v766h67l9 -205q43 100 131 160q86 57 198 61q121 0 190.5 -63.5t76.5 -165.5q43 104 129 166q84 59 200 63q121 0 190.5 -63.5t76.5 -165.5v-553h-76v553q-2 63 -51 113q-45 45 -138 49q-135 0 -231 -78q-100 -82 -100 -197v-440h-76v553q-2 63 -51 113 q-45 45 -138 49q-137 0 -233 -82q-98 -84 -98 -205v-428h-76z" />
<glyph unicode="n" horiz-adv-x="1011" d="M205 0v766h67l9 -205q43 100 131 160q86 57 198 61q121 0 190.5 -63.5t76.5 -165.5v-553h-76v553q-2 63 -51 113q-45 45 -138 49q-137 0 -233 -82q-98 -84 -98 -205v-428h-76z" />
<glyph unicode="o" d="M74 383q0 164 116 281q119 119 283 118q168 0 284.5 -116.5t116.5 -282.5t-116 -283q-119 -119 -285 -118q-164 0 -283 118q-116 117 -116 283zM150 383q0 -141 92 -237.5t231 -96.5q141 0 233.5 96.5t92.5 237.5t-92 238q-92 94 -234 94q-139 0 -231 -94 q-92 -97 -92 -238z" />
<glyph unicode="p" horiz-adv-x="1073" d="M137 -512v1280h68l8 -209q43 102 129 163.5t205 61.5q164 0 282 -118q117 -117 117 -281t-117 -281q-119 -119 -282 -118q-119 0 -205 61.5t-129 163.5v-723h-76zM221 385q0 -143 92 -238q92 -96 234 -96q139 0 231 96q92 94 92 237.5t-92 238t-231 94.5 q-141 0 -233.5 -94.5t-92.5 -237.5z" />
<glyph unicode="q" horiz-adv-x="1046" d="M109 383q0 164 116 281q119 119 283 118q119 0 205 -61.5t129 -163.5l10 211h74v-1280h-78v727q-41 -102 -133 -168q-90 -66 -207 -65q-164 0 -283 118q-116 117 -116 283zM184 383q0 -141 92.5 -237.5t231.5 -96.5q143 0 235 96q90 92 90.5 237.5t-90.5 238.5 q-92 94 -235 94q-139 0 -232 -94q-92 -97 -92 -238z" />
<glyph unicode="r" horiz-adv-x="675" d="M205 0v766h67l9 -205q43 98 127 158q86 61 194 63l-2 -67q-125 -2 -215 -84q-89 -80 -104 -203v-428h-76z" />
<glyph unicode="s" horiz-adv-x="815" d="M170 80l45 55q27 -39 90 -63q52 -21 95 -21h12q55 2 108 43q51 39 51 113q0 41 -14 67.5t-45 44.5q-35 20 -55 29l-66 25l-7 2l-22 8q-8 2 -15 4t-11 4t-6 2l-11 4q-10 4 -20 9q-16 8 -35 20q-6 4 -24 23q-20 20 -24.5 30t-12.5 39q-6 23 -6 49q0 98 65 154q68 57 148 57 q131 0 206 -88l-38 -53q-23 25 -70 49q-49 25 -98 25q-55 0 -97 -33q-43 -35 -43 -100q0 -55 29 -82q31 -28 92 -50q51 -18 88 -34.5t78 -42.5q47 -31 68 -68q23 -41 22 -90q0 -82 -63 -156q-61 -72 -178 -71q-158 0 -236 96z" />
<glyph unicode="t" horiz-adv-x="575" d="M86 700v68h133v500h76v-500h235v-68h-235v-700h-76v700h-133z" />
<glyph unicode="u" horiz-adv-x="1081" d="M205 229v539h76v-539q4 -68 51 -112q49 -47 137 -49q137 0 233 82q98 84 99 204v428h76v-782h-76v123l6 92q-43 -98 -131 -154q-94 -59 -205 -61q-121 0 -190 63q-74 66 -76 166z" />
<glyph unicode="v" horiz-adv-x="1024" d="M111 768h79l332 -662l332 662h80l-412 -815z" />
<glyph unicode="w" horiz-adv-x="1579" d="M111 768h79l332 -662l240 478l-92 184h80l331 -662l332 662h80l-412 -815l-280 553l-279 -553z" />
<glyph unicode="x" horiz-adv-x="817" d="M86 0l276 383l-276 385h86l242 -334l239 332h84l-278 -385l276 -381h-84l-239 332l-240 -332h-86z" />
<glyph unicode="y" horiz-adv-x="997" d="M104 768h80l332 -662l332 662h80l-645 -1280h-78l270 543z" />
<glyph unicode="z" horiz-adv-x="921" d="M86 0v68l637 632h-514q-70 0 -96.5 18.5t-26.5 74.5v77h70v-55q0 -29 12 -39q10 -8 49 -8h602v-68l-637 -632h637v-68h-733z" />
<glyph unicode="{" horiz-adv-x="571" d="M61 578v67q61 2 101 51q39 47 51 105q10 47 10 121v364q0 145 45 193q47 49 131 49h97v-68h-90q-61 0 -84 -41t-23 -170v-362q0 -190 -133 -277q133 -86 133 -274v-363q0 -133 20.5 -172t86.5 -39h90v-67h-97q-84 0 -131 49q-45 47 -45 193v364q0 76 -10 121 q-12 57 -51 104q-40 50 -101 52z" />
<glyph unicode="|" horiz-adv-x="464" d="M186 -475v1909h76v-1909h-76z" />
<glyph unicode="}" horiz-adv-x="565" d="M61 -238h91q63 0 84 39q23 41 22 172v363q0 188 133 274q-133 86 -133 277v362q0 129 -22.5 170t-83.5 41h-91v68h97q84 0 131 -49q45 -47 45 -193v-364q0 -74 10 -121q12 -57 51 -105q39 -49 101 -51v-67q-61 -2 -101 -52q-39 -47 -51 -104q-10 -45 -10 -121v-364 q0 -145 -45 -193q-47 -49 -131 -49h-97v67z" />
<glyph unicode="~" horiz-adv-x="999" d="M266 956q2 72 45 111q41 37 103 37q49 0 121 -66q51 -51 83 -51q76 0 89 96l57 -6q-4 -74 -45 -110q-43 -37 -103 -37q-55 0 -118 63q-57 53 -86 54q-80 0 -88 -97z" />
<glyph unicode="&#xa1;" horiz-adv-x="407" d="M139 1006q0 29 18.5 47t47.5 18q27 0 45 -18.5t18 -46.5q0 -25 -20.5 -45.5t-42.5 -20.5q-20 0 -45 21q-21 18 -21 45zM168 -430v1196h72v-1196h-72z" />
<glyph unicode="&#xa2;" horiz-adv-x="786" d="M57 383q0 145 97 258q98 115 241 135v121h76v-115q139 -6 252 -102l-41 -51q-88 80 -211 86v-664q123 4 211 86l41 -51q-109 -96 -252 -102v-121h-76v127q-143 20 -241 135q-97 113 -97 258zM133 383q0 -127 72 -217q71 -89 190 -111v654q-121 -23 -190 -109 q-72 -90 -72 -217z" />
<glyph unicode="&#xa3;" horiz-adv-x="1173" d="M59 0v74h91q63 0 86 39q20 35 20 166v335h-133v68h133v342q0 139 92 206.5t254 67.5q231 0 324 -186l-52 -31q-47 86 -104 119q-59 35 -168 35q-133 0 -202.5 -47t-69.5 -164v-342h239v-68h-239v-372q0 -106 -29 -168h442q129 0 170 22.5t41 83.5v90h68v-96 q0 -88 -49 -131t-193 -43h-721z" />
<glyph unicode="&#xa4;" horiz-adv-x="1024" d="M217 500l68 67q-59 74 -60 172q0 100 60 172l-68 70l47 47l68 -70q78 61 174 62q92 0 170 -59l67 67l48 -47l-66 -66q61 -76 61 -176q0 -96 -61 -174l68 -65l-48 -47l-67 65q-78 -59 -172 -59t-176 59l-66 -65zM307 737q0 -82 59.5 -141t141.5 -59q84 0 143.5 59 t59.5 141q0 84 -59.5 143.5t-143.5 59.5t-143 -59q-58 -58 -58 -144z" />
<glyph unicode="&#xa5;" horiz-adv-x="1304" d="M84 1434h76l491 -820h2l488 820h76l-488 -830h260v-65h-299l-2 -269h301v-65h-301v-205h-76v205h-305v65h305l2 269h-307v65h268z" />
<glyph unicode="&#xa6;" horiz-adv-x="438" d="M186 240h76v-717h-76v717zM186 717v717h76v-717h-76z" />
<glyph unicode="&#xa7;" horiz-adv-x="1024" d="M297 799q25 96 111 145q80 47 174 27l-101 172q-49 86 -55 147q-6 63 14.5 92t71.5 58l84 49l37 -66l-80 -45q-55 -27 -55 -73q0 -37 67 -156l170 -293q47 -82 23 -180q-25 -96 -111 -146q-82 -49 -174 -26l102 -176q49 -86 56 -146q6 -63 -15 -94q-23 -33 -71 -57 l-84 -49l-37 65l80 45q53 27 53 74q0 41 -65 156q-169 292 -173 294q-47 85 -22 183zM367 780q-14 -68 20.5 -127t99.5 -78q68 -18 125 15q61 35 75.5 102.5t-17.5 124.5q-35 61 -101 82q-68 22 -129 -12q-57 -33 -73 -107z" />
<glyph unicode="&#xa8;" horiz-adv-x="755" d="M143 1067q0 29 20.5 47.5t45 18.5t43.5 -19q20 -20 20 -47q0 -29 -18 -47.5t-45 -18.5q-29 0 -47.5 18.5t-18.5 47.5zM481 1067q0 29 21 47q23 18 45 19q25 0 43 -19q20 -20 20 -47q0 -29 -18.5 -47.5t-44.5 -18.5q-29 0 -47.5 18.5t-18.5 47.5z" />
<glyph unicode="&#xa9;" horiz-adv-x="1622" d="M295 758q0 224 154 375q152 150 370.5 149.5t370.5 -149.5q154 -151 153 -375q0 -221 -153 -371q-156 -152 -371 -151.5t-370 151.5q-154 150 -154 371zM362 758q0 -197 131.5 -328t326 -131t325.5 131t131 328q0 199 -131 330t-325.5 131t-326 -131t-131.5 -330z M500 766q0 137 98 235.5t238 98.5q126 0 221 -86l-41 -47q-84 66 -180 65q-119 0 -193 -74q-72 -72 -72 -192q0 -119 72 -191q74 -74 193 -73q113 0 180 67l41 -49q-96 -84 -221 -84q-137 0 -238 96q-98 96 -98 234z" />
<glyph unicode="&#xaa;" horiz-adv-x="1196" d="M190 903q0 121 84 205t205 84q170 0 242 -164l6 152h47v-553h-53v88l4 67q-34 -77 -98 -123q-63 -45 -148 -45q-121 0 -205 84t-84 205zM246 903q0 -100 65 -172q63 -70 168 -69q102 0 170 69q66 68 66 172q0 102 -66 172q-63 68 -170 68q-102 0 -168 -68 q-65 -70 -65 -172z" />
<glyph unicode="&#xab;" horiz-adv-x="1228" d="M240 489l350 330v-74l-252 -256l252 -258v-73zM590 489l350 330v-74l-252 -256l252 -258v-73z" />
<glyph unicode="&#xac;" horiz-adv-x="1142" d="M205 440v68h737v-205h-68v137h-669z" />
<glyph unicode="&#xad;" horiz-adv-x="612" d="M109 356v68h376v-68h-376z" />
<glyph unicode="&#xae;" horiz-adv-x="1638" d="M295 762q0 224 154 375q152 150 370.5 149.5t370.5 -149.5q154 -151 153 -375q0 -221 -153 -371q-156 -152 -371 -151.5t-370 151.5q-154 150 -154 371zM362 762q0 -197 131.5 -328t326 -131t325.5 131t131 328q0 199 -131 330t-325.5 131t-326 -131t-131.5 -330z M680 471v621h131q59 0 127 -49.5t68 -127.5q0 -63 -41 -116.5t-101 -67.5l109 -201q8 -14 28 -14h21v-45h-51q-25 0 -33 12l-127 244h-78v-256h-53zM733 782h72q82 0 115 39q35 41 34 94q0 49 -43 86q-45 39 -104 39h-74v-258z" />
<glyph unicode="&#xaf;" horiz-adv-x="815" d="M174 989v68h471v-68h-471z" />
<glyph unicode="&#xb0;" horiz-adv-x="575" d="M117 1147q0 71 49 117q51 47 117 47q70 0 116.5 -47t46.5 -117t-47 -117t-116 -47q-66 0 -117 47q-49 46 -49 117zM172 1147q0 -49 30.5 -82t80.5 -33q47 0 79 33q29 29 29 82q0 49 -29 82q-28 31 -79 31t-82 -31q-29 -29 -29 -82z" />
<glyph unicode="&#xb1;" horiz-adv-x="1071" d="M176 258v68h737v-68h-737zM176 766v68h334v333h68v-333h335v-68h-335v-336h-68v336h-334z" />
<glyph unicode="&#xb2;" horiz-adv-x="813" d="M197 768l165 170q61 68 109 143q53 84 53 144q0 90 -43 131q-41 39 -96 39q-78 0 -109 -45q-31 -47 -30 -107q0 -66 37 -102l-31 -29q-51 51 -51 131q0 84 49 139q47 53 135 54q82 0 133 -56q51 -53 51 -145q0 -66 -45 -150q-45 -86 -88 -133q-76 -88 -133 -143h311v-41 h-417z" />
<glyph unicode="&#xb3;" horiz-adv-x="856" d="M209 838l29 30q58 -61 147 -61q88 0 147 63q57 59 57.5 153.5t-59.5 152.5q-63 59 -145 59q-41 0 -84 -14l14 16l195 250h-262v39h332l-195 -254q95 0 172 -68q76 -68 76 -180q0 -114 -74 -184q-72 -70 -174 -70q-106 0 -176 68z" />
<glyph unicode="&#xb4;" horiz-adv-x="462" d="M205 981l184 272h76l-193 -272h-67z" />
<glyph unicode="&#xb5;" horiz-adv-x="1114" d="M205 -412v1180h76v-539q4 -68 51 -112q49 -47 137 -49q129 0 223 82q90 78 109 204v428h76v-782h-76v123l6 92q-43 -98 -131 -154q-94 -59 -205 -61q-120 0 -190 61v-473h-76z" />
<glyph unicode="&#x3bc;" horiz-adv-x="1114" d="M205 -412v1180h76v-539q4 -68 51 -112q49 -47 137 -49q129 0 223 82q90 78 109 204v428h76v-782h-76v123l6 92q-43 -98 -131 -154q-94 -59 -205 -61q-120 0 -190 61v-473h-76z" />
<glyph unicode="&#xb6;" horiz-adv-x="1019" d="M78 1200q0 141 96 238q98 98 238 98h407v-1536h-74v1468h-260v-1468h-73v866q-139 0 -236 97q-98 98 -98 237z" />
<glyph unicode="&#xb7;" horiz-adv-x="342" d="M109 577.5q0 28.5 20 47.5q23 18 45 18q25 0 45 -20q18 -18 19 -45q0 -29 -18.5 -47.5t-45.5 -18.5q-29 0 -47 18.5t-18 47z" />
<glyph unicode="&#xb8;" horiz-adv-x="923" d="M217 -346l70 16q12 -45 49 -71q35 -27 86 -27q61 0 102 43q41 45 41 104q0 66 -51 115q-31 18 -43 27q-25 16 -41 28q-12 9 -24 31q-10 18 -11 47v33h76v-14q0 -29 8 -45q6 -12 21 -27q8 -8 28 -18q8 -4 27 -17q74 -55 74 -160q0 -92 -54 -151q-55 -61 -153 -62 q-70 0 -125 37q-53 37 -80 111z" />
<glyph unicode="&#xb9;" horiz-adv-x="487" d="M139 1311v51l123 72v-613h-59v527z" />
<glyph unicode="&#xba;" d="M186 903q0 121 84 205t205 84q123 0 205 -84q84 -88 84 -205t-84 -205q-82 -84 -205 -84q-121 0 -205 84t-84 205zM242 903q0 -100 65 -172q63 -70 168 -69.5t168 69.5q66 72 66 172q0 102 -66 172q-66 68 -168 68t-168 -68q-65 -70 -65 -172z" />
<glyph unicode="&#xbb;" horiz-adv-x="1128" d="M240 158v73l252 258l-252 256v74l350 -330zM590 158v73l252 258l-252 256v74l350 -330z" />
<glyph unicode="&#xbc;" horiz-adv-x="1980" d="M248 1274v51l190 111v-957h-53v873zM524 -39l570 1546h71l-569 -1546h-72zM1026 279l557 725v-674h148v-51h-148v-279h-55v279h-502zM1133 330h395v516z" />
<glyph unicode="&#xbd;" horiz-adv-x="2187" d="M248 1274v51l190 111v-957h-53v873zM524 -39l570 1546h71l-569 -1546h-72zM1116 676q0 121 70 198q72 80 194 80q115 0 188.5 -79.5t73.5 -204.5q0 -80 -30 -156q-33 -82 -101 -170q-63 -82 -114 -141q-16 -18 -148 -158h459v-47h-586l178 182l140 160q80 94 114 172 q35 76 35 139q0 133 -65.5 194.5t-143.5 61.5q-113 0 -162 -73.5t-49 -157.5q0 -92 58 -150l-39 -34q-72 71 -72 184z" />
<glyph unicode="&#xbe;" horiz-adv-x="2611" d="M350 514l39 41q82 -82 199 -82q125 0 200 84q78 88 78 211q0 127 -82 207q-83 80 -196 80q-63 0 -113 -21l21 23l264 342h-357v51h451l-266 -344q133 0 235.5 -92t102.5 -246q0 -158 -100.5 -252t-237.5 -94q-140 0 -238 92zM942 -39l569 1546h72l-569 -1546h-72z M1434 279l557 725v-674h147v-51h-147v-279h-56v279h-501zM1540 330h395v516z" />
<glyph unicode="&#xbf;" horiz-adv-x="837" d="M8 4q0 203 201 354l57 37q43 25 68 47q20 18 41 62q23 49 22 104v160h72v-199q0 -61 -25 -108q-25 -45 -55 -70q-28 -22 -92 -61q-66 -41 -94 -64q-119 -106 -119 -262q0 -145 90 -237q92 -94 236 -95q111 0 194 62q82 61 113 162l71 -19q-39 -119 -145 -196 q-102 -76 -233 -76q-168 0 -285 116.5t-117 282.5zM373 1010q0 29 18.5 47t44.5 18q29 0 47.5 -18.5t18.5 -47t-21 -46.5q-23 -18 -45 -19q-25 0 -43 19q-20 20 -20 47z" />
<glyph unicode="&#xc0;" horiz-adv-x="1513" d="M125 0l635 1499l635 -1499h-80l-260 614h-590l-260 -614h-80zM494 684h530l-244 578l-20 65l-21 -65zM535 1911h75l185 -273h-68z" />
<glyph unicode="&#xc1;" horiz-adv-x="1513" d="M125 0l635 1499l635 -1499h-80l-260 614h-590l-260 -614h-80zM494 684h530l-244 578l-20 65l-21 -65zM725 1638l184 273h76l-192 -273h-68z" />
<glyph unicode="&#xc2;" horiz-adv-x="1513" d="M125 0l635 1499l635 -1499h-80l-260 614h-590l-260 -614h-80zM494 684h530l-244 578l-20 65l-21 -65zM514 1638l246 371l246 -371h-68l-178 250l-178 -250h-68z" />
<glyph unicode="&#xc3;" horiz-adv-x="1513" d="M125 0l635 1499l635 -1499h-80l-260 614h-590l-260 -614h-80zM453 1645q2 70 57 108q51 37 119 37q78 0 149 -66q57 -53 115 -53q41 0 76 20.5t41 73.5l57 -6q-2 -70 -57 -108q-51 -37 -119 -37q-78 0 -150 65q-57 53 -114 54q-39 0 -74 -21q-37 -22 -43 -74zM494 684 h530l-244 578l-20 65l-21 -65z" />
<glyph unicode="&#xc4;" horiz-adv-x="1513" d="M125 0l635 1499l635 -1499h-80l-260 614h-590l-260 -614h-80zM461 1704q0 27 20 45q25 20 45 20q25 0 45 -20q18 -18 19 -45q0 -29 -18.5 -47.5t-45.5 -18.5q-29 0 -47 18.5t-18 47.5zM494 684h530l-244 578l-20 65l-21 -65zM938 1704q0 27 20 45q25 20 46 20 q23 0 43 -20t20 -45q0 -29 -18.5 -47.5t-45 -18.5t-45.5 19q-20 20 -20 47z" />
<glyph unicode="&#xc5;" horiz-adv-x="1513" d="M125 0l635 1499l635 -1499h-80l-260 614h-590l-260 -614h-80zM494 684h530l-244 578l-20 65l-21 -65zM623 1716.5q0 55.5 41 96t96 40.5t96 -40.5t41 -96t-41 -96.5t-96 -41t-96 41t-41 96.5zM680 1716q0 -35 22.5 -57.5t57.5 -22.5t57.5 22.5t22.5 57.5t-22.5 57.5 t-57.5 22.5t-57.5 -22.5t-22.5 -57.5z" />
<glyph unicode="&#xc6;" horiz-adv-x="1613" d="M125 0l606 1434h670v-68h-565v-610h485v-68h-485v-620h594v-68h-670v614h-295l-260 -614h-80zM494 684h266v580l2 61l-21 -57z" />
<glyph unicode="&#xc7;" horiz-adv-x="1370" d="M127 715q0 305 215 520t516 215q200 0 369 -98l-53 -60q-150 82 -316 82q-268 0 -463 -194q-193 -193 -192 -465q0 -270 192.5 -463t462.5 -193q166 0 313 80l58 -55q-158 -94 -350 -100q0 -25 10 -45q9 -18 18 -25q25 -16 29 -18q8 -4 27 -17q74 -55 73 -160 q0 -90 -55 -151.5t-152 -61.5q-70 0 -124 37q-53 37 -80 111l69 16q12 -45 49 -71q35 -27 86 -27q63 0 103 43q41 45 41 104q0 66 -51 115q-10 6 -41 27l-16.5 11l-16.5 11t-10 6q-12 9 -25 31q-10 18 -10 47v19q-285 20 -481 229q-195 207 -195 500z" />
<glyph unicode="&#xc8;" horiz-adv-x="1228" d="M186 0v1434h838v-68h-762v-610h682v-68h-682v-620h791v-68h-867zM369 1911h75l185 -273h-68z" />
<glyph unicode="&#xc9;" horiz-adv-x="1228" d="M186 0v1434h838v-68h-762v-610h682v-68h-682v-620h791v-68h-867zM561 1638l184 273h76l-192 -273h-68z" />
<glyph unicode="&#xca;" horiz-adv-x="1228" d="M186 0v1434h838v-68h-762v-610h682v-68h-682v-620h791v-68h-867zM369 1638l245 371l246 -371h-67l-179 250l-178 -250h-67z" />
<glyph unicode="&#xcb;" horiz-adv-x="1228" d="M186 0v1434h838v-68h-762v-610h682v-68h-682v-620h791v-68h-867zM301 1704q0 27 21 45q25 20 45 20q23 0 43 -20t20 -45q0 -29 -18.5 -47.5t-44.5 -18.5q-29 0 -47.5 18.5t-18.5 47.5zM778 1704q0 27 21 45q25 20 45 20q23 0 43 -20t20 -45q0 -29 -18.5 -47.5 t-44.5 -18.5q-29 0 -47.5 18.5t-18.5 47.5z" />
<glyph unicode="&#xcc;" horiz-adv-x="481" d="M12 1911h76l184 -273h-67zM203 0v1434h76v-1434h-76z" />
<glyph unicode="&#xcd;" horiz-adv-x="481" d="M203 0v1434h76v-1434h-76zM205 1638l184 273h76l-193 -273h-67z" />
<glyph unicode="&#xce;" horiz-adv-x="481" d="M-6 1638l246 371l245 -371h-67l-178 250l-179 -250h-67zM203 0v1434h76v-1434h-76z" />
<glyph unicode="&#xcf;" horiz-adv-x="481" d="M-61 1704q0 27 20 45q25 20 45 20q25 0 45 -20q18 -18 19 -45q0 -29 -18.5 -47.5t-45.5 -18.5q-29 0 -47 18.5t-18 47.5zM203 0v1434h76v-1434h-76zM416 1704q0 27 20 45q25 20 45 20q25 0 45 -20q18 -18 19 -45q0 -29 -18.5 -47.5t-45.5 -18.5q-29 0 -47 18.5t-18 47.5z " />
<glyph unicode="&#xd0;" horiz-adv-x="1320" d="M45 688v68h123v678h285q311 0 522 -199q213 -201 213 -518q0 -133 -45 -250q-49 -125 -137 -229q-94 -109 -252 -172q-166 -66 -373 -66h-213v688h-123zM244 68h172q301 0 499 180q197 178 197 469q0 293 -196.5 471t-499.5 178h-172v-610h418v-68h-418v-620z" />
<glyph unicode="&#xd1;" horiz-adv-x="1662" d="M205 0v1499l1143 -1325l38 -53l-6 65v1248h76v-1500l-1143 1326l-39 53l7 -66v-1247h-76zM530 1645q2 70 58 108q51 37 119 37q78 0 149 -66q57 -53 115 -53q39 0 73 21q37 22 43 73l58 -6q-2 -70 -58 -108q-51 -37 -118 -37q-78 0 -150 65q-57 53 -114 54q-39 0 -74 -21 q-37 -22 -43 -74z" />
<glyph unicode="&#xd2;" horiz-adv-x="1716" d="M127 715q0 305 215 520t516 215q305 0 520 -215t215 -520q0 -301 -215 -516t-520 -215q-301 0 -516 215t-215 516zM203 715q0 -270 192.5 -463t462.5 -193q272 0 465 193q195 195 195 463q0 270 -195 464.5t-465 194.5q-268 0 -463 -194q-192 -193 -192 -465zM629 1911 h76l184 -273h-68z" />
<glyph unicode="&#xd3;" horiz-adv-x="1718" d="M127 715q0 305 215 520t516 215q305 0 520 -215t215 -520q0 -301 -215 -516t-520 -215q-301 0 -516 215t-215 516zM203 715q0 -270 192.5 -463t462.5 -193q272 0 465 193q195 195 195 463q0 270 -195 464.5t-465 194.5q-268 0 -463 -194q-192 -193 -192 -465zM819 1638 l185 273h75l-192 -273h-68z" />
<glyph unicode="&#xd4;" horiz-adv-x="1716" d="M127 715q0 305 215 520t516 215q305 0 520 -215t215 -520q0 -301 -215 -516t-520 -215q-301 0 -516 215t-215 516zM203 715q0 -270 192.5 -463t462.5 -193q272 0 465 193q195 195 195 463q0 270 -195 464.5t-465 194.5q-268 0 -463 -194q-192 -193 -192 -465zM604 1638 l246 371l246 -371h-68l-178 250l-178 -250h-68z" />
<glyph unicode="&#xd5;" horiz-adv-x="1716" d="M127 715q0 305 215 520t516 215q305 0 520 -215t215 -520q0 -301 -215 -516t-520 -215q-301 0 -516 215t-215 516zM203 715q0 -270 192.5 -463t462.5 -193q272 0 465 193q195 195 195 463q0 270 -195 464.5t-465 194.5q-268 0 -463 -194q-192 -193 -192 -465zM557 1645 q2 70 57 108q53 37 119 37q78 0 150 -66q57 -53 114 -53q39 0 74 21q37 22 43 73l57 -6q-2 -70 -57 -108q-53 -37 -119 -37q-78 0 -149 65q-57 53 -115 54q-39 0 -74 -21q-37 -22 -43 -74z" />
<glyph unicode="&#xd6;" horiz-adv-x="1716" d="M127 715q0 305 215 520t516 215q305 0 520 -215t215 -520q0 -301 -215 -516t-520 -215q-301 0 -516 215t-215 516zM203 715q0 -270 192.5 -463t462.5 -193q272 0 465 193q195 195 195 463q0 270 -195 464.5t-465 194.5q-268 0 -463 -194q-192 -193 -192 -465zM563 1704 q0 27 21 45q25 20 45 20q23 0 43 -20t20 -45q0 -29 -18.5 -47.5t-44.5 -18.5q-29 0 -47.5 18.5t-18.5 47.5zM1040 1704q0 27 21 45q25 20 45 20q23 0 43 -20t20 -45q0 -29 -18 -47.5t-45 -18.5q-29 0 -47.5 18.5t-18.5 47.5z" />
<glyph unicode="&#xd7;" horiz-adv-x="1024" d="M227 49l236 236l-236 235l47 49l236 -237l238 237l49 -47l-238 -237l238 -238l-49 -47l-238 236l-236 -236z" />
<glyph unicode="&#xd8;" horiz-adv-x="1718" d="M127 715q0 305 215 520t516 215q252 0 451 -156l131 156l51 -41l-133 -156q236 -217 235 -538q0 -301 -215 -516t-520 -215q-254 0 -446 151l-144 -170l-51 45l143 168q-233 220 -233 537zM203 715q0 -287 207 -477l847 999q-174 137 -399 137q-268 0 -463 -194 q-192 -193 -192 -465zM461 193q176 -133 397 -134q272 0 465 193q195 195 195 463q0 281 -209 477z" />
<glyph unicode="&#xd9;" horiz-adv-x="1333" d="M201 463v971h75v-965q0 -195 109 -307q106 -111 285 -111q176 0 286 111q109 109 109 307v965h76v-971q0 -227 -131 -352q-133 -127 -340 -127t-338 127t-131 352zM422 1911h76l184 -273h-68z" />
<glyph unicode="&#xda;" horiz-adv-x="1333" d="M201 463v971h75v-965q0 -195 109 -307q106 -111 285 -111q176 0 286 111q109 109 109 307v965h76v-971q0 -227 -131 -352q-133 -127 -340 -127t-338 127t-131 352zM614 1638l185 273h75l-192 -273h-68z" />
<glyph unicode="&#xdb;" horiz-adv-x="1333" d="M201 463v971h75v-965q0 -195 109 -307q106 -111 285 -111q176 0 286 111q109 109 109 307v965h76v-971q0 -227 -131 -352q-133 -127 -340 -127t-338 127t-131 352zM420 1638l246 371l245 -371h-67l-178 250l-179 -250h-67z" />
<glyph unicode="&#xdc;" horiz-adv-x="1333" d="M201 463v971h75v-965q0 -195 109 -307q106 -111 285 -111q176 0 286 111q109 109 109 307v965h76v-971q0 -227 -131 -352q-133 -127 -340 -127t-338 127t-131 352zM373 1704q0 27 20 45q25 20 45 20q25 0 45 -20q18 -18 19 -45q0 -29 -18.5 -47.5t-45.5 -18.5 q-29 0 -47 18.5t-18 47.5zM850 1704q0 27 20 45q25 20 45 20q25 0 46 -20q18 -18 18 -45q0 -29 -18.5 -47.5t-45.5 -18.5q-29 0 -47 18.5t-18 47.5z" />
<glyph unicode="&#xdd;" horiz-adv-x="1304" d="M84 1434h76l467 -781l24 -55h2l23 55l465 781h76l-527 -895l-2 -539h-74v539zM614 1638l185 273h75l-192 -273h-68z" />
<glyph unicode="&#xde;" horiz-adv-x="1024" d="M205 0v1434h76v-338h219q88 0 182 -35q92 -34 166 -123q74 -90 74 -211q0 -176 -111 -280.5t-311 -104.5h-219v-342h-76zM281 410h208q98 0 173 30q76 31 110 78q41 55 57 100q16 47 17 109q0 123 -103 211q-106 90 -251 90h-211v-618z" />
<glyph unicode="&#xdf;" horiz-adv-x="1171" d="M45 702v68h133v188q3 163 117 277q113 113 285 113q125 0 213 -88.5t88 -212.5q0 -80 -41 -150t-111 -106q126 -43 203 -148q76 -102 76 -240q0 -174 -125 -296.5t-299 -122.5q-94 0 -166 32l31 64q68 -29 131 -29q143 0 247.5 104.5t104.5 247.5q0 137 -100.5 242 t-239.5 107v63q94 4 156 68q61 65 61 159q0 100 -66 168q-68 72 -168 72q-141 0 -229 -92q-90 -92 -92 -232v-958h-76v702h-133z" />
<glyph unicode="&#xe0;" horiz-adv-x="1126" d="M100 383q0 164 117 281q119 119 283 118q119 0 205 -61.5t129 -163.5l10 211h65v-768h-75v123l6 92q-41 -102 -133 -168q-90 -66 -207 -65q-164 0 -283 118q-117 117 -117 283zM176 383q0 -141 92 -237.5t232 -96.5q141 0 233 96.5t92 237.5t-92 238q-92 94 -233 94 q-139 0 -232 -94q-92 -97 -92 -238zM283 1253h75l185 -272h-68z" />
<glyph unicode="&#xe1;" horiz-adv-x="1126" d="M100 383q0 164 117 281q119 119 283 118q119 0 205 -61.5t129 -163.5l10 211h65v-768h-75v123l6 92q-41 -102 -133 -168q-90 -66 -207 -65q-164 0 -283 118q-117 117 -117 283zM176 383q0 -141 92 -237.5t232 -96.5q141 0 233 96.5t92 237.5t-92 238q-92 94 -233 94 q-139 0 -232 -94q-92 -97 -92 -238zM473 981l184 272h76l-192 -272h-68z" />
<glyph unicode="&#xe2;" horiz-adv-x="1126" d="M100 383q0 164 117 281q119 119 283 118q119 0 205 -61.5t129 -163.5l10 211h65v-768h-75v123l6 92q-41 -102 -133 -168q-90 -66 -207 -65q-164 0 -283 118q-117 117 -117 283zM176 383q0 -141 92 -237.5t232 -96.5q141 0 233 96.5t92 237.5t-92 238q-92 94 -233 94 q-139 0 -232 -94q-92 -97 -92 -238zM289 981l246 371l245 -371h-67l-178 250l-179 -250h-67z" />
<glyph unicode="&#xe3;" horiz-adv-x="1126" d="M100 383q0 164 117 281q119 119 283 118q119 0 205 -61.5t129 -163.5l10 211h65v-768h-75v123l6 92q-41 -102 -133 -168q-90 -66 -207 -65q-164 0 -283 118q-117 117 -117 283zM176 383q0 -141 92 -237.5t232 -96.5q141 0 233 96.5t92 237.5t-92 238q-92 94 -233 94 q-139 0 -232 -94q-92 -97 -92 -238zM254 967q2 72 45 110q41 37 102 37q49 0 121 -65q51 -51 84 -52q80 0 88 97l58 -7q-4 -74 -45 -110q-43 -37 -103 -37q-55 0 -119 64q-57 53 -86 53q-78 0 -88 -96z" />
<glyph unicode="&#xe4;" horiz-adv-x="1126" d="M100 383q0 164 117 281q119 119 283 118q119 0 205 -61.5t129 -163.5l10 211h65v-768h-75v123l6 92q-41 -102 -133 -168q-90 -66 -207 -65q-164 0 -283 118q-117 117 -117 283zM176 383q0 -141 92 -237.5t232 -96.5q141 0 233 96.5t92 237.5t-92 238q-92 94 -233 94 q-139 0 -232 -94q-92 -97 -92 -238zM303 1067q0 29 20.5 47.5t45 18.5t43.5 -19q20 -20 20 -47q0 -29 -18.5 -47.5t-44.5 -18.5q-29 0 -47.5 18.5t-18.5 47.5zM641 1067q0 29 21 47q23 18 45 19q25 0 43 -19q20 -20 20 -47q0 -29 -18.5 -47.5t-45 -18.5t-44.5 19 q-21 20 -21 47z" />
<glyph unicode="&#xe5;" horiz-adv-x="1126" d="M100 383q0 164 117 281q119 119 283 118q119 0 205 -61.5t129 -163.5l10 211h65v-768h-75v123l6 92q-41 -102 -133 -168q-90 -66 -207 -65q-164 0 -283 118q-117 117 -117 283zM176 383q0 -141 92 -237.5t232 -96.5q141 0 233 96.5t92 237.5t-92 238q-92 94 -233 94 q-139 0 -232 -94q-92 -97 -92 -238zM375 1108q0 55 41 96t96 41t96 -41t41 -96t-41 -96t-96 -41t-96 41t-41 96zM432 1108q0 -35 22.5 -57.5t57.5 -22.5t57.5 22.5t22.5 57.5t-22.5 57.5t-57.5 22.5t-57.5 -22.5t-22.5 -57.5z" />
<glyph unicode="&#xe6;" horiz-adv-x="1286" d="M100 201q0 102 88 147q90 47 222 47h252v94q0 121 -47.5 174.5t-196.5 53.5q-53 0 -109 -17q-59 -18 -92 -41l-51 50q41 35 113 55q70 20 141 20q156 0 231 -53q90 49 191 49q133 0 223 -75q92 -76 131 -201l-459 -178v-215q0 -35 8 -52q45 -12 97 -12q131 0 221 84 l51 -41q-115 -111 -272 -110q-126 0 -221 67q-70 -63 -201 -63q-154 0 -238 49q-82 49 -82 168zM176 203q0 -152 250 -152q236 0 236 162v115h-242q-111 0 -180 -27q-64 -24 -64 -98zM698 682q39 -59 39 -184v-99l371 146q-82 168 -266 168q-83 0 -144 -31z" />
<glyph unicode="&#xe7;" horiz-adv-x="786" d="M57 383q0 164 117 281q119 119 283 118q154 0 266 -102l-41 -51q-92 86 -225 86q-139 0 -232 -94q-92 -96 -92 -238q0 -145 90 -238q92 -94 234 -94q133 0 225 86l41 -51q-109 -96 -252 -102q0 -29 8 -45.5t21 -24.5l28 -18q8 -4 27 -17q74 -55 74 -160q0 -92 -54 -151 q-55 -61 -153 -62q-70 0 -125 37q-53 37 -80 111l70 16q12 -45 49 -71q35 -27 86 -27q61 0 102 43q41 45 41 104q0 66 -51 115q-31 18 -43 27q-25 16 -41 28q-12 9 -24 31q-10 18 -11 47v23q-143 20 -241 135q-97 113 -97 258z" />
<glyph unicode="&#xe8;" horiz-adv-x="921" d="M80 381q0 164 117 281q119 119 282 118q133 0 223 -75q92 -76 132 -201l-656 -254q37 -92 117 -147.5t184 -55.5q131 0 221 84l52 -41q-113 -111 -273 -110q-164 0 -282 118q-117 117 -117 283zM156 381q0 -10 4 -64l585 228q-82 168 -266 168q-139 0 -231 -94.5 t-92 -237.5zM215 1253h76l184 -272h-67z" />
<glyph unicode="&#xe9;" horiz-adv-x="921" d="M80 381q0 164 117 281q119 119 282 118q133 0 223 -75q92 -76 132 -201l-656 -254q37 -92 117 -147.5t184 -55.5q131 0 221 84l52 -41q-113 -111 -273 -110q-164 0 -282 118q-117 117 -117 283zM156 381q0 -10 4 -64l585 228q-82 168 -266 168q-139 0 -231 -94.5 t-92 -237.5zM473 981l184 272h76l-192 -272h-68z" />
<glyph unicode="&#xea;" horiz-adv-x="921" d="M80 381q0 164 117 281q119 119 282 118q133 0 223 -75q92 -76 132 -201l-656 -254q37 -92 117 -147.5t184 -55.5q131 0 221 84l52 -41q-113 -111 -273 -110q-164 0 -282 118q-117 117 -117 283zM156 381q0 -10 4 -64l585 228q-82 168 -266 168q-139 0 -231 -94.5 t-92 -237.5zM229 981l246 371l246 -371h-68l-178 250l-178 -250h-68z" />
<glyph unicode="&#xeb;" horiz-adv-x="921" d="M80 381q0 164 117 281q119 119 282 118q133 0 223 -75q92 -76 132 -201l-656 -254q37 -92 117 -147.5t184 -55.5q131 0 221 84l52 -41q-113 -111 -273 -110q-164 0 -282 118q-117 117 -117 283zM156 381q0 -10 4 -64l585 228q-82 168 -266 168q-139 0 -231 -94.5 t-92 -237.5zM254 1067q0 29 20.5 47.5t45 18.5t42.5 -19q20 -20 20.5 -47t-20.5 -47q-18 -18 -43 -19q-29 0 -47 18.5t-18 47.5zM592 1067q0 29 20 47q23 18 45 19q27 0 45.5 -18.5t18.5 -47.5t-18.5 -47.5t-45.5 -18.5q-29 0 -47 18.5t-18 47.5z" />
<glyph unicode="&#xec;" horiz-adv-x="354" d="M-61 1253h75l185 -272h-68zM125 0v768h74v-768h-74z" />
<glyph unicode="&#xed;" horiz-adv-x="395" d="M125 0v768h74v-768h-74zM133 981l184 272h76l-192 -272h-68z" />
<glyph unicode="&#xee;" horiz-adv-x="487" d="M-8 981l246 371l245 -371h-67l-178 250l-179 -250h-67zM199 0v768h73v-768h-73z" />
<glyph unicode="&#xef;" horiz-adv-x="552" d="M47 1067q0 29 21 47q23 18 45 19q25 0 43 -19q20 -20 20 -47q0 -29 -18.5 -47.5t-44.5 -18.5q-29 0 -47.5 18.5t-18.5 47.5zM250 0v768h74v-768h-74zM385 1067q0 29 20.5 47.5t45 18.5t43.5 -19q20 -20 20 -47q0 -29 -18.5 -47.5t-45 -18.5t-44.5 19q-21 20 -21 47z" />
<glyph unicode="&#xf0;" horiz-adv-x="1007" d="M74 383q0 164 116 281q119 119 283 118q166 0 281 -114q-82 295 -275 553l-141 -142l-47 47l145 148v2q-96 109 -186 186l49 49q72 -53 190 -186l142 143l49 -47l-145 -145q133 -164 233 -414q104 -258 106 -479q0 -166 -116 -283q-119 -119 -285 -118q-164 0 -283 118 q-116 117 -116 283zM150 383q0 -141 92 -237.5t231 -96.5q141 0 233.5 96.5t92.5 237.5t-92 238q-92 94 -234 94q-139 0 -231 -94q-92 -97 -92 -238z" />
<glyph unicode="&#xf1;" horiz-adv-x="1069" d="M205 0v766h67l9 -205q43 100 131 160q86 57 198 61q121 0 190.5 -63.5t76.5 -165.5v-553h-76v553q-2 63 -51 113q-45 45 -138 49q-137 0 -233 -82q-98 -84 -98 -205v-428h-76zM324 967q2 72 45 110q41 37 102 37q49 0 121 -65q51 -51 84 -52q80 0 88 97l57 -7 q-2 -72 -45 -110q-39 -37 -102 -37q-55 0 -119 64q-57 53 -86 53q-78 0 -88 -96z" />
<glyph unicode="&#xf2;" d="M74 383q0 164 116 281q119 119 283 118q168 0 284.5 -116.5t116.5 -282.5t-116 -283q-119 -119 -285 -118q-164 0 -283 118q-116 117 -116 283zM150 383q0 -141 92 -237.5t231 -96.5q141 0 233.5 96.5t92.5 237.5t-92 238q-92 94 -234 94q-139 0 -231 -94 q-92 -97 -92 -238zM215 1253h76l184 -272h-67z" />
<glyph unicode="&#xf3;" d="M74 383q0 164 116 281q119 119 283 118q168 0 284.5 -116.5t116.5 -282.5t-116 -283q-119 -119 -285 -118q-164 0 -283 118q-116 117 -116 283zM150 383q0 -141 92 -237.5t231 -96.5q141 0 233.5 96.5t92.5 237.5t-92 238q-92 94 -234 94q-139 0 -231 -94 q-92 -97 -92 -238zM473 981l184 272h76l-192 -272h-68z" />
<glyph unicode="&#xf4;" d="M74 383q0 164 116 281q119 119 283 118q168 0 284.5 -116.5t116.5 -282.5t-116 -283q-119 -119 -285 -118q-164 0 -283 118q-116 117 -116 283zM150 383q0 -141 92 -237.5t231 -96.5q141 0 233.5 96.5t92.5 237.5t-92 238q-92 94 -234 94q-139 0 -231 -94 q-92 -97 -92 -238zM229 981l246 371l246 -371h-68l-178 250l-178 -250h-68z" />
<glyph unicode="&#xf5;" d="M74 383q0 164 116 281q119 119 283 118q168 0 284.5 -116.5t116.5 -282.5t-116 -283q-119 -119 -285 -118q-164 0 -283 118q-116 117 -116 283zM150 383q0 -141 92 -237.5t231 -96.5q141 0 233.5 96.5t92.5 237.5t-92 238q-92 94 -234 94q-139 0 -231 -94 q-92 -97 -92 -238zM219 967q2 72 45 110q39 37 103 37q49 0 120 -65q51 -51 84 -52q80 0 88 97l58 -7q-4 -74 -45 -110q-43 -37 -103 -37q-55 0 -118 64q-57 53 -86 53q-76 0 -89 -96z" />
<glyph unicode="&#xf6;" d="M74 383q0 164 116 281q119 119 283 118q168 0 284.5 -116.5t116.5 -282.5t-116 -283q-119 -119 -285 -118q-164 0 -283 118q-116 117 -116 283zM150 383q0 -141 92 -237.5t231 -96.5q141 0 233.5 96.5t92.5 237.5t-92 238q-92 94 -234 94q-139 0 -231 -94 q-92 -97 -92 -238zM254 1067q0 29 20.5 47.5t45 18.5t42.5 -19q20 -20 20.5 -47t-20.5 -47q-18 -18 -43 -19q-29 0 -47 18.5t-18 47.5zM592 1067q0 29 20 47q23 18 45 19q27 0 45.5 -18.5t18.5 -47.5t-18.5 -47.5t-45.5 -18.5q-29 0 -47 18.5t-18 47.5z" />
<glyph unicode="&#xf7;" horiz-adv-x="1024" d="M139 440v68h738v-68h-738zM449 209q0 29 20 47q23 18 45 18q27 0 45.5 -18t18.5 -47t-18.5 -47.5t-45.5 -18.5t-45 19q-20 20 -20 47zM449 723q0 27 20 45q25 20 45 20q25 0 45 -20q18 -18 19 -45q0 -29 -18.5 -47.5t-45.5 -18.5t-45 19q-20 20 -20 47z" />
<glyph unicode="&#xf8;" d="M74 383q0 164 116 281q119 119 283 118q125 0 225 -67l80 94l51 -41l-79 -94q125 -119 124 -291q0 -166 -116 -283q-119 -119 -285 -118q-137 0 -242 79l-81 -96l-52 45l84 99q-108 114 -108 274zM150 383q0 -129 75 -221l428 502q-76 51 -180 51q-139 0 -231 -94 q-92 -97 -92 -238zM274 113q82 -63 199 -64q141 0 233.5 96.5t92.5 237.5t-92 240z" />
<glyph unicode="&#xf9;" horiz-adv-x="1081" d="M205 229v539h76v-539q4 -68 51 -112q49 -47 137 -49q137 0 233 82q98 84 99 204v428h76v-782h-76v123l6 92q-43 -98 -131 -154q-94 -59 -205 -61q-121 0 -190 63q-74 66 -76 166zM283 1253h75l185 -272h-68z" />
<glyph unicode="&#xfa;" horiz-adv-x="1081" d="M205 229v539h76v-539q4 -68 51 -112q49 -47 137 -49q137 0 233 82q98 84 99 204v428h76v-782h-76v123l6 92q-43 -98 -131 -154q-94 -59 -205 -61q-121 0 -190 63q-74 66 -76 166zM473 981l184 272h76l-192 -272h-68z" />
<glyph unicode="&#xfb;" horiz-adv-x="1081" d="M205 229v539h76v-539q4 -68 51 -112q49 -47 137 -49q137 0 233 82q98 84 99 204v428h76v-782h-76v123l6 92q-43 -98 -131 -154q-94 -59 -205 -61q-121 0 -190 63q-74 66 -76 166zM299 981l246 371l246 -371h-68l-178 250l-178 -250h-68z" />
<glyph unicode="&#xfc;" horiz-adv-x="1081" d="M205 229v539h76v-539q4 -68 51 -112q49 -47 137 -49q137 0 233 82q98 84 99 204v428h76v-782h-76v123l6 92q-43 -98 -131 -154q-94 -59 -205 -61q-121 0 -190 63q-74 66 -76 166zM299 1065q0 27 20 45q25 20 46 20q23 0 43 -20t20 -45q0 -29 -18.5 -47.5t-45 -18.5 t-45.5 19q-20 20 -20 47zM637 1065q0 27 20 45q25 20 45 20q25 0 46 -20q18 -18 18 -45q0 -29 -18.5 -47.5t-45.5 -18.5q-29 0 -47 18.5t-18 47.5z" />
<glyph unicode="&#xfd;" horiz-adv-x="997" d="M104 768h80l332 -662l332 662h80l-645 -1280h-78l270 543zM494 981l184 272h76l-193 -272h-67z" />
<glyph unicode="&#xfe;" horiz-adv-x="1138" d="M205 -514v2050h76v-979q43 102 129 163.5t204 61.5q164 0 283 -118q117 -117 117 -281q0 -166 -117 -283q-119 -119 -283 -118q-115 0 -200 61q-88 63 -133 158v-715h-76zM281 369q6 -135 100 -228q95 -92 233 -92q139 0 231.5 96.5t92.5 237.5q0 145 -90 238 q-92 94 -234 94q-137 0 -233 -90q-94 -88 -100 -228v-28z" />
<glyph unicode="&#xff;" horiz-adv-x="997" d="M104 768h80l332 -662l332 662h80l-645 -1280h-78l270 543zM289 1065q0 27 20 45q25 20 45 20q25 0 45 -20q18 -18 19 -45q0 -29 -18.5 -47.5t-45.5 -18.5q-29 0 -47 18.5t-18 47.5zM627 1065q0 27 20 45q25 20 45 20q25 0 45 -20q18 -18 19 -45q0 -29 -18.5 -47.5 t-45.5 -18.5q-29 0 -47 18.5t-18 47.5z" />
<glyph unicode="&#x152;" horiz-adv-x="2250" d="M127 715q0 305 215 520t516 215q200 0 369 -98v82h837v-68h-761v-610h682v-68h-682v-620h790v-68h-866v82q-175 -98 -369 -98q-301 0 -516 215t-215 516zM203 715q0 -270 192.5 -463t462.5 -193q201 0 369 113v1085q-169 117 -369 117q-268 0 -463 -194 q-192 -193 -192 -465z" />
<glyph unicode="&#x153;" horiz-adv-x="1462" d="M74 383q0 164 116 281q119 119 283 118q141 0 256 -92q113 90 252 90q131 0 221 -75q94 -78 133 -201l-655 -254q37 -94 115 -148q80 -55 186 -55q131 0 221 84l51 -41q-115 -111 -272 -110q-145 0 -254 90q-106 -88 -254 -88q-164 0 -283 118q-116 117 -116 283z M150 383q0 -141 92 -237.5t231 -96.5q123 0 207 70q-98 111 -98 262q0 154 100 262q-90 72 -209 72q-139 0 -231 -94q-92 -97 -92 -238zM657 381q0 -37 5 -64l585 228q-82 168 -266 168q-141 0 -233 -95q-91 -92 -91 -237z" />
<glyph unicode="&#x178;" horiz-adv-x="1304" d="M84 1434h76l467 -781l24 -55h2l23 55l465 781h76l-527 -895l-2 -539h-74v539zM420 1704q0 27 20 45q25 20 45 20q25 0 45 -20q18 -18 19 -45q0 -29 -18.5 -47.5t-45.5 -18.5q-29 0 -47 18.5t-18 47.5zM758 1704q0 27 20 45q25 20 45 20q25 0 45 -20q18 -18 19 -45 q0 -29 -18.5 -47.5t-45.5 -18.5q-29 0 -47 18.5t-18 47.5z" />
<glyph unicode="&#x2c6;" horiz-adv-x="751" d="M137 981l246 371l246 -371h-68l-178 250l-178 -250h-68z" />
<glyph unicode="&#x2dc;" horiz-adv-x="788" d="M139 965q2 72 45 110q41 37 103 37q49 0 121 -65q51 -51 84 -52q80 0 88 97l57 -7q-4 -74 -45 -110q-43 -37 -103 -37q-55 0 -118 63q-57 53 -86 54q-80 0 -88 -97z" />
<glyph unicode="&#x2000;" horiz-adv-x="1003" />
<glyph unicode="&#x2001;" horiz-adv-x="2007" />
<glyph unicode="&#x2002;" horiz-adv-x="1003" />
<glyph unicode="&#x2003;" horiz-adv-x="2007" />
<glyph unicode="&#x2004;" horiz-adv-x="667" />
<glyph unicode="&#x2005;" horiz-adv-x="501" />
<glyph unicode="&#x2006;" horiz-adv-x="333" />
<glyph unicode="&#x2007;" horiz-adv-x="333" />
<glyph unicode="&#x2008;" horiz-adv-x="249" />
<glyph unicode="&#x2009;" horiz-adv-x="399" />
<glyph unicode="&#x200a;" horiz-adv-x="110" />
<glyph unicode="&#x2010;" horiz-adv-x="612" d="M109 356v68h376v-68h-376z" />
<glyph unicode="&#x2011;" horiz-adv-x="612" d="M109 356v68h376v-68h-376z" />
<glyph unicode="&#x2012;" horiz-adv-x="612" d="M109 356v68h376v-68h-376z" />
<glyph unicode="&#x2013;" horiz-adv-x="1040" d="M205 356v68h616v-68h-616z" />
<glyph unicode="&#x2014;" horiz-adv-x="1431" d="M203 356v68h1028v-68h-1028z" />
<glyph unicode="&#x2018;" horiz-adv-x="333" d="M63 1456l66 -14q-28 -141 68 -234l-43 -49q-126 125 -91 297z" />
<glyph unicode="&#x2019;" horiz-adv-x="333" d="M113 1208q95 92 67 234l66 14q35 -172 -90 -297z" />
<glyph unicode="&#x201a;" horiz-adv-x="296" d="M41 -74q95 92 68 234l65 14q35 -172 -90 -297z" />
<glyph unicode="&#x201c;" horiz-adv-x="507" d="M63 1456l66 -14q-28 -141 68 -234l-43 -49q-126 125 -91 297zM276 1456l66 -14q-28 -141 68 -234l-43 -49q-126 125 -91 297z" />
<glyph unicode="&#x201d;" horiz-adv-x="505" d="M41 1208q95 92 68 234l65 14q35 -172 -90 -297zM254 1208q95 92 68 234l65 14q35 -172 -90 -297z" />
<glyph unicode="&#x201e;" horiz-adv-x="696" d="M41 -74q95 92 68 234l65 14q35 -172 -90 -297zM254 -74q95 92 68 234l65 14q35 -172 -90 -297z" />
<glyph unicode="&#x2022;" horiz-adv-x="978" d="M293 614q0 84 57.5 141.5t139 57.5t141.5 -59q57 -57 57 -139.5t-57.5 -139.5t-141 -57t-139.5 57q-57 61 -57 139z" />
<glyph unicode="&#x2026;" horiz-adv-x="999" d="M109 63q0 27 20 46q25 20 45 20q25 0 45 -20q18 -18 19 -46q0 -29 -18.5 -47t-45.5 -18q-29 0 -47 18t-18 47zM442 63q0 27 21 46q25 20 45 20q23 0 43 -20.5t20 -45.5q0 -29 -18 -47t-45 -18q-29 0 -47.5 18t-18.5 47zM776 63q0 27 21 46q25 20 45 20q23 0 43 -20.5 t20 -45.5q0 -29 -18.5 -47t-44.5 -18q-29 0 -47.5 18t-18.5 47z" />
<glyph unicode="&#x202f;" horiz-adv-x="399" />
<glyph unicode="&#x2039;" horiz-adv-x="800" d="M240 489l350 330v-74l-252 -256l252 -258v-73z" />
<glyph unicode="&#x203a;" horiz-adv-x="800" d="M240 158v73l252 258l-252 256v74l350 -330z" />
<glyph unicode="&#x205f;" horiz-adv-x="501" />
<glyph unicode="&#x20ac;" horiz-adv-x="1226" d="M88 522v66h156q-2 18 -2 82q0 55 2 69h-156v66h162q37 250 188.5 397.5t356.5 145.5q147 0 268 -80l-43 -56q-102 68 -225 68q-100 0 -187 -43q-84 -41 -139 -113q-51 -68 -88 -151q-37 -88 -51 -168h655v-66h-663q-4 -66 -5 -71q0 -61 2 -80h666v-66h-655 q37 -205 164 -338q125 -129 292 -133q154 0 275 113l47 -55q-143 -125 -322 -125q-186 2 -342 151q-152 145 -192 387h-164z" />
<glyph unicode="&#x2122;" horiz-adv-x="1763" d="M207 1421v52h518v-52h-231v-602h-60v602h-227zM817 819v688l344 -444l340 444v-688h-59v522l-281 -364l-284 369v-527h-60z" />
<glyph unicode="&#xe000;" horiz-adv-x="770" d="M0 770h770v-770h-770v770z" />
<glyph unicode="&#xfb01;" horiz-adv-x="815" d="M45 700v68h133v391q3 163 117 277q113 113 280 112v-65q-141 0 -229 -92.5t-92 -231.5v-391h399v-768h-75v700h-324l2 -700h-78v700h-133zM559 1091.5q0 28.5 21 47.5q23 18 45 18t42.5 -20.5t20.5 -44.5q0 -29 -18.5 -47.5t-44.5 -18.5q-29 0 -47.5 18.5t-18.5 47z" />
<glyph unicode="&#xfb02;" horiz-adv-x="892" d="M45 700v68h133v391q3 163 117 277q113 113 280 112h226v-1548h-74v1483h-152q-141 0 -229 -92.5t-92 -231.5v-391h238v-68h-238l2 -700h-78v700h-133z" />
<glyph unicode="&#xfb03;" horiz-adv-x="1179" d="M47 700v68h133v391q3 163 117 277q113 113 281 112v-65q-138 0 -228 -92q-92 -94 -94 -232v-391h371v391q3 163 116 277q113 113 281 112v-65q-138 0 -227 -92q-88 -90 -95 -232v-391h400v-768h-76v700h-324v-700h-75v700h-371v-700h-76v700h-133zM1008 1091.5 q0 28.5 20.5 47t45 18.5t44.5 -20q18 -18 19 -45q0 -29 -18.5 -47.5t-45.5 -18.5q-29 0 -47 18.5t-18 47z" />
<glyph unicode="&#xfb04;" horiz-adv-x="1329" d="M47 700v68h133v391q3 163 117 277q113 113 281 112v-65q-138 0 -228 -92q-92 -94 -94 -232v-391h371v391q3 163 116 277q113 113 281 112h225v-1548h-73v1483h-152q-138 0 -227 -92q-88 -90 -95 -232v-391h238v-68h-238l3 -700h-78v700h-371v-700h-76v700h-133z" />
</font>
</defs>
</svg>
