<?xml version="1.0" standalone="no"?>
<!DOCTYPE svg PUBLIC "-//W3C//DTD SVG 1.1//EN" "http://www.w3.org/Graphics/SVG/1.1/DTD/svg11.dtd" >
<svg xmlns="http://www.w3.org/2000/svg">
<metadata>
This is a custom SVG webfont generated by Font Squirrel.
Copyright   : Generated by Fontographer 40
</metadata>
<defs>
<font id="webfontYPeAOJ6I" horiz-adv-x="1036" >
<font-face units-per-em="2048" ascent="1638" descent="-410" />
<missing-glyph horiz-adv-x="868" />
<glyph unicode=" "  horiz-adv-x="868" />
<glyph unicode="&#x09;" horiz-adv-x="868" />
<glyph unicode="&#xa0;" horiz-adv-x="868" />
<glyph unicode="!" horiz-adv-x="741" d="M166 86q66 84 96 84q14 0 82 -43q-6 -31 -29 -135q-82 20 -106 28q-14 11 -43 66zM250 545q0 37 86 293q2 4 2 75q0 29 20 70q23 45 27 72l45 233q37 201 92 453q0 6 4 18.5l12.5 38t14.5 45.5l16 12.5t15.5 12.5l21.5 18q59 -25 60 -63q0 -10 -58 -267l-94 -428 q-25 -49 -68 -167l-81 -568q-2 -14 -31 -14q-31 0 -60 67q-24 59 -24 99z" />
<glyph unicode="&#x22;" horiz-adv-x="647" d="M66 1462q0 29 20 109q25 109 27 123q-6 10 -35 51q2 2 7 9t17.5 21.5l24.5 28.5q37 43 57 43q8 0 17 -4h14q31 -31 31 -78q0 -144 -25 -264q-15 -52 -43 -160h-86q-26 74 -26 121zM373 1343q0 20 24 168l31 167t27 151l9 8q9 8 20.5 19.5t23.5 25.5q57 -55 57 -115 q0 -27 -24 -168q-35 -193 -68 -317l-43 -29q-57 45 -57 90z" />
<glyph unicode="#" horiz-adv-x="1710" d="M18 393q39 41 91 41q14 0 139 -24.5t149 -24.5q16 0 23 2q25 34 55 135q31 100 31 152q0 45 -37 45q-9 0 -55 -6t-56 -6q-174 0 -225 55q0 20 21 47q23 27 37 27t77 -7l36 -4l27 -3t13 -1q152 0 180 13q63 23 99 137l79 262q31 4 56 24q45 -39 45 -81q0 -12 -51.5 -147.5 t-51.5 -147.5q0 -20 33 -47l389 2q41 0 115 213l86 258q20 59 74 170h45q14 -16 14 -64q0 -76 -16 -125q-16 -16 -43 -63q-16 -43 -47 -168q-33 -133 -33 -164q0 -45 57 -45q14 0 90 12l90 14q4 0 19.5 -1l45.5 -3l58 -4q96 -8 125 -8v-4q0 -23 -14 -45q-20 -31 -41 -37 q-39 -10 -236 -16q-166 -2 -235 -41q-88 -49 -88 -291q147 4 211 4q6 0 22.5 -1t48 -2t62.5 -1q76 -2 131 -2q-12 -27 -39 -51q-29 -27 -49 -27l-37 8q-27 8 -35 8q-88 0 -205 -24q-154 -31 -172 -76l-94 -225q-63 -145 -147 -176q-43 23 -43 37q0 25 151 366q-12 35 -80 35 q-246 0 -358 -57q-28 -15 -49 -99l-15.5 -61.5l-13.5 -54.5q-47 29 -86 28h-10q0 80 22 170q-55 51 -223 76q-144 20 -162 94zM571 434q0 -27 17 -37h258q172 0 215 72l59 233q-150 0 -223 7q-10 0 -59 6q-29 4 -56 4q-80 0 -133 -33q-78 -148 -78 -252z" />
<glyph unicode="$" horiz-adv-x="1320" d="M33 506q0 63 71 63h-2q0 -4 385 -65q201 289 201 342q0 27 -45 47q-29 10 -68 27q-80 51 -151 127q-94 100 -94 163q0 22 30 56q31 35 54 34q31 0 227 -6l110.5 -4l83 -3t37.5 -1q25 0 37 14q2 2 11.5 18.5l31 54.5l43.5 77l187 328h43q25 -25 28 -47l-204 -437 q10 -29 118 -43q100 -12 101 -90q-2 0 -17 -51q-209 51 -260 51q-16 0 -75.5 -94t-59.5 -119q0 -20 82 -88q109 -86 158 -145q84 -102 84 -203q0 -37 -25 -59q-23 -20 -96 -56q-68 -33 -109 -32h-368q-65 -83 -129 -228q-102 -215 -113 -233h-4q-29 0 -47 18q-25 20 -25 49 q0 55 66 199l90 201l-35 26q-227 47 -338 60q-12 51 -14 51v-2zM512 1157q10 -31 90 -90q82 -61 113 -61q45 0 100 151q-8 6 -86 6q-6 0 -20.5 -1t-40 -2t-47.5 -1q-58 -2 -109 -2zM637 512q0 -31 14 -31h262q25 0 91 39q63 37 69 58q-82 115 -168 178l-94 45 q-23 -12 -98.5 -137t-75.5 -152z" />
<glyph unicode="%" horiz-adv-x="1861" d="M4 12q0 59 221 250l287 240q47 37 125 90l743 508q-15 12 -37 12q-348 0 -430 -43l-149 -78q-55 -20 -166 -20q-119 0 -195 80q-2 14 -2 41q0 276 258 276q188 0 252 -57q14 -41 66 -111q92 0 342 25l156 14q123 0 122 -88q0 -49 -45 -86q-106 -84 -188 -143 q-150 -84 -385 -240q-569 -369 -770 -608q-10 -10 -10 -31q0 -12 2 -18l-17 -17l-32 -33q-33 -33 -52 -32q-29 0 -63 22q-33 20 -33 47zM596 1223l6 -3q6 -3 22.5 -10.5l32.5 -15.5q40 -18 62 -18q20 0 82 30q-47 47 -82 47q-6 0 -62 -16q-49 -14 -61 -14zM954 98v183 q0 23 58 57l73 43q25 20 107 70q223 96 270 96q121 0 226 -39q143 -53 143 -148q0 -154 -197 -249q-160 -78 -331 -78q-4 0 -29 6q-20 6 -31 6q-6 0 -24 -12q-23 -14 -25 -15q-16 0 -115 37zM1071 217q90 -70 201 -70q145 0 262 41q160 57 192 160q-94 70 -176 70 q-332 0 -479 -201z" />
<glyph unicode="&#x26;" horiz-adv-x="1400" d="M78 268q0 125 86 232q35 43 182 166q152 131 184 174q-20 94 -20 198q0 218 86 381q35 72 188 174q154 100 226 101q252 0 252 -226q0 -160 -97 -297q-65 -92 -221 -227q-10 -8 -186 -158q-8 0 -33 -4q-29 -6 -29 -20v-37l178 -332q-4 0 -4 -2q0 -8 23 -8h2q12 0 170 121 l188 145h45v-55q0 -37 -143 -154q-164 -135 -176 -153q27 -53 127 -101v-57q-14 -16 -64 -16q-39 0 -104 45q-63 39 -64 45l5 -2q0 -8 -199 -109q-223 -109 -318 -108q-284 -1 -284 284zM209 260q0 -147 166 -147q31 0 117 24q84 25 118 43q123 68 189 146q-31 29 -101 200 q-53 139 -112 140q-76 0 -228 -162q-149 -162 -149 -244zM616 1044q0 -53 29 -133h45q162 96 293 240q164 180 164 324q0 90 -98 90q-186 0 -314 -170q-119 -161 -119 -351z" />
<glyph unicode="'" horiz-adv-x="385" d="M115 1333v80q0 12 24 162l41 227q6 41 41 70q20 -12 60 -39v-16q0 -147 -17 -269q-25 -215 -82 -215h-67z" />
<glyph unicode="(" horiz-adv-x="585" d="M18 305q0 20 9 60q2 10 4 18t3 13t2 8.5t1 5.5t1 4t1 4q74 565 498 1153q119 162 333 313h56q31 -18 30 -37q0 -20 -147 -176l-184 -192q-51 -55 -103 -156q-25 -72 -73 -166l-220 -426q-84 -217 -84 -471q0 -446 181 -666q-4 -33 -31 -59q-236 139 -256 430 q-21 264 -21 340z" />
<glyph unicode=")" horiz-adv-x="655" d="M-90 -561q94 111 125 166q14 29 170 274q100 164 137 291q109 393 109 569q0 408 -109 777q-57 133 -111 284v82h68q33 0 76 -131l57 -106q63 -123 103 -345q43 -240 43 -501q0 -340 -179 -740q-18 -43 -352 -682q-2 0 -48 1t-89 1v60z" />
<glyph unicode="*" horiz-adv-x="854" d="M39 1249q0 20 102 137q104 121 105 150q0 14 -64 59l-78 56v67q27 31 46 31q23 0 217 -129q29 45 55 127q12 37 45 131h45q37 -18 37 -100q0 -37 24 -54q139 102 175 103q23 0 63 -43v-45q-23 -6 -143 -84l-142 -119l234 -190q-35 -59 -64 -60q-14 0 -98 39 q-23 10 -43 20.5t-30 14.5l-9 4q-55 0 -55 -70q0 -18 6 -55l-59 -121q-49 25 -62 107q0 6 -2 22.5t-4 45t-6 59.5q-2 6 -6 6l-4 -3q-4 -3 -7 -5q-12 6 -24 6q-47 0 -84 -66l-62 -102q-28 -18 -36 -19q-23 0 -48 29q-24 26 -24 51z" />
<glyph unicode="+" horiz-adv-x="940" d="M35 485q20 61 82 74q8 2 114 2q100 0 148 72q12 20 47 180q20 104 109 117l14 -29q12 -29 12 -41q0 -6 -26 -96q-25 -84 -25 -96q0 -70 90 -70q6 0 39 6t39 6q39 0 92 -6l94 -12q25 -14 58 -80q-80 -57 -150 -57q-4 0 -15.5 1l-33 3l-41.5 4q-76 6 -88 6 q-115 0 -121 -102q-10 -154 -70 -217h-71q0 4 1 17t2 39.5t1 53.5t1 53.5t2 40t1 17.5q0 55 -6 98q-94 -27 -164 -27t-135 43z" />
<glyph unicode="," horiz-adv-x="458" d="M-129 -276q143 90 195 129q96 78 120 182q2 51 23 174h41q72 0 72 -156q0 -115 -60 -190q-53 -49 -188 -160q-43 -10 -117 -53h-74q-2 6 -3 16t-4 27t-5 31z" />
<glyph unicode="-" horiz-adv-x="765" d="M59 422q0 53 60 65q96 20 260 21q39 0 117 4q12 0 61 16q55 18 68 19q31 0 57.5 -53.5t26.5 -81.5q0 -57 -52 -58q-14 0 -89.5 12.5t-90.5 12.5q-133 0 -219 -14q-27 -4 -55.5 -9.5l-45 -8.5t-22.5 -5l-8 -2q0 -2 2 -2q-18 0 -43 31q-27 33 -27 53z" />
<glyph unicode="." horiz-adv-x="419" d="M78 37q8 41 37 113q23 25 63 53q46 31 68 30q29 0 61 -38q31 -37 31 -74q0 -31 -59 -76q-57 -45 -95 -45q-32 0 -106 37z" />
<glyph unicode="/" horiz-adv-x="1519" d="M20 -166q0 10 27 64q25 49 29 69q106 90 200 246l166 274q29 63 84 164q2 4 181 228q125 156 127 237q84 66 202 232q106 150 166 266q-8 8 -26 8h-11q2 10 92 90l195 166q45 -18 45 -72q0 -72 -270 -405q-16 -16 -86 -113l-123 -190q-102 -121 -223 -285 q-61 -84 -463 -747l-150 -242q-25 -41 -78 -41q-33 0 -69 16l-8 13q-7 8 -7 22z" />
<glyph unicode="0" horiz-adv-x="1632" d="M43 555q0 133 14 170q3 9 25 49q-12 49 -12 100q0 301 350 531q115 76 313 137q190 59 330 60q113 0 272 -70q102 -43 129 -113q66 -166 66 -508q0 -115 -14 -166q-78 -279 -410 -528q-295 -221 -559 -221q-186 0 -340 162q-164 170 -164 397zM141 598q0 -227 142 -369 q131 -131 321 -131q51 0 213 62q172 66 211 96q231 178 315 324q31 53 64 133q45 102 45 135v2l-14 362q-2 74 -78 158q-86 94 -127 111q-82 31 -189 30q-293 0 -526 -159q-100 -68 -139 -101q-90 -74 -119 -135h39q182 186 332 207q-20 -29 -238 -238q-168 -162 -225 -311 q-27 -67 -27 -176z" />
<glyph unicode="1" horiz-adv-x="536" d="M100 78v2l260 1266h60q29 -57 29 -109q0 -72 -23 -184q-6 -23 -102 -486q-82 -401 -162 -559q-16 8 -41 35q-21 25 -21 35z" />
<glyph unicode="2" horiz-adv-x="1480" d="M66 84v16v13q0 43 18 67q31 43 166 148q145 111 432 356q96 84 360 344q224 224 295 381q-43 45 -96 45q-201 0 -575 -168q-264 -117 -265 -127h2h-53q-29 23 -28 43q0 51 98 88q37 12 135 51q494 217 711 218q80 0 135 -43q51 -43 51 -111q0 -109 -115 -229l-186 -193 q-369 -383 -883 -811v-4q0 -33 49 -45q63 -18 134 -19q4 0 15 1t17 1l596 39h15q74 0 260 -20l18 14l14 -82q-16 0 -119.5 -5l-193.5 -9q-101 -3 -332 -25l-168 -16q-8 0 -45 6q-10 2 -21 4l-16.5 3t-7.5 1t-34 -14q-27 -12 -37 -12q-68 0 -183 30q-118 33 -163 64z" />
<glyph unicode="3" horiz-adv-x="1796" d="M72 2q76 70 196 119q154 59 447 135q272 70 442 131q250 90 420 221q-18 55 -164 90q-150 37 -450 70q-229 25 -293 25q-6 0 -23 -7q-18 -6 -22 -6q-123 0 -283 68v57q34 31 55 37l56 12q20 4 77.5 19.5l85.5 23.5q129 37 359 154q266 135 266 201q0 59 -96 59 q-356 0 -719 -96q-27 -8 -109 -39q-86 -33 -98 -33q-57 0 -57 57q0 82 452 154q375 59 570 59q47 0 127 -49q86 -52 86 -98q0 -104 -283 -256l-375 -201q29 -27 260 -47h-2l111 -14q61 -6 129 -14q492 -61 492 -234q0 -41 -105 -115q-66 -47 -143 -86q-299 -139 -926 -290 q-166 -41 -440 -164z" />
<glyph unicode="4" horiz-adv-x="1265" d="M53 866q0 51 56 138q74 109 84 133l69 178q58 147 80 147v-2l45 -12q0 -6 6 -33q2 -8 4 -17l3 -13.5t1 -6.5q0 -61 -77 -233q-94 -203 -103 -242q141 -72 248 -72h332q104 0 145 29q55 39 76 170q6 43 51 146l103 235q53 117 143 217h43q16 -10 16 -45q0 -18 -26 -47 q-31 -37 -43 -68q-37 -88 -60 -170q-47 -152 -67 -192q-23 -31 -45 -78q-25 -82 -25 -170q0 -18 4 -59q-12 -10 -43 -41q-10 -39 -43 -125q-115 -334 -115 -488q0 -9 -6 -67l-4 -31.5t-3 -24t-1 -10.5q-18 -8 -72 -14q-29 29 -28 139q0 31 6 76q2 8 4 32.5t4 41.5 q8 94 66 268q35 102 34 117v61q-25 25 -63 25q-2 0 -11.5 -2t-29.5 -5t-43 -8q-84 -14 -238 -14q-151 0 -233 19q-100 25 -240 83q-4 25 -4 35z" />
<glyph unicode="5" horiz-adv-x="1480" d="M35 -18q23 55 82 81l231 76q932 301 932 430q0 86 -266 209q-193 90 -418 123q-14 2 -250 45q-10 2 -35 31q-14 16 -63 16h-4q-16 16 -17 51q0 53 97 256q94 197 139 246q231 -27 459 -26q68 0 82 4q4 0 49 18q43 16 57 17h272q2 -8 15 -74q-274 -80 -406 -80 q-8 0 -29.5 2t-70.5 5t-92 7q-166 12 -193 13q-104 0 -149 -144l-23.5 -72l-40.5 -124l35 -31l104 -25l267 -63q260 -66 422 -162q201 -121 200 -272q0 -34 -110 -129q-111 -90 -150 -107q-207 -86 -282 -110l-244 -78l-262 -88q-213 -74 -236 -74q-28 0 -102 29z" />
<glyph unicode="6" horiz-adv-x="1630" d="M49 465q0 14 17 70q18 55 18 61q14 92 43 176q135 408 723 787q80 51 174 69q4 2 190 27l29 -33q-4 -23 -26 -43q-225 -37 -498 -260q-240 -199 -383 -422q-51 -76 -113 -227l-26 -52q-18 -34 -19 -49v-151l23 -25q12 0 22 25q12 55 62 88q68 49 241 102q268 82 551 82 q475 0 475 -258q0 -287 -723 -409q-151 -25 -215 -25q-125 0 -237 27q-106 25 -217 174t-111 266zM242 285q135 -186 403 -187q162 0 465 95q94 29 213 98q152 90 152 149q0 72 -160 115q-117 33 -223 33q-213 0 -480 -70q-339 -90 -370 -233z" />
<glyph unicode="7" horiz-adv-x="1331" d="M31 1300v72q72 45 463 60q135 6 458 28l213 19h9q63 0 63 -103q0 -143 -238 -461q-298 -399 -442 -614l-162 -246q-29 -41 -78 -67q-20 14 -55 14l-10 14q-4 4 -4 23q0 37 139 227l176 246l287 393q166 223 258 412q-23 35 -82 35q-27 0 -164 -15q-229 -23 -325 -22 q-18 0 -45 2q-12 0 -22.5 1t-15.5 2t-8 1q-16 0 -24 -2q-23 -20 -53 -21h-170z" />
<glyph unicode="8" horiz-adv-x="1423" d="M27 1192q0 72 41 127q23 25 96 96l72 -43q-10 -27 -70 -102q-37 -43 -37 -86q0 -92 117 -160q96 -57 180 -57h68q12 14 79 26q10 2 62 31l26.5 17.5l22.5 14.5t12 7q43 4 88 18q2 0 54 52q27 27 65 59q33 37 33 86q0 41 -55 88q-49 43 -99 49q-20 4 -65 17q-29 6 -35 6 q-25 0 -76 16q-55 18 -71 19h-9q-61 0 -147 -33q-23 -6 -66 -21q-12 -4 -57 -35q2 10 2 41q0 51 -2 64v2q0 25 57 51q74 37 172 37h11q45 0 102 -4q98 -4 143 -4q16 0 29 -15q6 -10 82 -34q82 -31 102 -49q33 -27 58 -72q27 -47 26 -80q0 -182 -94 -252q-31 -31 -119 -108 q35 -14 88 -15h-2q25 -2 74 -8q109 -16 223 -109q137 -111 138 -243q0 -141 -170 -275q-27 -25 -68 -55q-59 -41 -131 -61q-88 -41 -270 -103q-61 -31 -134 -47q-63 -14 -127 -14q-52 0 -98 12q-117 27 -170 86q-55 61 -55 170q0 96 31 176l34 98q6 10 35 62q35 66 117 151 q10 8 39 21q10 4 33 27l-234 79q-151 80 -151 279zM221 322q0 -68 47 -109q23 -18 64 -29q29 -4 69 -12q70 -14 125 -14q129 0 269 73l305 168q29 16 90 70q59 53 59 86q0 145 -192 215l-105 39q-43 12 -110 12q-154 0 -389 -86q-25 -8 -70 -76q-2 -2 -37 -32 q-12 -12 -37 -49q-25 -31 -53 -93q-10 -18 -18 -63q-17 -75 -17 -100z" />
<glyph unicode="9" horiz-adv-x="1138" d="M25 -31v88l362 308q205 176 318 364q-12 25 -37 25q-8 0 -16.5 -8.5t-16.5 -8.5q-261 0 -424 142q-61 51 -80 75q-29 41 -29 170q0 227 252 367q203 111 420 111q166 0 232 -48q86 -63 86 -254q0 -522 -816 -1214q-158 -135 -170 -135h-65zM205 1130q0 -125 149 -204 q125 -66 242 -66q29 0 72 19q45 18 69 22q12 2 82 31q63 41 109 158q47 119 47 233q0 106 -60 137q-31 16 -141 17q-162 0 -344 -82q-225 -105 -225 -265z" />
<glyph unicode=":" horiz-adv-x="489" d="M100 166q0 115 105 115q4 0 39 -6.5t41 -6.5q0 -2 1 -7l3 -15l4 -21q6 -37 6 -43q0 -37 -35 -90t-65 -53q-18 0 -84 27q0 2 -1 8t-3 17t-5 24q-6 43 -6 51zM119 594q0 43 45 88q41 43 88 43q39 0 76 -25q35 -25 34 -55q0 -35 -8 -45q-25 -37 -35 -57q-4 0 -38.5 -12.5 t-38.5 -12.5h-64q-3 6 -37 37q-22 23 -22 39z" />
<glyph unicode=";" horiz-adv-x="528" d="M-84 -279q252 160 295 330q0 70 2 129q0 31 29 31l80 -2q20 -14 24 -49q0 -4 1 -13.5t1 -15.5q0 -16 -4 -61q-10 -115 -55 -189q-20 -33 -51 -55q-6 -4 -20.5 -14.5t-39.5 -30.5l-78 -64q-27 -4 -114 -55h-58q0 4 -5 23.5t-7 35.5zM168 580q0 47 41 79q45 35 92 35 q98 0 98 -127q0 -98 -155 -98q-76 0 -76 111z" />
<glyph unicode="&#x3c;" horiz-adv-x="884" d="M53 631q0 92 789 758q14 -6 36.5 -41t22.5 -50q-4 0 -340 -309q-342 -311 -342 -346q0 -27 70 -100l92 -94q106 -145 242 -310q27 -18 86 -65v-72q-47 -27 -97 -27q-58 0 -141 123l-113 174q-59 88 -194 211q-8 8 -27.5 25.5t-50.5 48.5q-33 33 -33 74z" />
<glyph unicode="=" horiz-adv-x="1153" d="M29 715q27 82 82 82q39 0 151 -9l377 -28q154 -12 186 -12q6 0 39 18q33 20 45 20q15 0 62 -24l65 -35q9 -18 31 -49q-18 -45 -170 -45q-49 0 -330 6q-186 4 -327 4q-49 0 -183 31zM43 272v111q83 43 184 43q84 0 258 -10q295 -16 437 -33q125 -14 196 -76v-59 q-14 -8 -55 -39l-29 20q-31 6 -370 29q-35 2 -220 29q-135 18 -219 18q-139 0 -182 -33z" />
<glyph unicode="&#x3e;" horiz-adv-x="868" d="M4 27q0 45 33 82q68 68 323 303q276 255 277 276q0 20 -102 123l-123 127q-27 37 -162 211l-119 121q-98 98 -98 112q0 22 24 43q27 23 52 23q59 0 129 -88q29 -39 104 -133q111 -137 172 -199q12 -9 178 -172q152 -147 152 -160q0 -37 -125 -133l-162 -121l-250 -266 l-145 -153q-18 -23 -19 -66l-18 12h-102q-19 15 -19 58z" />
<glyph unicode="?" horiz-adv-x="1615" d="M96 1442q0 82 310 188q236 84 391 111q129 23 290 55q164 33 168 33q322 0 322 -264q0 -178 -131 -322q-108 -114 -295 -209l-277 -133l-49 -22q-152 -76 -198 -129q-2 -6 -33 -76q-117 -229 -207 -324q-57 43 -57 90q0 35 24 131q25 95 43 136q41 88 154 176 q14 12 227 104q670 289 670 578q0 135 -162 135q-240 0 -584 -86q-393 -98 -532 -221h-57q-12 51 -14.5 51t-2.5 -2zM125 12q0 37 22 68q25 35 48 35q8 0 44.5 -12.5t45.5 -12.5q34 0 129 37q31 -41 30 -100q-88 -47 -264 -105q-55 49 -55 90z" />
<glyph unicode="@" horiz-adv-x="1718" d="M59 434q0 143 70 238q51 70 190 162q55 47 144 98q276 106 438 106q2 0 108.5 -10t108.5 -10q176 -2 357 -115q205 -125 204 -289q0 -123 -147 -231q-127 -90 -266 -113q2 -8 2 -20q0 -92 -131 -131q-29 -8 -207 -35q-4 0 -18.5 -4t-44 -11.5t-58.5 -13.5 q-80 -18 -115 -18h-80q-223 0 -372 84q-183 104 -183 313zM186 442q0 -144 203 -209q135 -43 320 -43q12 0 100 19q162 33 264 49q-37 49 -104 164q-223 -90 -351 -90q-276 0 -276 174q0 188 354 242q61 10 144 26q106 20 133 21q23 0 108 -17q76 -14 101 -26q6 -2 47 -41 v-9q0 -35 -45 -145l-45 -111v5q2 0 14 -54l45 -12q0 -2 -2 -2q27 0 162 55q131 55 164 78q41 27 41 92q0 125 -197 207q-164 70 -303 70q-158 0 -457 -58q-70 -12 -172 -75q-109 -68 -164 -125q-84 -89 -84 -185zM483 504q43 -43 90 -43q127 0 306 55q43 12 96 47 q57 37 72 74q-35 8 -66 10q-41 4 -143 4l-70 -10q-121 -20 -160 -37q-94 -34 -125 -100z" />
<glyph unicode="A" horiz-adv-x="1548" d="M86 -43q0 199 94 401q16 25 70 117l180 397q211 459 420 814l2 -31q45 20 70 119q23 88 65 88q2 2 12 2q27 0 45 -47l29 -117q80 -336 189 -895l61 -311q22 -43 55 -129q18 -63 47 -195q35 -158 35 -193q0 -70 -90 -69q-39 0 -47 4q-336 342 -653 342q-68 0 -293 -55 q-72 -18 -125 -121q-8 -18 -70 -168q-16 -14 -63 -37q-33 33 -33 84zM381 389q0 -31 16 -31l281 13h37q143 0 274 -54q95 -40 277 -165v59q0 47 -58 342l-98 518q-49 264 -141 506q-127 -133 -346 -645l-68 -156q-16 -23 -41 -63q-20 -35 -74 -164q-59 -144 -59 -160z" />
<glyph unicode="B" horiz-adv-x="1736" d="M49 1339q0 66 168 146q66 31 492 198q58 31 141 56q190 57 311 57q158 0 277 -59q154 -78 153 -217q0 -168 -231 -375q-125 -109 -377 -275l-242 -172q16 -12 156 -12q821 0 821 -254q0 -131 -309 -285l-129 -69q-35 -25 -125 -53l-133 -45l-307 -148q-166 -55 -314 -113 q-182 -68 -254 -196q-74 31 -73 76q0 168 397 303q39 12 145 51q49 33 304 131q270 102 342 135q195 94 313 201q2 4 7 18.5t9 24.5q-70 47 -137 69q-12 2 -151 19q-362 37 -484 37q-4 0 -32.5 -6.5t-30.5 -6.5q-168 0 -295 54v41q0 23 16 39q997 526 998 790q0 96 -123 146 q-92 35 -205 34q-18 0 -123 -24q-113 -27 -121 -27t-20 6q-16 8 -19 8q-18 0 -24 -8q-4 -8 -11 -14q-12 -8 -147 -41q-299 -74 -401 -217q-27 -39 -27 -209q0 -33 8 -137.5t8 -136.5q0 -262 66 -631q4 -27 26 -90q20 -59 21 -76q0 -25 -24.5 -49.5t-47.5 -24.5q-49 0 -61 82 q-3 25 -12 117q-25 117 -43 227l-5 21q-14 90 -30 805q-4 12 -15 34q-10 -12 -39 -12q-57 0 -57 57z" />
<glyph unicode="C" horiz-adv-x="1701" d="M76 737q0 -184 43 -284q102 -231 461 -433q68 -37 227 -36q82 0 272 12q225 12 250 22l195 56l65 18q106 27 183 55l-15 74l-500 -51q-233 -25 -264 -25q-225 0 -346 35q-174 53 -303 187q-154 158 -154 340q0 6 23 90q16 61 33 104q98 244 469 434l190 99q35 31 51 55 l154 49l299 121q23 23 27 55q-37 4 -56 4q-129 0 -260 -59l-243 -115q-362 -168 -525 -301q-276 -223 -276 -506z" />
<glyph unicode="D" horiz-adv-x="1703" d="M-154 1456q0 133 365 207q250 51 485 51q666 0 1071 -301q55 -37 125 -149q74 -117 74 -179q0 -141 -96 -239q-82 -86 -203 -158l-217 -133q-141 -88 -244 -141l-340 -183l-135 -73q-6 -8 -16 -18.5t-25 -24.5q-111 -27 -373 -224h-55q-31 27 -31 72q0 63 226 184 l293 152l62 34.5l118 65.5l719 408q72 43 133 127q70 94 69 166q0 14 -55 106q-119 203 -510 310q-299 84 -616 83q-47 0 -236 -10q-10 -66 -61 -497q-27 -236 -27 -254v-351q0 -23 23 -34q6 -49 6 -97l-2 -88q-10 -16 -37 -16q-57 0 -84 172q-20 109 -21 219q0 109 37 459 q40 378 68 418v32q-8 10 -19 11q-84 0 -219 -41q-168 -49 -168 -105q0 -23 29 -39v-47q-113 57 -113 125z" />
<glyph unicode="E" horiz-adv-x="1400" d="M76 182q0 23 24 213q27 188 64 410q-37 27 -37 78q0 14 2 32.5t2 34.5q113 37 125 471q-45 23 -178 105v88q23 37 86 43q90 6 98 10q12 2 45 39q31 35 53 35q4 0 49.5 -16.5t53.5 -16.5l87.5 9l188.5 20q106 10 475 37q8 0 76 22q61 20 72 21q14 0 63 -7l60 -6 q115 -4 233 -4l17 -41q-39 -12 -109 -61q-37 4 -65 4q-180 0 -560 -64l-231 -36q-9 0 -74 6q-57 8 -73 8q-53 0 -131 -31q-86 -34 -105 -74q-25 -57 -47 -206q-18 -129 -18 -222q0 -10 20 -69q207 29 250 28h575v-88q-57 -6 -151 -6q-72 0 -146 2l-143 2q-90 0 -231 -55 l-125 -29q-80 -14 -107 -63q-47 -420 -47 -586q31 -39 72 -49l162 -35q66 0 172 10q215 18 503 19q47 0 113 -4l51 -2q33 -10 33 -31v-51q-63 -29 -231 -29q-33 0 -82 -16l-54 -19q-8 0 -86 11q-58 6 -79 6h-9h-16q-58 -3 -264 -31q-131 -16 -137 -16q-59 0 -168 69 q-121 78 -121 131z" />
<glyph unicode="F" horiz-adv-x="1431" d="M51 686q0 14 6 33l37 37q8 6 60 26q29 51 53 195q43 238 51 266q43 158 125 238q29 -14 84 -70q-82 -166 -109 -360q-16 -111 -28 -172l35 -23l1013 209l88 -55v-47q-53 -27 -258 -45l1 -3l1 -2q0 -16 -30 -16q-6 0 -37 6t-33 6q-72 0 -86 2h18q63 0 64 -6 q-10 -4 -37 -10q-4 0 -17.5 -2l-41 -6l-56.5 -8l-180 -68l-244 -47q-59 -12 -180 -78q-25 -14 -51 -86q-29 -72 -43 -74q4 -16 4 -55q0 -10 -20 -160q-18 -135 -19 -159q0 -78 33 -138q-55 -57 -154 -57q-29 29 -28 66q0 4 2 17t5 43t7 56l35 281q14 117 14 135v61 q-8 2 -20.5 8.5l-28.5 14.5q-35 16 -35 47zM66 1464q0 80 106 111q254 76 373 115q55 18 190 20q170 6 211 14q35 18 115 43q57 8 156 9h36h140h51q27 23 43 22q6 0 31 -12q29 -14 30 -14q6 0 37 6l16.5 4l12.5 3t6 1q52 0 68 -49l22 -76q-109 -43 -133 -43q-6 0 -43 12 q-39 14 -41 15q-18 0 -106.5 6t-106.5 6t-244 -31q-315 -41 -461 -63q-78 -12 -172 -60l-45 -22h-6q-6 0 -59 -8q-12 -4 -76 -50q-53 -37 -76 -37q-25 0 -49 27q-26 24 -26 51z" />
<glyph unicode="G" horiz-adv-x="2328" d="M61 524v25v22v-2q0 84 39 156l76 147q2 6 2 25q0 25 -8 41l160 160q109 104 217 188l225 176q156 119 244 133q16 20 51 43q6 2 51 23q8 4 22.5 12t40 20.5l44.5 22.5q199 96 432 96q33 0 78 -38.5t45 -69.5q0 -59 -51 -59q-14 0 -39 16q-27 18 -35 18q-25 8 -86 9 q-20 0 -49 -2.5t-52 -2.5q-84 0 -444 -210q-332 -195 -430 -287q-139 -129 -217 -215q-10 -14 -23 -78q-63 -20 -106 -105q0 -10 -8 -63q-10 -18 -31 -66q-2 -8 -2 -102l-1 -4q-1 -4 -2 -12.5t-1 -14.5q-2 -16 -2 -30q0 -51 63 -123q55 -66 107 -92q213 -121 270 -121 q2 0 8 1t17.5 2t21.5 1q12 0 22.5 2l15.5 3t7 1q16 0 92 -18.5t90 -18.5q4 0 14.5 1l31 3t43.5 4q78 6 88 6q132 0 381 56q104 45 182 69l303 101q213 76 213 184q0 164 -635 164q-197 0 -281 -43q-27 -14 -63 -86h-45q-43 31 -43 55l53 131q61 35 201 35q29 0 201 6t202 6 l4 -2q4 -2 13.5 -5t17.5 -7q31 -12 43 -12q4 0 28.5 6t30.5 6q51 0 168 -43q119 -43 154 -76q41 -37 41 -141q0 -188 -469 -350l-129 -47q-39 -39 -123 -56q-446 -82 -690 -82l-158 15q-131 12 -155 12q-4 0 -56 27q-53 29 -63 28q-92 61 -287 234q-29 35 -65 157 q-5 12 -5 35z" />
<glyph unicode="H" horiz-adv-x="1699" d="M90 70q25 152 25 473q0 8 24 125q74 356 123 516q41 74 92 182h60q12 -45 14 -45v2q0 -10 -41 -102q-37 -82 -47 -121q-70 -266 -70 -348q0 -49 37 -49.5t139 20.5q92 16 146 20q174 10 307 11q6 0 23.5 -1t52.5 -2t67 -1q120 -6 142 -7q8 0 94 9q25 2 57.5 5t34.5 3 q27 16 49 178q29 213 56 305q55 176 170 242h59l12 -53v2q0 -8 -53 -68q-57 -68 -59 -72q-49 -126 -93 -411q-41 -260 -41 -426q0 -31 -22 -60q0 -53 -29 -258q-10 -72 -10 -104q0 -10 33 -121q-12 -4 -74 -14q-53 106 -53 155q0 41 16 207q10 100 35 418h-162 q-20 0 -135 -20.5t-139 -20.5h-62l-61 2q-98 0 -150 -6q-10 -2 -84 -25q-47 -16 -84 -16q-33 0 -53 14q-29 -18 -82 -30l-84 -21q-37 -31 -37 -104q0 -2 1.5 -10.5t2.5 -21.5t1 -27.5t1 -29t2 -21.5t1 -9q0 -78 -64 -266l-10 -1q-10 -1 -21 -1h-26q-21 0 -31 4z" />
<glyph unicode="I" horiz-adv-x="440" d="M66 305q0 39 24 275q37 330 82 553q49 242 129 407h45q31 -25 31 -65l-70 -308q-139 -612 -139 -1087v-45q-20 -4 -33 -17q-69 84 -69 287z" />
<glyph unicode="J" horiz-adv-x="1773" d="M55 410v59q33 4 58 29q211 -143 501 -254q326 -123 541 -123q213 0 303 90q90 92 113 321q16 193 16 383q0 10 -1 40l-3 88.5l-4 115.5q-4 137 -4 244q0 35 33 70q45 -2 57 -46q0 -4 12 -157q31 -381 31 -467q0 -485 -149 -678q-35 -47 -195 -88q-143 -35 -221 -35 q-176 0 -568 148q-393 149 -520 260z" />
<glyph unicode="K" horiz-adv-x="1615" d="M37 43q0 22 31 264q4 35 10 71t23.5 152.5l43.5 300.5q4 25 17.5 130.5l23.5 189.5q25 174 76 311q61 -12 62 -82v-20l-158 -1352q-14 -14 -57 -14q-72 0 -72 49zM258 555q0 16 262 242q299 260 301 262q16 27 51 69q2 2 4.5 3.5t6.5 5.5l10 10t18.5 17.5l27.5 24.5 l41 36.5l56 52.5q123 114 203 178q125 100 225 148q14 -12 31 -15v-73l-8 -5q-72 -43 -150 -104q-252 -205 -909 -862q197 -141 543 -209q25 -4 436 -109l186 -47q12 -4 113 -80q-25 -45 -59 -45q-12 0 -82 27q-82 33 -90 35q-37 10 -168 24q-131 12 -170 23 q-100 25 -392 90q-111 25 -278 117q-209 112 -209 184z" />
<glyph unicode="L" horiz-adv-x="1699" d="M53 133q90 283 152 526q181 725 264 965l43 21q31 -61 31 -76v-2l-332 -1325q12 -86 188 -86q70 0 179 14q113 14 167 14h7l77 -4h7q29 0 137 6q55 4 141 4q135 0 473 -65l12 -62q-2 0 -8 -1t-12 -1q-51 0 -217 13l-186 14h2l-699 -47q-184 0 -276 16q-56 10 -150 76z " />
<glyph unicode="M" horiz-adv-x="2400" d="M2 -10v86l1030 1448h47q31 -55 31 -78q0 -8 -29 -127q-23 -100 -49 -232q-20 -123 -57 -471q-23 -221 -23 -243q6 -12 23 -62q84 61 196 205q33 45 177 223q203 254 520 596q250 270 573 553q59 -35 60 -96q0 -27 -289 -799q-45 -117 -111 -348q-71 -255 -73 -344 q-41 -66 -91 -252q-61 29 -61 78q0 178 299 1110l96 295l-2 45q-213 -133 -348 -320q-78 -106 -166 -200l-176 -195q-92 -104 -272 -338q-168 -213 -179 -223q-137 -156 -210 -156h-84v228q10 61 36 264l68 526l-18 23l-871 -1211z" />
<glyph unicode="N" horiz-adv-x="1824" d="M68 55v82q0 14 319 561l371 629h49q106 -193 213 -692q63 -291 125 -416h2q8 0 18 -8q332 332 768 1153l148 285l57 114q14 25 57 47q43 -31 43 -59q0 -74 -223 -477q-168 -307 -289 -502q-92 -154 -305 -442q-164 -223 -321 -316q-20 10 -39 29q-4 12 -129 543 q-80 338 -182 524l-625 -1069q-14 14 -51 14h-6z" />
<glyph unicode="O" horiz-adv-x="2134" d="M74 401q0 145 106 316q94 150 221 248q49 37 166 163q98 108 172 154q86 53 332 109q227 53 348 53q274 0 508 -101q305 -129 305 -362q0 -39 -39 -150q-35 -102 -61 -149q-123 -246 -383 -418q-145 -98 -479 -203q-330 -102 -506 -102h-137q-172 0 -357 135 q-196 144 -196 307zM178 442q0 -106 150 -231q152 -127 268 -127q8 0 20.5 2t20.5 2q6 0 39 -12q29 -10 43 -10q16 0 180 20q160 20 236 35q28 15 104 43q307 90 543 260q289 211 352 467q20 80 23 80q0 78 -48 129q-215 223 -467 223q-2 0 -6 -1t-12 -2t-16 -1 q-18 -2 -31 -2q-6 0 -37 12t-35 12q-2 0 -63 -10q-47 -8 -62 -8q-104 0 -352 -57q-31 -6 -62.5 -15.5t-60.5 -15.5q-76 -25 -98 -68l-21 -63q-205 -141 -225 -160q-115 -98 -160 -219l-1 -11q-1 -11 -4 -36t-5 -53q-6 -61 -49 -78q-39 55 -53 117q-111 -185 -111 -222z" />
<glyph unicode="P" horiz-adv-x="1589" d="M80 1434q0 63 133 155q106 76 193 101q561 174 843 174q266 0 422 -138q158 -139 158 -370q0 -4 -27 -78q-25 -68 -30 -80q-82 -133 -314 -235l-573 -238q-94 -25 -244 -76q-92 -29 -276 -145q-14 -109 -25 -242q-10 -147 -35 -360q-31 -43 -78 -43l4 2q-6 3 -49 12v68 q0 90 17 194q0 2 18 51q18 47 19 58q0 55 -23 116q-16 -43 -49 -53q-45 27 -45 90q0 8 74 109q76 102 88 143q10 31 34 189q35 225 66 342q63 238 141 299l58 -43v-45q-51 -39 -74 -150l-11 -57l-22 -113q-10 -45 -41 -129q-33 -98 -33 -113v-127q10 -10 19 -10q41 0 133 37 l137 49q465 121 715 273q217 129 266 182q55 55 55 147q0 168 -147 277q-135 102 -307 102q-139 0 -318 -33q-242 -43 -442 -118q-315 -117 -346 -252l-27 -19q-57 52 -57 97z" />
<glyph unicode="Q" horiz-adv-x="2172" d="M43 649q0 340 231 371q190 230 572 344q297 90 670 90q109 0 307 -72q227 -82 227 -165q0 -4 22.5 -33t22.5 -31q6 -16 27 -109q16 -80 16 -110q0 -125 -106 -311q-102 -176 -201 -269q25 -53 227 -170q225 -133 273 -186q-10 -14 -15 -33l-12 -3q-12 -3 -33 -5 q-25 -6 -49 -6q-6 0 -270 147q-268 147 -277 148q-10 0 -243 -101q-336 -143 -539 -143q-289 0 -555 176q-295 197 -295 471zM133 688q0 -6 31 -102q57 -174 262 -307q209 -135 408 -136h153q90 0 213 47l209 82l84 29q23 20 29 57l-68 48q-47 33 -47 53q0 35 20 69h48 q4 0 104 -51t109 -51q104 0 237 211q123 197 123 309q0 168 -115 275q-119 109 -291 108h-24q-25 0 -90 17q-74 18 -84 18q-176 0 -379 -43q-645 -139 -774 -500q-14 -139 -21 -182q-10 -35 -30 -35q-3 1 -7 2q-57 55 -57 129q0 16 2 34.5t2 35.5q0 12 -2 18 q0 -8 -22.5 -69.5t-22.5 -65.5z" />
<glyph unicode="R" horiz-adv-x="1789" d="M100 231q0 8 39 265q55 360 94 528q23 102 76 276q29 31 51 84l62 -12v-57q0 -16 -43 -164q-49 -163 -55 -197q-59 -328 -72 -755q-10 -51 -27 -183q-2 -2 -96 -55q-29 213 -29 270zM205 1389q0 106 166 198q104 59 266 115q207 72 334 72q242 0 360 -84q33 -25 88 -131 q57 -109 58 -146q0 -175 -197 -393q-150 -166 -346 -297q-31 -23 -141 -84l-119 -25q-121 -25 -144 -45q12 -29 144 -55l186 -37q18 -4 82 -20.5l105 -26.5q221 -59 763 -229q-27 -59 -75 -60q-39 0 -183 37l-389 94q-154 33 -338 78l-78 11.5t-75 11.5q-143 25 -191 59 q-117 84 -116 121q0 76 79 113q4 0 177 43q158 37 219 71q131 76 311 264q197 205 197 336q0 190 -148 246q-80 31 -307 31q-94 0 -164 -19l-131 -36q-90 -25 -256 -150q-34 -46 -104 -129q-33 25 -33 66z" />
<glyph unicode="S" horiz-adv-x="1714" d="M115 6v62q111 86 223 125q143 49 360 100l365 88q66 14 174 47q104 34 166 68q10 6 59 57q-29 53 -104 90q-59 29 -135 51l-250 74q-858 264 -858 496q0 68 43 98q23 10 112 37q592 174 891 174h35q184 0 254 -82q-10 -14 -14 -33q-172 25 -197 25q-117 0 -379 -51 q-219 -45 -469 -109q-94 -25 -149 -68q59 -102 223 -180q2 -2 274 -119l205 -55q686 -190 686 -356q0 -52 -98 -123q-82 -55 -150 -80q-59 -20 -643 -152q-442 -100 -577 -210q-20 1 -47 26z" />
<glyph unicode="T" horiz-adv-x="1789" d="M31 1286v60l55 34q158 25 336 43l465 47q326 31 651 31h334q8 0 26.5 2t61.5 5t80 8q143 12 168 12q131 0 211 -41v-47l-1061 -56q-211 -8 -234 -84q-12 -39 -43 -225q-41 -242 -67 -493q-10 -72 -33 -351q-4 -45 -20 -149q-4 -12 -64 -70h-72q18 86 39 324 q25 293 60 498l84 479h-105q-311 0 -622 -23q-14 0 -95 -22q-86 -25 -100 -25q-24 0 -55 43z" />
<glyph unicode="U" horiz-adv-x="2150" d="M53 774q0 145 58 305q66 190 176 244q45 20 65 20q16 0 17 -32q-8 0 -158 -316q-41 -82 -41 -233q0 -217 168 -422q176 -219 387 -219h53q219 0 477 125q248 119 408 282q100 100 180 256q39 78 94 203q43 131 43 275q0 126 -61 147q-2 6 -2 21q0 74 47 73q6 0 21 -6 q86 -35 86 -246q0 -68 -86 -368q-45 -156 -134 -285q-172 -252 -499 -432q-324 -176 -613 -176q-113 0 -266 86q-135 74 -223 174q-18 20 -72 117q-23 18 -45 53q-6 31 -14 53q-66 203 -66 301z" />
<glyph unicode="V" horiz-adv-x="2017" d="M78 1092q0 2 1 7t3 17l4 23q6 27 6 47q8 2 34 6l40 6l135 -416q31 -66 94 -217l94 -237q2 -2 9.5 -14.5l20.5 -35t30 -47.5q55 -86 69 -86q70 0 404 494q246 360 913 1214q33 -20 33 -51q0 -59 -944 -1384q-72 -102 -164 -219q-121 -156 -178 -193q-20 -12 -113 -12h-24 q-121 188 -232 412q-25 49 -131 350q-104 295 -104 336z" />
<glyph unicode="W" horiz-adv-x="2670" d="M43 1315q9 31 31 92q108 -89 202 -430q4 -16 8.5 -28.5t13.5 -43.5t24 -76q4 -55 20 -139q8 -16 55 -121l10.5 -39t14.5 -55l24 -94q41 -145 78 -145q59 0 346 489q240 403 334 604q18 -18 53 -39q74 -127 142 -403l20.5 -87.5l35 -146.5t38.5 -164q52 -218 129 -380 q16 0 51 41l99 112q72 76 151 180l1020 1319l18 -55q-23 -23 -32 -90q-178 -224 -516 -719q-336 -492 -523 -715q-117 -143 -204 -235q-23 -23 -68 -23q-16 0 -31 2h-24q-92 182 -183 561q-96 395 -174 566q-47 -66 -401 -627q0 -4 -3 -19.5t-5 -27.5q-23 -57 -121 -186 q-111 -143 -146 -144h2q0 -2 -102 -14z" />
<glyph unicode="X" horiz-adv-x="1677" d="M61 86q0 16 13 29q16 16 20 24t15.5 28.5t27.5 55.5q39 80 109 172q15 22 196 197q158 152 158 178q0 29 -86 102l-115 99q-76 80 -194 182l-62 39q-43 29 -43 47q0 45 70 84l172 -106l84 -82q281 -274 324 -275q16 0 47 19q23 18 153 108q547 377 684 377q39 0 111 -45 q-16 -16 -16 -39v-4q-23 2 -52 2q-35 0 -53 -8q-143 -68 -407 -234q-264 -168 -371 -284q101 -123 411 -443l193 -190q29 -4 63 -33v-55q-39 -43 -81 -43q-57 0 -95 45l-176 207q-4 6 -350 331q-78 72 -94 72q-40 0 -92 -49l-78 -76q-106 -74 -240 -266q-127 -180 -215 -238 q-31 27 -31 72z" />
<glyph unicode="Y" horiz-adv-x="1044" d="M113 1475q0 145 57 200q18 -10 41 -30v-60q0 -414 172 -414q190 0 510 197l483 303h45q12 -63 17 -63v4q0 -37 -131 -142l-168 -133l-99 -98l-227 -321q-178 -255 -362 -603q-40 -74 -56 -122q-6 -27 -41 -144q-22 -77 -80 -123h-65q-31 25 -31 72q0 37 144 324 q80 160 245 436l254 432q-61 -12 -225 -78q-141 -55 -225 -55q-139 0 -207 147q-51 109 -51 271z" />
<glyph unicode="Z" horiz-adv-x="2166" d="M49 100q0 111 324 387l600 474q322 254 321 317q0 70 -231 70q-92 0 -148 -7q-47 -12 -102 -22q-109 -4 -256 -21q-27 -6 -98.5 -26.5t-96.5 -20.5q-35 0 -57 31q20 45 94 80q25 6 82 18q360 76 543 76h8q391 0 391 -133q0 -70 -88 -172q-152 -178 -385 -371l-415 -334 l-164 -124q-100 -80 -144 -146v-35q74 -47 201 -47q27 0 170 15l332 32q319 31 805 31q510 0 602 -113q-164 0 -488 15l-237 10l-1184 -107q-25 -2 -59 -2q-117 0 -228 48q-92 38 -92 77z" />
<glyph unicode="[" horiz-adv-x="1077" d="M90 -510l76 1102q31 436 31 530v4l-2 205q0 207 -13 287q0 2 -1 7t-1 9q0 10 15 86q4 18 7 38t5 30t2 14l27 25q100 0 335 22h4q47 0 127 13q16 4 29 6q29 4 64 4q39 0 63 -2h39q53 0 84 8q27 -23 27 -70q0 -66 -115 -65q-106 0 -170 -8q-39 -16 -129 -23l-131 -6 q-80 -6 -84 -8q-39 -12 -39 -53v-7.5t1 -14.5t1 -19v-78v-119v-21q0 -147 -18 -350q-20 -217 -21 -258q0 -273 -31 -669q-2 -33 -30 -259q-12 -96 -13 -112q0 -98 90 -98l54 4q12 0 22.5 2t17.5 3t9 1q25 0 52.5 1t41.5 2t21 1q4 0 40.5 12t49.5 12q6 0 51 -10t51 -10l21 8 q10 4 22 4q33 0 193 -45l69 -39q-41 -72 -57 -71q-10 0 -41 6t-43 6q-4 0 -18.5 -14.5t-20.5 -14.5q-2 0 -53 19q-45 14 -62 14l29 -2l25 -6q-37 0 -123 14q-40 6 -56 6h2q0 -2 -32 -12q-31 -10 -74 -10h-100q-99 -13 -320 -31z" />
<glyph unicode="\" horiz-adv-x="1026" d="M57 1812l17 58h47q141 -236 289 -645q180 -494 331 -836l252 -567v-70q-137 43 -186 158l-84 258l-141 324q-20 51 -39 114l-7.5 22.5t-7.5 26.5l-67 103q-4 4 -41 98q-99 243 -363 956z" />
<glyph unicode="]" horiz-adv-x="1052" d="M-66 -432l41 35q6 2 308 2q6 0 30 -6q23 -6 29 -7q74 0 170 21q133 25 139 63q31 139 49 316q8 72 15.5 131t13.5 115.5l22.5 205l36.5 336.5q0 10 21 234q14 100 43 352q12 102 12 168q0 123 -47 152q-71 49 -252 49q-14 0 -82 -6q-20 0 -39.5 -1.5t-28.5 -2.5t-14 -1 q-8 0 -172 11q-131 8 -172 8q-4 12 -14 74q4 2 11 7t19.5 12t24.5 15q14 0 113 17q80 14 117 14q2 0 10 -2t23.5 -5t31.5 -7q58 -12 68 -13q14 0 84 13q82 14 84 14q20 0 143 -24q133 -27 152 -33q18 -4 69 -64v-440q0 -16 -37 -207q-14 -80 -24 -237q-12 -176 -23 -238 q-16 -78 -45 -233q-4 -115 -8 -166q-29 -428 -78 -707q-166 -74 -268 -74l-104 9q-143 8 -152 8q-96 0 -168 -11q-41 -6 -63 -18l-19 -6h2q-18 2 -55 10q-16 33 -17 98v19z" />
<glyph unicode="^" horiz-adv-x="964" d="M10 1319q0 37 19 59q18 20 176 164q233 212 338 338h2q23 0 63 -27q47 -29 66 -53l69 -92l119 -133q100 -113 101 -129q0 -25 -37 -57q-35 -33 -62 -33q-4 0 -151 160q-150 162 -156 161q-33 0 -190 -157l-195 -199q-45 -45 -141 -70q-21 21 -21 68z" />
<glyph unicode="_" horiz-adv-x="3072" d="M39 -197q0 37 31 76q209 35 348 35q2 0 6 -1t13 -3t20 -4q35 -6 39 -6l51 10q16 4 26 4l893 43l1330 -33q8 0 51 21q43 18 51 18q39 0 74 -45q39 -47 59 -59v-47q-6 0 -70 -27l-63 -27q-10 0 -59 23q-52 22 -68 24q-52 9 -129 13l-856 32h-10q-14 0 -336 -14 q-252 -14 -346 -14q-8 0 -43 14t-41 14q-12 0 -61.5 -20t-61.5 -20q-20 0 -137 -7q-16 0 -418 -22l-41 -33q-12 0 -68 -8q-49 -8 -76 -8q-108 -1 -108 71z" />
<glyph unicode="`" horiz-adv-x="737" d="M35 1833q0 31 8 37q6 6 39 6q49 0 160 -64q268 -158 467 -290l10 -15q0 -10 -21 -30q-33 -33 -71 -33q-20 0 -82 31l-86 43q-88 45 -187 120q-113 88 -194 109q-43 55 -43 86z" />
<glyph unicode="a" d="M47 141q0 111 244 258q227 141 348 142q51 0 90 -58v-43q-23 -29 -47 -28q-2 0 -33 12t-37 12q-39 0 -182 -82q-135 -76 -182 -114q-47 -41 -60 -90q33 -33 84 -33q27 0 240 82q217 84 260 84q70 0 96 -33q20 -31 52 -90q37 -66 79 -113v-45q-23 -29 -47 -29 q-14 0 -106 97q-92 98 -123 98l-219 -84q-227 -84 -285 -84q-49 0 -110.5 49t-61.5 92z" />
<glyph unicode="b" horiz-adv-x="1456" d="M68 29q27 63 69 80q61 20 232 32q168 14 399 39q90 12 303 96q223 88 223 154v4q-6 59 -143 98q-111 31 -205 31h-12l-672 -127h-12q-35 0 -127 29v272q0 154 16 361l43 577q6 98 37 160h57q31 -46 31 -117v-22l-69 -1059v-4q0 -23 20 -43q22 -25 43 -25q2 0 182 23 l377 49q141 18 154 18q141 0 254 -55q143 -68 143 -182q0 -74 -170 -176q-131 -80 -244 -115q-100 -33 -272 -51q-123 -16 -279 -33q-33 -4 -153 -27q-104 -18 -148 -18q-26 0 -77 31z" />
<glyph unicode="c" horiz-adv-x="1044" d="M43 244q0 123 170 213q250 135 311 135l127 -14q-12 0 -14 -23q-3 -34 -6 -37q-109 -35 -252 -108q-197 -102 -197 -154q0 -96 244 -125q10 0 24.5 -1t21.5 -2t11 -1h2l502 78l19 -17v-47q-57 -37 -121 -49q-100 -23 -285 -49q-104 -18 -147 -18q-129 0 -252 51 q-158 64 -158 168z" />
<glyph unicode="d" horiz-adv-x="1312" d="M53 164q0 89 56 123q4 2 122 57q246 111 406 143q45 10 141 52q90 43 140 57l114 20q55 12 101 58q-29 369 -29 874q0 295 47 312q37 -18 47 -31q23 -29 25 -92v4q-2 -78 -2 -232l2 -671q0 -117 18 -244q-100 -45 -414 -148q-272 -88 -323 -106q-244 -90 -285 -145 q0 -29 23 -41q53 -29 215 -29q49 0 264 45q301 63 506 121q-12 -61 -53 -84q-49 -25 -310 -103q-272 -82 -317 -81q-14 0 -94 -7l-44.5 -4l-32.5 -3t-16 -1q-86 0 -184 39q-123 47 -123 117z" />
<glyph unicode="e" horiz-adv-x="1052" d="M47 324q0 150 131 231q113 72 268 72q133 0 216 -60q80 -58 79 -159q0 -55 -190 -123q-158 -57 -232 -58q-4 0 -9 1t-7 1q0 -12 -22 -34q12 -20 116 -45q95 -25 135 -25h318l121 -19q35 -25 53 -53q-39 -45 -94 -45h-355q-125 0 -274 37q-199 49 -223 123q-31 93 -31 156 zM176 356q0 -27 19 -39h63q37 0 184 58q152 59 170 78q-55 57 -180 57q-84 0 -160 -35q-96 -43 -96 -119z" />
<glyph unicode="f" horiz-adv-x="1527" d="M20 332v4q0 45 41 63q117 55 463 86q22 15 31 31q-14 109 -14 232q0 391 170 647q195 295 567 295q166 0 328 -72q199 -92 198 -236v2l-2 -5q-2 -5 -5 -19t-7 -29q-176 244 -504 244q-106 0 -235 -53q-133 -55 -195 -138q-63 -86 -133 -280q-74 -205 -74 -299 q0 -12 15 -131q4 -29 7 -59.5t5 -47t2 -22.5q45 -35 67 -35q14 0 48 8q12 2 21 5t14 4l6 1q68 8 337 9q156 0 326 -11q-10 0 -43 -26l2 -29l-371 -20q-225 -12 -348 -93q31 -104 129 -278v-55q-9 -18 -37 -19q-29 0 -139 180q-113 180 -137 181q-53 0 -166 -23 q-59 -16 -131 -43q-98 -37 -115 -37q-55 0 -121 68z" />
<glyph unicode="g" horiz-adv-x="1005" d="M-508 -682q0 135 295 279q195 94 469 167q182 51 502 89l20 12q0 4 1 10t1 10q0 10 -18 152q-4 35 -47 145q-47 119 -72 119l4 -2q0 -6 -115 -43q-133 -45 -190 -45q-80 0 -141 29q-78 37 -78 104q0 23 6 66l10 53l41 49q41 23 142 57q113 39 143 39h287l14 -61l-43 -37 q-18 2 -55 2q-350 0 -441 -139q49 -59 133 -60q31 0 187 78q137 68 137 76l-2 2q51 0 98 -123q127 -332 127 -561q0 -215 -100 -418q-115 -229 -318 -348q-111 -68 -448 -68q-49 0 -162 23q-94 18 -162 45q-84 33 -129 78q-33 31 -65 104q-31 71 -31 117zM-383 -719 q0 -143 305 -217q90 -23 197 -22q176 0 272 47q41 35 64 49l69 49q113 88 195 270q74 166 74 303q0 43 -19 64h-41q-29 -16 -84 -64q-84 -10 -160 -28q-430 -94 -731 -256q-141 -78 -141 -195z" />
<glyph unicode="h" horiz-adv-x="1114" d="M55 174l78 858q55 590 168 842q8 -2 74 -14q-25 -84 -76 -410q-51 -322 -57 -412q-2 -33 -41 -493q-18 -217 -19 -252v-14q0 -29 8 -35q10 -6 46 -6q4 0 45 10l36 8q6 0 42 6t112 16.5l158 22.5q51 6 99 13.5l68.5 10.5t22.5 3h29q12 0 24 1l2 1q33 0 50 -8 q94 -37 114 -156q8 -41 9 -207q0 -55 34 -86v-45l-30 -29q-127 53 -127 170q0 25 2 56q0 12 1 25t2 19.5t1 8.5q0 133 -148 133h-26q-102 0 -394 -70q-137 -33 -147 -32q-66 -1 -160 65z" />
<glyph unicode="i" horiz-adv-x="432" d="M156 104q0 381 94 402q35 -16 37 -51q0 14 -4 14q0 -4 1 -12t1 -15q0 -80 -15 -235q-12 -162 -12 -189q-47 -27 -86 -26q-16 49 -16 112zM184 952q31 72 66 72q37 0 115 -53v-4q0 -41 -82 -97q-23 6 -99 82z" />
<glyph unicode="j" horiz-adv-x="528" d="M-360 -825v14q170 -145 221 -145q373 0 415 90q31 65 31 221q0 49 -2 63l-49 975v8q0 39 16 78q20 57 54 58q55 0 67 -244q0 -8 4 -291q12 -51 25 -127l12 -604q0 -6 1 -18.5t1 -16.5q0 -141 -33 -199q-29 -53 -217 -84q-141 -23 -252 -22q-127 0 -213 74q-81 72 -81 170 zM215 973q0 37 74 74q84 -25 84 -60q0 -45 -76 -108q-82 35 -82 94z" />
<glyph unicode="k" horiz-adv-x="1120" d="M68 84q0 41 28 248l39 282q35 258 51 551q0 2 3.5 53.5t9.5 173t12 261.5q4 94 10 139q6 31 49 61q47 -18 56 -75v-13q0 -68 -9 -262q-6 -135 -61 -766v-75q0 -84 -2 -125q0 -6 -25 -140q-18 -94 -18 -118v-5l12 -110q39 -4 39 -6h-4q74 33 172 65q233 76 377 146l178 84 l41 4q35 -18 43 -109q-16 -12 -166 -76q-121 -49 -151 -96q66 -131 237 -158v-6q0 -37 -47 -71q-43 -33 -86 -41h-2q-35 0 -106 59l-107 84l-88 102l-227 -90q-80 -31 -152 -53h-22q-74 0 -82 74l-1 3q-1 3 -1 5z" />
<glyph unicode="l" horiz-adv-x="446" d="M139 252q0 45 6 192q4 102 17 394q4 113 22 290q20 215 21 287q0 289 37 402l14 2h6q33 0 45 -39q14 -37 21 -70l-58 -1264q-6 -3 -6 -24q0 -22 6 -55q18 -137 52 -357q-2 -6 -33 -18q-2 0 -6 -1t-7 -1q-104 0 -135 241q0 2 -1 8.5t-1 12.5z" />
<glyph unicode="m" horiz-adv-x="1615" d="M68 109q0 27 131 110q18 12 227 203q154 141 246 141q94 0 94 -217q0 -31 -2 -57q-4 -53 -4 -62l39 -10h-6q20 0 344 195q33 29 80 57q188 82 258 82q96 0 96 -186q0 -8 -1 -31l-3 -68l-4 -90l-7 -188q-29 -4 -57 -29q-74 57 -74 182q0 14 7 95l4 45l3 33.5t1 15.5 q0 57 -21 94h-35q-45 0 -337 -180l-291 -183q-43 0 -119 58q-2 6 -2 18q0 20 8 84t8 86q0 63 -26 103h-35q-47 0 -438 -359h-58q-26 44 -26 58z" />
<glyph unicode="n" horiz-adv-x="1040" d="M29 -16v65q0 47 184 207q147 129 307 233q227 147 336 148q29 0 57 -33q27 -29 27 -63q0 -33 -20 -240q-4 -37 -46 -393q-4 -16 -30 -17q-41 0 -66 99q-18 74 -18 133q0 12 26 158q25 135 25 155q0 59 -33 60q-41 0 -174 -70q-117 -61 -170 -102q-96 -70 -227 -224 q-20 -25 -82 -92q-24 -24 -96 -24z" />
<glyph unicode="o" horiz-adv-x="1241" d="M61 250q0 53 62 108q51 37 162 148q68 84 264 141q160 45 303 45q41 0 115 -33q70 -31 102 -63q31 -35 64 -111q33 -78 32 -120q0 -106 -45 -183q-41 -70 -291 -137q-217 -59 -337 -59q-135 0 -271 65q-160 80 -160 199zM190 238q0 -55 129 -99q117 -39 181 -39 q102 0 288 43q170 37 242 115q35 35 35 115q0 74 -90 141q-82 63 -162 64q-15 0 -233 -43q-92 -20 -154 -66q-236 -168 -236 -231z" />
<glyph unicode="p" horiz-adv-x="1075" d="M0 -860q0 279 197 938q29 94 75 180q20 35 95 70q31 -20 30 -52q0 -14 -37 -94q-47 -94 -51 -106q-162 -541 -182 -994q-57 -12 -57 -14q-23 0 -47 25q-23 22 -23 47zM37 444q0 61 33 101q41 47 266 96q199 45 293 45q426 0 426 -235q0 -100 -197 -238 q-145 -100 -285 -160q-111 -47 -145 -47h-41l-27 31q25 59 54 80l108 43q401 154 402 303q0 96 -279 96q-129 0 -270 -22q-193 -31 -236 -95q-12 -55 -43 -145q-59 94 -59 147z" />
<glyph unicode="q" horiz-adv-x="1075" d="M20 152q0 33 29 94q27 57 57 73q57 33 228 66q145 29 241 29q74 0 127 -41q-2 -6 -14 -84q-29 -16 -82 -17q-2 0 -63 21q-55 18 -66 18q-43 0 -160 -51q-115 -49 -153 -84q23 -47 80 -47h2q2 0 5 1t8 1h11h29q6 0 168 29l344 63l71 12.5t51 9.5t19 3q72 0 72 -111 q0 -78 -47 -198l-80 -201q-70 -195 -78 -240l-24 -170l-62 -399l-22 -29h-70q-16 10 -16 43q0 248 88 563q4 27 84 299q2 6 49 134q37 101 37 122q0 45 -37 45q-20 0 -291 -57q-156 -33 -358 -33q-57 0 -115 45q-62 46 -62 91z" />
<glyph unicode="r" horiz-adv-x="999" d="M82 70q0 27 4 57q2 31 2 61q0 78 76 289q25 51 72 86q100 70 376.5 70t323.5 -74v-41l-33 -29q-100 33 -164 33h-8q-98 -4 -108 -4h-80l-72 -22q-37 -2 -127 -23q-135 -59 -160 -207q-10 -49 -10 -104v-25q8 -98 8 -131q-10 -2 -73 -10q-27 54 -27 74z" />
<glyph unicode="s" horiz-adv-x="774" d="M57 569q0 109 217 109q84 0 213 -19q150 -20 199 -51l-16 -24l-371 -21q-3 -3 -25 -18l269 -119q182 -80 182 -184q0 -86 -55 -115q-39 -18 -201 -68q-162 -51 -201 -51q-4 0 -16 8q-10 6 -14 7q-20 0 -86 -66q-43 35 -43 51q0 113 335 180q33 8 78 17q31 25 49 43 q-33 55 -98 80q-47 14 -242 90q-174 67 -174 151z" />
<glyph unicode="t" horiz-adv-x="1083" d="M4 555q0 59 219 90q266 37 322 66q29 16 65 395q18 182 74 477q2 12 7 31.5t9 46.5q2 10 70 43l18 -125q-2 -6 -20 -104l-41 -256q-8 -41 -16 -123l-17 -359l404 4v-65q-229 0 -393 -76q-41 -18 -50 -51q-6 -84 -16 -170q-4 -31 -4 -96q0 -2 1 -10.5t2 -24t1 -31.5 t1 -31.5t2 -23.5t1 -10q0 -80 -39 -132q-29 10 -45 17q-39 98 -39 235q0 33 12 131q10 109 11 132q0 29 -23 45q-20 -6 -127 -19q-4 0 -19.5 -2t-41 -6l-53.5 -8l-18 -3q-17 -3 -44 -5q-9 0 -49 -31q-10 -10 -10 -39v-8h-43q-20 0 -64 41q-47 43 -47 55z" />
<glyph unicode="u" horiz-adv-x="1019" d="M51 313q0 100 39 199q20 0 33 12q23 -16 51 -41q-10 -88 -10 -139q0 -242 158 -242q154 0 364 191l320 299h16q33 0 33 -29q0 -37 -154 -209q-137 -150 -199 -196l-141 -105q-47 -31 -137 -61q-102 -33 -150 -33q-100 0 -168 131q-55 106 -55 223z" />
<glyph unicode="v" horiz-adv-x="1146" d="M-4 528v84q51 12 51 15q-2 2 -4 2q23 0 152 -231.5t157 -231.5q37 0 226 180q221 211 241 225q139 98 260 172h68l14 -14v-61q-78 -35 -180 -95q-14 -10 -139 -137q-444 -451 -545 -450q-22 0 -86 104q-61 100 -72 129q-14 45 -55 162q-31 84 -88 147z" />
<glyph unicode="w" horiz-adv-x="1638" d="M43 522q0 51 61 84q53 -61 117 -200q76 -168 101 -211h49q23 37 94 112q27 43 78 113q59 84 98 84q41 0 66 -43l135 -215q106 -168 159 -168q35 0 283 219q244 217 272 217h56v-45q-80 -63 -205 -197q-309 -334 -420 -333q-86 0 -192 155l-156 230q-45 -6 -158 -160 q-109 -147 -198 -148l-27 17q-49 94 -119 250q-94 206 -94 239z" />
<glyph unicode="x" horiz-adv-x="1163" d="M59 92q0 76 82 178q51 63 265 252q-49 59 -138 99l-153 67q-18 45 -19 60q0 63 60 63q8 0 184 -94q178 -98 186 -99q6 0 215 93q205 90 250 90t121 -58v-43q-4 -2 -106 -14q-63 -10 -234 -57q-57 -14 -123 -107q98 -121 334 -268q125 -80 129 -84q0 -78 -94 -78 q-33 0 -260 162q-225 160 -236 160q-154 0 -332 -293q-15 -25 -18 -62q-2 -47 -6 -63q-12 -45 -72 -70q-4 27 -20 82q-15 51 -15 84z" />
<glyph unicode="y" horiz-adv-x="909" d="M66 475q0 25 28 82h58q74 -309 208 -309q113 0 273 117l178 131q63 -20 63 -90q0 -12 -12 -58q-14 -45 -14 -51v-8q0 -10 -4 -72q-53 -129 -131 -356q-25 -25 -107 -199l2 2q0 -12 -55 -158q-25 -66 -86 -213q-2 -10 -9 -49t-14 -65q-6 -29 -24 -76q-20 -47 -21 -74 q0 -6 4 -14q-18 -31 -71 -84h-43q-31 55 -31 82q0 100 131 436q49 127 129 309q25 46 80 166q16 51 41 105q18 29 66 161q-4 4 -5 11q0 12 7 26q2 6 2 13q0 10 -9 10q-10 0 -118.5 -45t-118.5 -45q-20 0 -101 -13q-20 -4 -43.5 -7t-34 -5t-14.5 -2q-84 0 -147 131 q-57 113 -57 211z" />
<glyph unicode="z" horiz-adv-x="1320" d="M84 41v84l295 227q172 131 268 258q-16 45 -49 45h-2l-18 -2q-4 0 -177 -39q-164 -37 -186 -36q-14 0 -82 28q0 10 -2 24.5t-2 26.5q0 20 6 33l596 105q70 -18 70 -109q0 -121 -207 -309q-12 -12 -305 -268q18 -20 53 -21h29q0 2 323 31q74 6 398 35q2 0 41 12 q40 12 49 12q68 0 133 -53q-55 -23 -121 -45q-63 -20 -184 -31l-189 -16q-18 -8 -90 -31q-166 -43 -352 -43q-57 0 -160 23q-115 24 -135 59z" />
<glyph unicode="{" horiz-adv-x="862" d="M88 659v13q0 23 66 45q137 47 213 133q80 88 79 190q0 25 -2 39l-79 480q2 6 16 122q8 55 12 66q12 35 39 49q2 0 13.5 3t37 10.5l52.5 15.5l106 28q74 12 125 13q20 0 63 -11q55 -12 58 -14q2 -4 10 -31l12 -14l-4 -6l-12 -10l-275 10h-6q-66 0 -100 -47q-2 -8 -51 -109 q8 -61 8 -69q16 14 16 37v6l-22 -72q6 -45 41 -188q16 -35 37 -107q33 -166 32 -227q0 -2 -14 -88q-12 -74 -14 -78q-16 -29 -60 -66q-49 -37 -65 -57q51 -92 94 -131q10 -8 31 -23q14 -16 14 -55q0 -131 -35 -213q-10 -66 -39 -168l-69 -162q-39 -94 -39 -168 q0 -127 84 -176q18 -10 100 -24q88 -16 115 -17q14 0 34.5 2t37.5 2q10 0 18 -2q16 -12 45 -22v-19q-8 -20 -10 -30l-51 -25q-43 -20 -101 -20q-72 0 -246 57q-14 16 -34 31q-86 55 -107 80q-41 47 -41 125q0 63 25 174q18 76 90 227l4 18q37 96 86 297q-55 113 -154 125 q-22 0 -67 6l-33 -4q4 -27 23 -59l-45 63q-25 14 -41 17q-11 18 -21 28z" />
<glyph unicode="|" horiz-adv-x="512" d="M143 -154l9 1352q0 16 3 136t7 225q0 2 4 178q0 43 22 133l2 -2q4 -6 41 -43q39 -84 39 -172v-6l-18 -1821q-4 -90 -14 -135l-7 -2q-18 6 -26 6h-2q-15 9 -43 31h-2q-15 102 -15 120z" />
<glyph unicode="}" horiz-adv-x="821" d="M-31 1776l4 -4l15 -11l272 8h4q70 0 103 -45q8 -16 51 -108l-6 -72q-18 16 -19 39v6l25 -69q-6 -37 -39 -193q-18 -33 -39 -104q-35 -178 -35 -228q0 -4 14 -90q12 -74 19 -80q16 -29 55 -59q47 -39 68 -59q-55 -96 -96 -134l-29 -22q-16 -20 -17 -53q0 -129 35 -215 q8 -45 41 -166l70 -160q39 -86 39 -170q0 -125 -84 -174q-16 -10 -101 -27q-74 -16 -114 -16q-16 0 -37 2t-37 2q-8 0 -16 -2q-16 -14 -45 -27l-2 -14l12 -31l47 -24q53 -20 100 -21q74 0 248 58q14 16 66 49q49 33 75 59q41 51 41 127q0 59 -22 172q-18 76 -90 227 q-16 61 -58 181q-25 76 -32 137q55 113 151 123q12 0 70 8l33 -4l-2 -10q0 -12 4 -12.5t14 16.5l4 4l2 4q25 14 41 16q4 8 19 29v12q0 23 -66 45q-129 43 -211 133q-82 92 -82 193q0 14 4 39l80 477q0 63 -24 176q-10 43 -46 62q-4 2 -102 30l-106 29q-68 12 -123 12 q-8 0 -66 -10q-52 -9 -55 -12q-2 -4 -10 -33z" />
<glyph unicode="~" horiz-adv-x="1820" d="M27 1479q0 102 186 245q180 139 289 140q164 0 272 -88l213 -205q27 -27 100 -51q82 -27 130 -27q84 0 288 133l209 135q25 -6 72 -14v-72l-189 -139q-158 -123 -190 -139q-109 -61 -223 -62q-40 0 -178 62q-137 59 -154 86q-84 137 -121 168q-59 47 -205 47 q-109 0 -209 -72q-53 -37 -139 -129q-66 -72 -92 -72q-59 1 -59 54z" />
<glyph unicode="&#xa1;" horiz-adv-x="552" d="M59 -31q0 164 211 1170q47 213 113 288q72 -35 72 -84q0 -12 -43 -192q-47 -195 -176 -944q-6 -35 -72 -467q-20 -4 -33 -16q-53 20 -53 63q0 2 1 6t3 13.5t4 17.5q4 20 4 39v8q-31 51 -31 98zM369 1778q0 27 22 59q23 31 47 31q41 0 76 -31t35 -68q0 -39 -55 -94h-39 q-23 0 -54 39q-32 44 -32 64z" />
<glyph unicode="&#xa2;" horiz-adv-x="980" d="M80 723q0 47 106 160q102 104 156 129q12 2 231 49q47 18 136 262q84 236 161 236q59 0 60 -66q0 -10 -27 -43q-27 -27 -35 -43q-61 -111 -77 -231q-45 -45 -46 -111q0 -55 62 -80q72 -29 82 -37v-84q-66 0 -195 -6q-51 -61 -112 -280q70 -35 147.5 -35t155.5 37l55 -56 v-43q-307 -80 -307 -82q-2 0 -23 9q-16 6 -22 6q-61 0 -80 -35q-78 -158 -86 -393q-4 -39 -39 -74q-59 29 -59 147q0 31 22 148q6 33 14.5 70.5t12.5 57t4 27.5q-78 47 -227 170q-10 10 -35 105q0 2 -2 5t-7.5 12.5t-11.5 23.5q-14 29 -14 45zM248 682v2q2 0 16 -61 q2 0 10.5 -6.5t26.5 -17.5l39 -24q53 -33 74 -32q16 0 129 317l-86 17q-98 -61 -125 -84q-84 -66 -84 -111z" />
<glyph unicode="&#xa3;" horiz-adv-x="1796" d="M43 338q0 51 59 135q23 33 142 94l102 58q66 33 115 32h35h26h21h82q31 0 86 -20q6 -2 57 -23l78 279q-14 20 -41 20h-148l-145 2q-12 49 -14 50q0 35 43 69q41 33 86 33q10 0 78 -12q78 -14 81 -15q61 0 78 60q6 51 23 153q9 58 55 246q2 29 23 92q25 39 96 74 q71 31 135 31q31 0 182 -70q27 -12 70 -102q39 -90 39 -123q0 -31 -21 -62q-23 -29 -45 -28q-49 0 -59 73q-12 96 -21 109q-14 20 -90 43q-72 20 -104 20q-92 0 -135 -206q-29 -137 -29 -285q45 -14 133 -25q106 -12 131 -16q88 -20 250 -102q-2 -6 -6 -27t-6 -33 q-34 -6 -74 -6q-27 0 -186 31q-150 29 -187 28q-31 0 -45 -2q-16 -25 -49 -186q-35 -168 -35 -207q0 -37 154 -237q70 -90 129 -125q63 -41 172 -41q195 0 350 88q8 -20 15 -31q14 -27 14 -39q0 -76 -187 -131q-147 -43 -255.5 -43t-186.5 59q-37 29 -135 146 q-77 89 -141 141q-63 -84 -168 -201q-170 -133 -283 -133q-133 0 -237 93q-102 90 -103 210q0 14 -2 31q0 10 -1 21zM164 297q0 -66 59 -117q63 -53 131 -53q41 0 62 4q59 14 180 125q121 115 121 174q0 33 -60 68q-53 29 -90 28q-180 0 -311 -112q-92 -77 -92 -117z" />
<glyph unicode="&#xa4;" horiz-adv-x="1513" d="M43 858v96q57 29 78 29q14 0 106 -12.5t111 -12.5q29 0 41 3l125 188q76 109 153 156q268 156 609 174q8 0 53 12q39 10 55 10q164 0 240 -45q6 -14 31 -51q-63 -43 -115 -43q-23 0 -51 4q-45 6 -54 6q-223 0 -473 -119q-252 -119 -370 -284q104 -16 211 -17q10 0 29.5 1 t54 2t65.5 1l154 2q119 0 278 -6q22 -12 56 -37v-63q-61 -4 -107 -4q-55 0 -115 2l-114 2q-89 0 -394 -25l-151 -12h-37q-43 -4 -78 -78q29 -18 76 -18q8 0 57 6t59.5 6t78.5 -12q18 -4 37.5 -7t27.5 -5t12 -2q3 0 25 6l20 8q14 0 41 -23q260 -2 582 -45l12 -59 q-78 -14 -235 -14l-27 -15q-25 -12 -37 -12q-10 0 -35 12q-8 4 -15 7t-11 5l-4 3l-482 12l-210 -17q-33 -27 -33 -86q0 -113 51 -170q164 -182 547 -194q12 0 104 -12q96 -10 115 -11h98l96 -2v-86q-250 -41 -260 -41q-309 0 -544 82q-328 115 -347 363v6q0 6 -1 19.5 t-2 30.5t-2 43t-3 52q-18 10 -176 49v70q29 47 78 47q16 0 67.5 -14t61.5 -14q43 0 43 73v17q-94 20 -256 63z" />
<glyph unicode="&#x20ac;" horiz-adv-x="1513" d="M43 858v96q57 29 78 29q14 0 106 -12.5t111 -12.5q29 0 41 3l125 188q76 109 153 156q268 156 609 174q8 0 53 12q39 10 55 10q164 0 240 -45q6 -14 31 -51q-63 -43 -115 -43q-23 0 -51 4q-45 6 -54 6q-223 0 -473 -119q-252 -119 -370 -284q104 -16 211 -17q10 0 29.5 1 t54 2t65.5 1l154 2q119 0 278 -6q22 -12 56 -37v-63q-61 -4 -107 -4q-55 0 -115 2l-114 2q-89 0 -394 -25l-151 -12h-37q-43 -4 -78 -78q29 -18 76 -18q8 0 57 6t59.5 6t78.5 -12q18 -4 37.5 -7t27.5 -5t12 -2q3 0 25 6l20 8q14 0 41 -23q260 -2 582 -45l12 -59 q-78 -14 -235 -14l-27 -15q-25 -12 -37 -12q-10 0 -35 12q-8 4 -15 7t-11 5l-4 3l-482 12l-210 -17q-33 -27 -33 -86q0 -113 51 -170q164 -182 547 -194q12 0 104 -12q96 -10 115 -11h98l96 -2v-86q-250 -41 -260 -41q-309 0 -544 82q-328 115 -347 363v6q0 6 -1 19.5 t-2 30.5t-2 43t-3 52q-18 10 -176 49v70q29 47 78 47q16 0 67.5 -14t61.5 -14q43 0 43 73v17q-94 20 -256 63z" />
<glyph unicode="&#xa5;" horiz-adv-x="1384" d="M53 365v61q53 29 166 59q117 31 174 31q12 0 27 -4l24 -8q20 0 78 22q59 23 72 35l-453 785q14 70 72 69q49 0 217 -270q182 -299 246 -334q76 76 272 307q18 25 201 242q158 184 209 184q16 0 69 -55l-387 -445q-307 -350 -307 -432q0 -41 12 -57q8 -12 52 -12 q63 0 131 2l131 2q135 0 215 -6l-6 -35q-55 -53 -129 -53q-8 0 -22.5 6t-22.5 6q-12 0 -121 -19q0 4 -133 7h-6q-121 0 -138 -134q14 -20 43 -20q4 0 35 10l31 10q100 12 295 13h88h84v-84q-10 2 -28.5 5t-26.5 5q-18 0 -52 -16q-8 -4 -17 -9.5t-22 -9.5q-109 0 -229 -18 q-98 -16 -127 -27q-68 -23 -86 -69q-6 -29 -11 -55.5t-7 -38.5l-2 -11q-23 -57 -78 -80q-43 35 -43 88q0 16 2 37q0 8 1 16.5t2 12.5t1 6q0 45 -84 45q-18 0 -121 -18q-104 -18 -121 -19h-131l-12 55q-2 -2 -2 -4q0 76 207 99q201 18 204 20q47 6 58 29l20 76q-14 20 -51 20 q-123 0 -199 -16q-41 -10 -96 -29q-61 -18 -92 -18t-76 41z" />
<glyph unicode="&#xa7;" horiz-adv-x="1183" d="M61 961q0 43 50 143l51 100v-2q-6 0 -33 74q-33 92 -33 133q0 233 131 328q49 35 140 78q106 51 116 51q51 0 138 -23q55 -14 137 -63q39 -20 39 -72q0 -16 -19 -39q-18 -20 -30 -20l2 2q0 10 -68 53q-80 53 -143 53q-55 0 -70 -10l-92 -51q-35 -12 -80 -41 q-98 -80 -98 -242q0 -29 30 -94q49 -92 170 -115q49 -6 195 -30q90 -18 192 -82q45 -29 111 -138q61 -96 61 -131q0 -4 -18 -90t-18 -90q0 -6 55 -74q53 -70 70 -100q20 -49 20 -147q0 -80 -39 -140q-12 -18 -35 -35q-18 -8 -182 -94q-119 -63 -129 -63h-236q-57 0 -182 67 l-145 80v86l8 6q8 6 20 7q8 0 74 -48q53 -39 101 -61q92 -37 176 -37q27 0 168 21q43 6 141 65l106 53q45 27 45 97q0 55 -36 123q-43 84 -113 108q-20 2 -66 6l-34 23h-7q-145 0 -456 123q-41 14 -119 102q-66 74 -66 150zM162 946q0 -29 78 -94q59 -51 88 -61 q98 -35 164 -56q162 -47 264 -47q25 0 55.5 37t30.5 72q0 55 -51 127q-53 76 -105 96q-45 18 -131 45q-86 14 -244 43q-20 14 -41 14q-33 0 -73 -75q-35 -66 -35 -101z" />
<glyph unicode="&#xa8;" horiz-adv-x="1011" d="M131 1497l1 3q1 3 1 5l-2 60l37 63l74 49l106 4q43 -40 43 -92q0 -23 -10 -49q-8 -23 -43 -57q-20 -20 -62 -41h-8q-6 0 -22 4q-20 6 -33 6h-10h-29q-20 0 -35 21q-8 10 -8 24zM567 1565v10q2 23 29 39l49 28q33 27 90 60l107 -45q4 -23 14 -51q0 -2 3 -11.5l5 -15.5h2 q-18 -49 -59 -84q-55 -45 -102 -45h-7q-49 2 -90 43l-26 31q-15 16 -15 41z" />
<glyph unicode="&#xa9;" horiz-adv-x="1464" d="M33 674q0 8 10 33q4 8 8 18t4 12t4 84q12 156 80 269q152 264 426 317q92 18 250 18l373 -96q221 -178 221 -559q0 -267 -233 -436q-211 -156 -488 -156q-135 0 -301 66q-174 70 -248 174q-16 23 -61 127q-45 109 -45 129zM201 731q0 -82 39 -174q43 -106 104 -131 q240 -92 338 -92q53 0 211 34.5t203 57.5q55 27 121 143q63 113 63 183q0 172 -31 258q-18 51 -86 120q-74 76 -121 76q-4 0 -34 -6q-29 -6 -35 -6q-10 0 -148 33q-129 31 -143 30.5t-43 -10.5l-35 -10q-98 -18 -143 -41q-117 -59 -188.5 -188.5t-71.5 -276.5zM391 686 q0 170 60 236q141 156 297 155q82 0 131 -35q55 -39 55 -92q0 -27 -33 -53q-20 10 -63 25q-49 16 -66 16q-51 0 -145 -66q-92 -66 -92 -108q0 -160 225 -160q51 0 127 53q78 57 117 74q45 -14 45 -63q0 -78 -117 -152q-109 -66 -184 -65q-51 0 -222 41l-75 100 q-60 78 -60 94z" />
<glyph unicode="&#xaa;" horiz-adv-x="894" d="M51 1470q0 123 350 381q92 25 125 25q59 0 138 -51q84 -59 84 -111q0 -33 -46 -69l-71 59q-41 31 -84 31q-156 0 -277 -176l-1 -4q-1 -3 -1 -5v-10q0 -12 23 -12q12 0 153 57q147 59 154 60q57 0 160 -152q74 -111 116 -215v-43q-47 -12 -49 -14h4l-180 143 q-25 100 -90 100q-18 0 -192 -51t-193 -51q-28 0 -74 43q-49 45 -49 65z" />
<glyph unicode="&#xab;" horiz-adv-x="1202" d="M55 514q0 68 115 158l170 133q94 106 248 256q72 -37 71 -84q0 -39 -204.5 -242t-204.5 -215q0 -29 184 -237q186 -207 187 -230v-55q-25 -31 -58 -31t-127 94q-82 82 -114 127q-102 135 -248 261q-19 34 -19 65zM453 559q0 51 65 107l49.5 38.5t55.5 45.5 q125 133 325 311q72 -53 72 -84q0 -14 -186.5 -198.5t-186.5 -205.5q0 -35 150 -159l184 -156q29 -23 139 -139v-60l-121 -41l-47 60q-35 41 -59 41q-16 0 -27 -8l2 8q0 16 -47 67q-18 18 -63 68q-41 41 -170 152q-135 116 -135 153z" />
<glyph unicode="&#xac;" horiz-adv-x="2146" d="M14 444q0 27 33 60q31 31 64 31l1908 90h4q39 0 76 -27q37 -29 37 -63q0 -18 -39 -109q-33 -76 -49 -119l-55 -192q-45 -113 -140 -117q-2 6 -6 22l-8 33q0 57 68 273q4 16 10 34.5l12 38.5v74q-18 23 -31 23q-18 0 -43 -4q-37 -6 -43 -6.5t-49 12t-53 12.5 q-12 0 -164 -16q-98 -12 -381 -37l-1061 -76h-6q-25 0 -53 18q-31 22 -31 45z" />
<glyph unicode="&#xad;" horiz-adv-x="765" d="M59 422q0 53 60 65q96 20 260 21q39 0 117 4q12 0 61 16q55 18 68 19q31 0 57.5 -53.5t26.5 -81.5q0 -57 -52 -58q-14 0 -89.5 12.5t-90.5 12.5q-133 0 -219 -14q-27 -4 -55.5 -9.5l-45 -8.5t-22.5 -5l-8 -2q0 -2 2 -2q-18 0 -43 31q-27 33 -27 53z" />
<glyph unicode="&#xae;" horiz-adv-x="1566" d="M53 608q0 14 8.5 57.5t8.5 59.5q0 2 -1 8t-2 18.5t-1 24.5q-2 29 -3 51q0 70 60 195q51 113 100 176q106 143 258 209q31 14 205 33q37 4 102 20q59 16 99 17q180 0 329.5 -119t233.5 -330q53 -135 53 -246q0 -143 -43 -290q-49 -172 -129 -261q-51 -57 -178 -106 q-126 -49 -221 -49q-25 0 -178 -13l-181 -14q-18 0 -47 14q-31 16 -45 21q-63 16 -141 47q-119 66 -205 205q-82 133 -82 272zM195 596q0 -41 51 -141q45 -90 78 -129q39 -45 157 -76q31 -10 76 -27q53 -18 74 -18q27 0 121 14q68 10 288 55q-12 6 -231 105 q-152 68 -225 127v-84q0 -90 -70 -90q-27 0 -61 22q-4 57 -4 385q0 90 -5 115q-4 23 -22 49q-23 33 -23 45q0 72 183 144q158 63 247 63q94 0 172 -78t78 -174q0 -90 -139 -235q-59 -49 -129 -125q182 -74 391 -199q162 125 162 399q0 104 -53 252q-57 156 -129 217 q-141 121 -262 121q-22 0 -56 -24q-43 -33 -51 -35q-127 -41 -215 -41q-4 0 -25 18q-25 20 -26 21q-33 0 -125 -82q-72 -66 -109 -115q-57 -76 -90 -229q-28 -127 -28 -250zM555 922q0 -102 29 -383q94 123 157 149q2 0 7.5 1t14.5 3t17 4q170 174 170 234q0 29 -47 63 q-45 33 -88 33q-41 0 -137 -39q-100 -40 -123 -65z" />
<glyph unicode="&#xaf;" horiz-adv-x="1067" d="M53 1735q0 16 31 43q31 25 53 30l187 19l188 16q57 0 199 -10q170 -12 198 -12q47 0 76 -60q41 -88 45 -94q-4 -2 -18.5 -7t-38.5 -18q-39 -18 -57.5 -18t-86.5 12l-243 39q-86 12 -107 13q-22 0 -160 -25q-154 -27 -161 -27q-41 0 -72 31q-33 33 -33 68z" />
<glyph unicode="&#xb0;" horiz-adv-x="806" d="M61 1499q0 70 80 193q78 121 146 149q74 31 194 31q90 0 183 -43q29 -14 63 -82q35 -66 35 -105q0 -2 -1 -9l-3 -20.5t-4 -25.5q-6 -47 -6 -53q0 -33 20 -53q-168 -162 -326 -162q-108 0 -233 74q-8 4 -14 4h-17q-33 0 -47 -15q-70 84 -70 117zM281 1563q0 -47 73 -78 q57 -23 115 -23q45 0 102.5 45t57.5 88q0 51 -47 88q-43 35 -109 35q-37 0 -113 -61q-79 -63 -79 -94z" />
<glyph unicode="&#xb1;" d="M31 119q0 3 55 67h346q14 0 72 15q150 35 201 35q33 0 75.5 -2.5t77.5 -2.5q78 0 119 9q16 -16 16 -45q0 -47 -43 -80l-153 -21l-400 -53q-57 -8 -161 -8q-96 0 -127 6q-78 14 -78 80zM184 655q12 33 56 93q109 4 280 20q29 72 55 125q47 88 82 90q14 -59 15 -160v-49 q18 -10 153 -39q104 -25 129 -65q-31 -57 -69 -58q-10 0 -65.5 6.5t-63.5 6.5q-102 0 -123 -70q-2 -20 -8.5 -67.5t-8.5 -73.5q-10 -86 -94 -111q-20 29 -20 92q0 2 1 10.5t2 22.5t1 29q2 33 2 59q0 57 -19 72q-33 27 -163 26q-95 0 -142 41z" />
<glyph unicode="&#xb2;" horiz-adv-x="1480" d="M66 84v16v13q0 43 18 67q31 43 166 148q145 111 432 356q96 84 360 344q224 224 295 381q-43 45 -96 45q-201 0 -575 -168q-264 -117 -265 -127h2h-53q-29 23 -28 43q0 51 98 88q37 12 135 51q494 217 711 218q80 0 135 -43q51 -43 51 -111q0 -109 -115 -229l-186 -193 q-369 -383 -883 -811v-4q0 -33 49 -45q63 -18 134 -19q4 0 15 1t17 1l596 39h15q74 0 260 -20l18 14l14 -82q-16 0 -119.5 -5l-193.5 -9q-101 -3 -332 -25l-168 -16q-8 0 -45 6q-10 2 -21 4l-16.5 3t-7.5 1t-34 -14q-27 -12 -37 -12q-68 0 -183 30q-118 33 -163 64z" />
<glyph unicode="&#xb3;" horiz-adv-x="1796" d="M72 2q76 70 196 119q154 59 447 135q272 70 442 131q250 90 420 221q-18 55 -164 90q-150 37 -450 70q-229 25 -293 25q-6 0 -23 -7q-18 -6 -22 -6q-123 0 -283 68v57q34 31 55 37l56 12q20 4 77.5 19.5l85.5 23.5q129 37 359 154q266 135 266 201q0 59 -96 59 q-356 0 -719 -96q-27 -8 -109 -39q-86 -33 -98 -33q-57 0 -57 57q0 82 452 154q375 59 570 59q47 0 127 -49q86 -52 86 -98q0 -104 -283 -256l-375 -201q29 -27 260 -47h-2l111 -14q61 -6 129 -14q492 -61 492 -234q0 -41 -105 -115q-66 -47 -143 -86q-299 -139 -926 -290 q-166 -41 -440 -164z" />
<glyph unicode="&#xb4;" horiz-adv-x="868" d="M31 1409q0 49 55 76q35 18 170 82q84 61 178 121l125 61l76 49l76 41q23 4 77 27q59 -37 60 -66q0 -4 -117 -69l-176 -97l-190 -102l-16 -11l-34 -26q-164 -125 -227 -125q-57 0 -57 39z" />
<glyph unicode="&#xb5;" horiz-adv-x="2146" d="M14 500q0 74 215 108q227 37 240 60q23 391 55 546q68 305 262 467q37 31 172 31q334 0 439 -321q125 197 221 272q131 100 324 100q143 0 225 -110q82 -109 82 -301q0 -121 -54 -215q-27 -51 -133 -181l-102 -112q-18 -18 -133 -82q-98 -51 -146 -74q-133 -55 -229 -55 q-27 0 -33 12q-31 -27 -30 -76q0 -10 6 -22q6 -15 6 -19h184q2 0 45 15q41 12 47 12q2 0 42 2t137.5 6t207.5 8l31 -16v-35l-33 -37h2q0 -4 -219 -39q-10 0 -38.5 -4t-84 -10l-108.5 -12q-135 -14 -223 -66v-10q0 -14 12 -111q10 -80 10 -110q0 -131 -96 -144q-14 14 -31 17 q0 2 1 9t1 11q0 35 -47 340q-2 8 -16 8q-20 0 -103 -18q-92 -20 -94 -20q-47 0 -90 43q25 80 141 98q137 18 168 59v64q-20 33 -57 33q-23 0 -154 -21l-270 -37q-86 -12 -133 -43v-18q0 -23 6 -127q4 -70 4 -119q0 -86 -31 -221q-12 -53 -80 -82q-27 29 -26 65q0 35 8 148 t8 145q0 219 -65 219h2q0 -4 -416 -77q-29 24 -29 47zM604 840q0 -27 4 -62q0 -14 1 -28.5t2 -21.5t1 -9q0 -20 -4 -45l649 51l56 301q25 129 24 154q0 57 -30 168q-25 94 -131 165q-102 70 -220 70q-109 0 -231 -180q-23 -35 -59 -223q-2 -14 -12.5 -56.5t-26.5 -113.5 q-23 -109 -23 -170zM1403 752q66 -12 65 -17h-2q29 0 187 41q260 68 338 133q219 176 219 424q0 133 -78 230q-80 98 -190 98q-123 0 -263 -105q-138 -108 -153 -221l-31 -39q-12 -68 -61 -276q-31 -135 -31 -152v-116z" />
<glyph unicode="&#xb6;" horiz-adv-x="1329" d="M66 1106q0 131 84 274q86 147 208 234q43 31 148 74q25 20 90 55q141 57 637 57q80 0 80 -129q0 -68 -72 -354l-26.5 -111.5l-23.5 -98.5l-41 -174l-67 -286q-18 -84 -63 -373l-31 -198q-35 -127 -127 -127q-20 0 -42.5 22.5t-22.5 42.5l3 9q3 8 13 28.5t18 38.5 q37 84 39 96q10 43 52 246l110 604q12 76 96 373q41 158 41 168v45q-61 25 -159 25q-68 0 -97 -17l-84 -430q-4 -20 -61 -434l-80 -504q-33 -229 -33 -356v-4q-20 -8 -45 -8l-53 4q-27 2 -41 2q-12 57 -14 57q0 15 30 147l66 316q2 57 31 266q-29 29 -94 37q-104 14 -107 14 q-131 45 -238 135q-124 111 -124 234zM541 920q0 -16 41 -39q33 -14 59 -19q47 174 107 465q37 190 36 219v60h-47l-108 -45q-72 -29 -88 -66q63 -14 63 -74v-39q0 -18 -14 -112l-37 -260q-12 -80 -12 -90z" />
<glyph unicode="&#xb8;" horiz-adv-x="948" d="M29 -342q0 6 12 43q4 10 7 20.5t5 15.5t2 7l31 -25q6 0 111 -16q70 -10 118 -10q86 0 248 39q197 49 197 100q0 78 -76 125q-49 27 -149 57q-96 27 -123 54q0 8 4 82q6 41 82 174q78 139 108 139q51 0 51 -55q0 -27 -34 -109q-39 -92 -43 -125q35 -23 137 -49 q35 -10 74 -47l65 -60q57 -135 57 -174q0 -225 -362 -250q-2 0 -158 -12q-59 -4 -96 -12q-18 -3 -18 -6h4q-14 0 -113 -8l-113 -11l-28 21v92z" />
<glyph unicode="&#xb9;" horiz-adv-x="536" d="M100 78v2l260 1266h60q29 -57 29 -109q0 -72 -23 -184q-6 -23 -102 -486q-82 -401 -162 -559q-16 8 -41 35q-21 25 -21 35z" />
<glyph unicode="&#xba;" horiz-adv-x="868" d="M70 1645q0 55 80 153q14 0 65 10q45 8 66 9q10 0 30 -7q25 -6 29 -6q12 0 109 31q102 33 108 33q246 0 246 -172q0 -104 -164 -166q-129 -47 -254 -47q-104 0 -195 33q-120 43 -120 129zM367 1624h20q199 0 287 84q-61 31 -84 31q-29 0 -113 -25q-76 -23 -96 -39 q-14 -12 -14 -51z" />
<glyph unicode="&#xbb;" horiz-adv-x="1171" d="M55 178q0 35 237.5 291t237.5 262q0 18 -211 193q-213 176 -213 192q0 25 21 47q22 25 43 25q57 0 428 -293q23 -18 72 -64q55 -68 55 -100.5t-57 -95.5q-37 -41 -84 -88q-180 -223 -328 -316q-20 -29 -63 -67l-107 -33q-31 20 -31 47zM350 4q0 22 31 92q33 74 51 99 q23 27 76 57q51 31 229 248t178 250q0 43 -198 211q-166 139 -205 174q-51 45 -57 67q-2 6 -2 49q0 47 47 78q106 -66 256 -174q61 -78 145 -172l125 -94q84 -72 84 -125q0 -125 -432 -574l-100 -98q-66 -66 -66 -117q0 -20 4 -30q-57 -31 -76 -31q-33 0 -61.5 28.5 t-28.5 61.5z" />
<glyph unicode="&#xbc;" horiz-adv-x="2496" d="M1284 866q0 51 56 138q74 109 84 133l69 178q58 147 80 147v-2l45 -12q0 -6 6 -33q2 -8 4 -17l3 -13.5t1 -6.5q0 -61 -77 -233q-94 -203 -103 -242q141 -72 248 -72h332q104 0 145 29q55 39 76 170q6 43 51 146l103 235q53 117 143 217h43q16 -10 16 -45q0 -18 -26 -47 q-31 -37 -43 -68q-37 -88 -60 -170q-47 -152 -67 -192q-23 -31 -45 -78q-25 -82 -25 -170q0 -18 4 -59q-12 -10 -43 -41q-10 -39 -43 -125q-115 -334 -115 -488q0 -9 -6 -67l-4 -31.5t-3 -24t-1 -10.5q-18 -8 -72 -14q-29 29 -28 139q0 31 6 76q2 8 4 32.5t4 41.5 q8 94 66 268q35 102 34 117v61q-25 25 -63 25q-2 0 -11.5 -2t-29.5 -5t-43 -8q-84 -14 -238 -14q-151 0 -233 19q-100 25 -240 83q-4 25 -4 35zM1700 1798q0 -72 -272 -407l-84 -109q-18 -31 -125 -195q-129 -156 -223 -280q-40 -55 -461 -750l-152 -241q-25 -39 -77 -39 q-39 0 -70 14q-14 20 -14 37q0 8 26 63l16.5 34t11.5 25t3 9q106 94 199 248l165 270q45 96 84 168q2 2 181 225q125 154 129 238q78 63 200 233q108 147 166 265q-10 10 -26 10h-11q2 6 93 90q127 113 194 164q47 -23 47 -72zM100 78v2l260 1266h60q29 -57 29 -109 q0 -72 -23 -184q-6 -23 -102 -486q-82 -401 -162 -559q-16 8 -41 35q-21 25 -21 35z" />
<glyph unicode="&#xbd;" horiz-adv-x="2711" d="M1297 84v16v13q0 43 18 67q31 43 166 148q145 111 432 356q96 84 360 344q224 224 295 381q-43 45 -96 45q-201 0 -575 -168q-264 -117 -265 -127h2h-53q-29 23 -28 43q0 51 98 88q37 12 135 51q494 217 711 218q80 0 135 -43q51 -43 51 -111q0 -109 -115 -229l-186 -193 q-369 -383 -883 -811v-4q0 -33 49 -45q63 -18 134 -19q4 0 15 1t17 1l596 39h15q74 0 260 -20l18 14l14 -82q-16 0 -119.5 -5l-193.5 -9q-101 -3 -332 -25l-168 -16q-8 0 -45 6q-10 2 -21 4l-16.5 3t-7.5 1t-34 -14q-27 -12 -37 -12q-68 0 -183 30q-118 33 -163 64z M1700 1798q0 -72 -272 -407l-84 -109q-18 -31 -125 -195q-129 -156 -223 -280q-40 -55 -461 -750l-152 -241q-25 -39 -77 -39q-39 0 -70 14q-14 20 -14 37q0 8 26 63l16.5 34t11.5 25t3 9q106 94 199 248l165 270q45 96 84 168q2 2 181 225q125 154 129 238q78 63 200 233 q108 147 166 265q-10 10 -26 10h-11q2 6 93 90q127 113 194 164q47 -23 47 -72zM100 78v2l260 1266h60q29 -57 29 -109q0 -72 -23 -184q-6 -23 -102 -486q-82 -401 -162 -559q-16 8 -41 35q-21 25 -21 35z" />
<glyph unicode="&#xbe;" horiz-adv-x="3756" d="M2545 866q0 51 56 138q74 109 84 133l69 178q58 147 80 147v-2l45 -12q0 -6 6 -33q2 -8 4 -17l3 -13.5t1 -6.5q0 -61 -77 -233q-94 -203 -103 -242q141 -72 248 -72h332q104 0 145 29q55 39 76 170q6 43 51 146l103 235q53 117 143 217h43q16 -10 16 -45q0 -18 -26 -47 q-31 -37 -43 -68q-37 -88 -60 -170q-47 -152 -67 -192q-23 -31 -45 -78q-25 -82 -25 -170q0 -18 4 -59q-12 -10 -43 -41q-10 -39 -43 -125q-115 -334 -115 -488q0 -9 -6 -67l-4 -31.5t-3 -24t-1 -10.5q-18 -8 -72 -14q-29 29 -28 139q0 31 6 76q2 8 4 32.5t4 41.5 q8 94 66 268q35 102 34 117v61q-25 25 -63 25q-2 0 -11.5 -2t-29.5 -5t-43 -8q-84 -14 -238 -14q-151 0 -233 19q-100 25 -240 83q-4 25 -4 35zM2961 1798q0 -72 -272 -407l-84 -109q-18 -31 -125 -195q-129 -156 -223 -280q-40 -55 -461 -750l-152 -241q-25 -39 -77 -39 q-39 0 -70 14q-14 20 -14 37q0 8 26 63l16.5 34t11.5 25t3 9q106 94 199 248l165 270q45 96 84 168q2 2 181 225q125 154 129 238q78 63 200 233q108 147 166 265q-10 10 -26 10h-11q2 6 93 90q127 113 194 164q47 -23 47 -72zM72 2q76 70 196 119q154 59 447 135 q272 70 442 131q250 90 420 221q-18 55 -164 90q-150 37 -450 70q-229 25 -293 25q-6 0 -23 -7q-18 -6 -22 -6q-123 0 -283 68v57q34 31 55 37l56 12q20 4 77.5 19.5l85.5 23.5q129 37 359 154q266 135 266 201q0 59 -96 59q-356 0 -719 -96q-27 -8 -109 -39 q-86 -33 -98 -33q-57 0 -57 57q0 82 452 154q375 59 570 59q47 0 127 -49q86 -52 86 -98q0 -104 -283 -256l-375 -201q29 -27 260 -47h-2l111 -14q61 -6 129 -14q492 -61 492 -234q0 -41 -105 -115q-66 -47 -143 -86q-299 -139 -926 -290q-166 -41 -440 -164z" />
<glyph unicode="&#xbf;" horiz-adv-x="1527" d="M98 166q0 172 226 283l370 141q145 57 373 78q158 16 168 20q29 12 31 84q0 4 3 30.5t5 69.5l35 191q4 39 24 180q18 104 82 162q59 -25 60 -64q0 -10 -19 -53q-16 -39 -16 -45q-10 -98 -27 -244q-27 -203 -33 -401q-39 -20 -143 -31q-70 -4 -154 -14q-76 -12 -295 -51 q-14 -2 -116 -43q-432 -174 -432 -289q0 -127 321 -127q131 0 463 66q188 37 199 36q37 0 108 -26q-4 -37 -26 -60q-227 -51 -549 -116q-203 -41 -228 -41q-137 0 -270 63q-160 76 -160 201zM1384 1714q0 29 23 62q20 29 47 28q45 0 76 -28q35 -29 35 -68t-56 -94h-39 q-23 0 -55 39q-31 36 -31 61z" />
<glyph unicode="&#xc0;" horiz-adv-x="1255" d="M70 -35q0 152 75 326q8 12 56 94l149 322q176 383 338 659v-27q41 18 60 99q18 70 53 69q2 2 8 2q25 0 37 -36q0 -2 3 -13.5t8 -35t11 -48.5q86 -362 156 -725l47 -252q12 -23 45 -102q20 -70 39 -158q29 -131 29 -157q0 -57 -74 -58q-23 0 -39 4q-272 279 -528 279 q-55 0 -240 -47q-55 -14 -98 -97q-41 -94 -58 -137q-18 -12 -51 -28q-26 26 -26 67zM307 315q0 -27 15 -26l227 10q4 0 14 1t15 1q119 0 223 -43q78 -33 223 -135v47q0 41 -45 279l-78 419q-35 188 -119 410q-100 -109 -278 -522l-53 -127q-8 -10 -19.5 -28.5t-15.5 -22.5 q-14 -20 -62 -134q-47 -117 -47 -129zM479 1831q0 27 6.5 33t36.5 6q45 0 146 -60q225 -133 422 -262l10 -12q0 -10 -21 -29q-33 -29 -63 -28q-20 0 -74 26l-78 39q-63 33 -170 111q-98 74 -176 96q-39 47 -39 80z" />
<glyph unicode="&#xc1;" horiz-adv-x="1255" d="M70 -35q0 152 75 326q8 12 56 94l149 322q176 383 338 659v-27q41 18 60 99q18 70 53 69q2 2 8 2q25 0 37 -36q0 -2 3 -13.5t8 -35t11 -48.5q86 -362 156 -725l47 -252q12 -23 45 -102q20 -70 39 -158q29 -131 29 -157q0 -57 -74 -58q-23 0 -39 4q-272 279 -528 279 q-55 0 -240 -47q-55 -14 -98 -97q-41 -94 -58 -137q-18 -12 -51 -28q-26 26 -26 67zM307 315q0 -27 15 -26l227 10q4 0 14 1t15 1q119 0 223 -43q78 -33 223 -135v47q0 41 -45 279l-78 419q-35 188 -119 410q-100 -109 -278 -522l-53 -127q-8 -10 -19.5 -28.5t-15.5 -22.5 q-14 -20 -62 -134q-47 -117 -47 -129zM317 1409q0 49 56 76q35 18 170 82q74 53 180 121l125 61l74 49l75 41q18 4 78 27q59 -37 60 -66q0 -4 -115 -69l-178 -97l-191 -102l-15 -11l-34 -26q-164 -125 -225 -125q-60 0 -60 39z" />
<glyph unicode="&#xc2;" horiz-adv-x="1255" d="M70 -35q0 152 75 326q8 12 56 94l149 322q176 383 338 659v-27q41 18 60 99q18 70 53 69q2 2 8 2q25 0 37 -36q0 -2 3 -13.5t8 -35t11 -48.5q86 -362 156 -725l47 -252q12 -23 45 -102q20 -70 39 -158q29 -131 29 -157q0 -57 -74 -58q-23 0 -39 4q-272 279 -528 279 q-55 0 -240 -47q-55 -14 -98 -97q-41 -94 -58 -137q-18 -12 -51 -28q-26 26 -26 67zM307 315q0 -27 15 -26l227 10q4 0 14 1t15 1q119 0 223 -43q78 -33 223 -135v47q0 41 -45 279l-78 419q-35 188 -119 410q-100 -109 -278 -522l-53 -127q-8 -10 -19.5 -28.5t-15.5 -22.5 q-14 -20 -62 -134q-47 -117 -47 -129zM492 1522q0 18 36 39q47 27 54 32q18 18 71 82q16 16 52 37q51 29 57 35q8 6 33 45q18 29 28 39q20 18 58 18q45 0 65 -32l92 -138q61 -84 115 -125q4 -8 4 -20q0 -47 -55 -47q-18 0 -35 8q-18 31 -66 61q-2 4 -9 14.5l-20.5 32 l-27.5 42.5q-47 78 -78 77q-6 0 -157 -120q-156 -121 -166 -121q-16 0 -33 14q-18 17 -18 27z" />
<glyph unicode="&#xc3;" horiz-adv-x="1255" d="M72 -35q0 157 73 326q18 27 58 94l147 322q176 383 338 659v-27q41 18 60 99q18 70 53 69q2 2 8 2q25 0 37 -36q0 -2 3 -13.5t8 -35t11 -48.5q86 -362 156 -725l47 -252q20 -39 47 -102q12 -39 37 -158q29 -131 29 -157q0 -57 -74 -58q-23 0 -39 4q-272 279 -528 279 q-55 0 -240 -47q-55 -14 -98 -97q-41 -94 -58 -137q-18 -12 -51 -28q-24 24 -24 67zM256 1589q0 55 127 162q131 109 188 109q10 0 195 -103q188 -102 190 -102q43 0 45 2q8 4 46 14h2q10 0 20 8q18 12 41 19q10 10 90 74q72 57 90 57q51 0 51 -55q0 -47 -104 -127 q-78 -57 -156 -91q-86 -35 -196 -34q0 2 -133.5 98t-184.5 96q-43 0 -149 -92l-107 -90q-20 0 -39 18q-16 17 -16 37zM309 315q0 -27 13 -26l227 10q4 0 14 1t15 1q119 0 223 -43q74 -31 225 -135v47q0 41 -45 279l-80 419q-35 188 -119 410q-101 -111 -276 -522l-55 -127 l-33 -51q-14 -20 -62 -134q-47 -109 -47 -129z" />
<glyph unicode="&#xc4;" horiz-adv-x="1255" d="M70 -35q0 152 75 326q8 12 56 94l149 322q176 383 338 659v-27q41 18 60 99q18 70 53 69q2 2 8 2q25 0 37 -36q0 -2 3 -13.5t8 -35t11 -48.5q86 -362 156 -725l47 -252q12 -23 45 -102q20 -70 39 -158q29 -131 29 -157q0 -57 -74 -58q-23 0 -39 4q-272 279 -528 279 q-55 0 -240 -47q-55 -14 -98 -97q-41 -94 -58 -137q-18 -12 -51 -28q-26 26 -26 67zM307 315q0 -27 15 -26l227 10q4 0 14 1t15 1q119 0 223 -43q78 -33 223 -135v47q0 41 -45 279l-78 419q-35 188 -119 410q-100 -109 -278 -522l-53 -127q-8 -10 -19.5 -28.5t-15.5 -22.5 q-14 -20 -62 -134q-47 -117 -47 -129zM440 1636l35 66l76 47l106 4q43 -41 43 -90q0 -25 -10 -51q-8 -20 -45 -58q-23 -23 -61 -41h-6q-8 0 -25 5q-29 8 -31 8h-10q-6 0 -15.5 -1t-13.5 -1q-23 0 -34 20q-8 10 -9 25q0 2 1 5t1 5zM877 1636v11q2 23 28 39l49 28q33 27 90 60 l107 -45q0 -6 3 -13.5t6 -18.5t5 -20l9 -24h2q-15 -49 -62 -86q-55 -43 -102 -43h-6q-51 4 -88 39l-27 32q-14 16 -14 41z" />
<glyph unicode="&#xc5;" horiz-adv-x="1255" d="M70 -35q0 152 75 326q8 12 56 94l149 322q176 383 338 659v-27q41 18 60 99q18 70 53 69q2 2 8 2q25 0 37 -36q0 -2 3 -13.5t8 -35t11 -48.5q86 -362 156 -725l47 -252q12 -23 45 -102q20 -70 39 -158q29 -131 29 -157q0 -57 -74 -58q-23 0 -39 4q-272 279 -528 279 q-55 0 -240 -47q-55 -14 -98 -97q-41 -94 -58 -137q-18 -12 -51 -28q-26 26 -26 67zM307 315q0 -27 15 -26l227 10q4 0 14 1t15 1q119 0 223 -43q78 -33 223 -135v47q0 41 -45 279l-78 419q-35 188 -119 410q-100 -109 -278 -522l-53 -127q-8 -10 -19.5 -28.5t-15.5 -22.5 q-14 -20 -62 -134q-47 -117 -47 -129zM573 1608q0 76 80 168t148 92q78 0 145 -31l72 -55l12 -152q0 -10 -20 -33q-4 -4 -11.5 -14t-11.5 -16q-8 -20 -20 -45q-29 -41 -80 -72q-49 -29 -94 -29q-70 0 -111 21q-31 14 -72 74q-37 58 -37 92zM682 1618q0 -23 35 -45 q41 -27 63 -27q47 0 92 35q41 33 41 82q0 53 -30 66q-14 6 -82 6q-33 0 -78 -41q-41 -39 -41 -76z" />
<glyph unicode="&#xc6;" horiz-adv-x="2525" d="M20 55q0 55 68 154l109 143q51 90 178 291q18 43 84 168l450 735q47 158 125 158q4 0 166 -25q147 -23 166 -22q16 0 317.5 -10.5t315.5 -10.5q72 0 119 11q35 4 135 39q92 33 114 32q18 0 76 -35v-12q0 -45 15 -102q-254 -113 -306 -113q-8 0 -38.5 3t-68.5 5l-79 4 l-684 35q-14 2 -39 2q-188 0 -188 -94q0 -12 22 -143l56 -277q25 -117 67 -117q27 0 102.5 8.5t104.5 8.5h649l162 -37q98 -23 98 -109q0 -41 -14 -81q-18 0 -74 18l-57 18l-485 52q-8 0 -58 -7l-27.5 -4l-20.5 -3t-9 -1q-10 0 -39 15q-33 16 -39 16q-63 0 -274 -74v-57 q0 -20 47 -186q47 -164 57 -193q16 -41 55 -41q18 0 35 23q27 8 103 8h909q14 0 124.5 -24.5t127.5 -24.5q14 0 18 2l31 -35v-55q-76 -25 -131 -25q-20 0 -29 2q-201 16 -383 16q-371 0 -588 -26l-145 -35q-98 -27 -135 -27q-63 0 -92 54q-2 2 -33 182l-74 307q-2 14 -10 45 t-19 78q-10 20 -28 41q-55 -9 -258 -25q-164 -12 -250 -43q-23 -10 -62 -63l-57 -78q-94 -123 -313 -526h-84q-15 16 -15 67zM659 862q101 12 191 12q84 0 164 -12v84q0 27 -41 92q6 15 6 37q0 46 -25 117q-33 102 -34 113q-27 -45 -146 -222q-99 -145 -115 -221z" />
<glyph unicode="&#xc7;" horiz-adv-x="1843" d="M59 756q0 -182 45 -291q106 -236 471 -440q72 -39 230 -39q82 0 278 12q231 16 254 25l199 55q8 2 66 18q123 29 186 58l-16 75l-506 -53q-256 -27 -271 -26q-233 0 -350 36q-174 53 -309 191q-158 162 -158 346q0 6 23 90q25 92 32 109q96 246 478 440l196 100 q23 20 51 56l156 53q2 0 34 13l108.5 44l160.5 64q27 29 29 57q-18 4 -55 4q-135 0 -267 -61l-247 -115q-362 -169 -535 -307q-283 -229 -283 -514zM526 -475q0 4 11 29q10 27 10 28l20 -16l72 -10q49 -8 80 -9q59 0 164 27q129 31 129 68q0 51 -49 82q-23 14 -101 36 q-63 18 -80 35q0 31 2 55q3 28 56 117q53 92 71 92q33 0 33 -36q0 -16 -22 -72q-27 -66 -29 -82q23 -16 90 -35q22 -6 49 -31q41 -37 43 -39q39 -90 39 -114q0 -152 -242 -166l-102 -8q-10 0 -61 -8l-17 -5h4q-25 0 -73 -6q-53 -4 -76 -6l-21 12v62z" />
<glyph unicode="&#xc8;" horiz-adv-x="1134" d="M61 147q0 27 21 172q28 200 49 332q-27 20 -27 64q0 12 2 26v29q94 29 103 381q-53 27 -146 86v70q23 33 68 34q78 6 82 9q10 4 37 32q27 27 41 27q8 0 41 -12q10 -4 20 -7.5l15.5 -5.5t7.5 -2l225 25q76 8 383 31q6 0 61.5 16t59.5 16t10 -1t18.5 -2t22.5 -1l47 -6 q90 -4 191 -4l12 -31q-35 -14 -86 -51q-16 2 -53 2q-144 0 -455 -49l-186 -31q-9 0 -62 7q-51 6 -59 6q-43 0 -105 -25q-72 -29 -86 -59q-25 -55 -39 -168q-14 -100 -14 -178q0 -8 19 -58q164 25 200 25h467v-74q-31 -4 -123 -4q-57 0 -116 2h-119q-76 0 -187 -45 q-8 -2 -102 -20q-63 -12 -86 -54q-37 -335 -37 -473q29 -35 57 -41l132 -26q37 0 139 8q166 14 409 14q37 0 91 -4l40 -2q27 -6 27 -25v-41q-51 -23 -186 -22q-25 0 -66 -14l-45 -17q-16 0 -67 8q-66 8 -68 9h-4l-14 -2q-49 -3 -215 -25q-27 -4 -53.5 -7t-39 -5t-16.5 -2 q-47 0 -137 59q-99 61 -99 104zM379 1815q0 23 6 28q4 4 39 4q51 0 156 -49q231 -111 454 -231l10 -11q0 -10 -20 -24q-37 -27 -70 -27q-22 0 -80 25l-83 35q-86 37 -181 96q-106 68 -188 86q-43 43 -43 68z" />
<glyph unicode="&#xc9;" horiz-adv-x="1134" d="M61 147q0 27 21 172q28 200 49 332q-27 20 -27 64q0 12 2 26v29q94 29 103 381q-53 27 -146 86v70q23 33 68 34q78 6 82 9q10 4 37 32q27 27 41 27q8 0 41 -12q10 -4 20 -7.5l15.5 -5.5t7.5 -2l225 25q76 8 383 31q6 0 61.5 16t59.5 16t10 -1t18.5 -2t22.5 -1l47 -6 q90 -4 191 -4l12 -31q-35 -14 -86 -51q-16 2 -53 2q-144 0 -455 -49l-186 -31q-9 0 -62 7q-51 6 -59 6q-43 0 -105 -25q-72 -29 -86 -59q-25 -55 -39 -168q-14 -100 -14 -178q0 -8 19 -58q164 25 200 25h467v-74q-31 -4 -123 -4q-57 0 -116 2h-119q-76 0 -187 -45 q-8 -2 -102 -20q-63 -12 -86 -54q-37 -335 -37 -473q29 -35 57 -41l132 -26q37 0 139 8q166 14 409 14q37 0 91 -4l40 -2q27 -6 27 -25v-41q-51 -23 -186 -22q-25 0 -66 -14l-45 -17q-16 0 -67 8q-66 8 -68 9h-4l-14 -2q-49 -3 -215 -25q-27 -4 -53.5 -7t-39 -5t-16.5 -2 q-47 0 -137 59q-99 61 -99 104zM387 1485q0 40 49 61l152 70q52 34 160 98l110 51l66 41l67 35q10 0 72 21q51 -27 51 -54q0 -6 -102 -59l-158 -80l-170 -82q-15 -12 -43 -31q-147 -104 -200.5 -104t-53.5 33z" />
<glyph unicode="&#xca;" horiz-adv-x="1134" d="M61 147q0 27 21 172q28 200 49 332q-27 20 -27 64q0 12 2 26v29q94 29 103 381q-53 27 -146 86v70q23 33 68 34q78 6 82 9q10 4 37 32q27 27 41 27q8 0 41 -12q10 -4 20 -7.5l15.5 -5.5t7.5 -2l225 25q76 8 383 31q6 0 61.5 16t59.5 16t10 -1t18.5 -2t22.5 -1l47 -6 q90 -4 191 -4l12 -31q-35 -14 -86 -51q-16 2 -53 2q-144 0 -455 -49l-186 -31q-9 0 -62 7q-51 6 -59 6q-43 0 -105 -25q-72 -29 -86 -59q-25 -55 -39 -168q-14 -100 -14 -178q0 -8 19 -58q164 25 200 25h467v-74q-31 -4 -123 -4q-57 0 -116 2h-119q-76 0 -187 -45 q-8 -2 -102 -20q-63 -12 -86 -54q-37 -335 -37 -473q29 -35 57 -41l132 -26q37 0 139 8q166 14 409 14q37 0 91 -4l40 -2q27 -6 27 -25v-41q-51 -23 -186 -22q-25 0 -66 -14l-45 -17q-16 0 -67 8q-66 8 -68 9h-4l-14 -2q-49 -3 -215 -25q-27 -4 -53.5 -7t-39 -5t-16.5 -2 q-47 0 -137 59q-99 61 -99 104zM301 1569q0 14 45 33q59 25 64 28q12 12 86 72q14 12 59 31l68 28q18 10 41 37q20 27 32 35q25 16 68 16q51 0 80 -28l108 -115q68 -70 135 -109q6 -6 7 -18q0 -41 -70 -41q-20 0 -39 8q-20 27 -78 53q-9 9 -67 74q-61 68 -92 68 q-10 0 -191 -105q-178 -102 -195 -102q-18 0 -40 12q-21 13 -21 23z" />
<glyph unicode="&#xcb;" horiz-adv-x="1134" d="M61 147q0 27 21 172q28 200 49 332q-27 20 -27 64q0 12 2 26v29q94 29 103 381q-53 27 -146 86v70q23 33 68 34q78 6 82 9q10 4 37 32q27 27 41 27q8 0 41 -12q10 -4 20 -7.5l15.5 -5.5t7.5 -2l225 25q76 8 383 31q6 0 61.5 16t59.5 16t10 -1t18.5 -2t22.5 -1l47 -6 q90 -4 191 -4l12 -31q-35 -14 -86 -51q-16 2 -53 2q-144 0 -455 -49l-186 -31q-9 0 -62 7q-51 6 -59 6q-43 0 -105 -25q-72 -29 -86 -59q-25 -55 -39 -168q-14 -100 -14 -178q0 -8 19 -58q164 25 200 25h467v-74q-31 -4 -123 -4q-57 0 -116 2h-119q-76 0 -187 -45 q-8 -2 -102 -20q-63 -12 -86 -54q-37 -335 -37 -473q29 -35 57 -41l132 -26q37 0 139 8q166 14 409 14q37 0 91 -4l40 -2q27 -6 27 -25v-41q-51 -23 -186 -22q-25 0 -66 -14l-45 -17q-16 0 -67 8q-66 8 -68 9h-4l-14 -2q-49 -3 -215 -25q-27 -4 -53.5 -7t-39 -5t-16.5 -2 q-47 0 -137 59q-99 61 -99 104zM352 1565v10v59l35 64l76 47l106 6q41 -39 41 -92q0 -25 -10 -51q-10 -25 -43 -58q-18 -18 -61 -39l-4 -1l-5 -1q-6 0 -22 4q-29 8 -33 9h-14h-25q-23 0 -33 18q-8 11 -8 25zM788 1632v10q2 25 27 39q27 14 49 29q16 12 92 59l107 -45 q2 -18 14 -49q0 -10 8 -26h2q-16 -47 -61 -84q-57 -45 -102 -45h-6q-49 2 -89 41l-26 32q-15 14 -15 39z" />
<glyph unicode="&#xcc;" horiz-adv-x="552" d="M20 1562.5q0 18.5 7 22.5q8 4 28 4q39 0 121 -41q205 -102 350 -186l9 -6q0 -10 -17 -23q-27 -20 -53 -20q-15 0 -62 18l-63 29q-59 25 -141 78q-78 51 -146 67q-33 39 -33 57.5zM74 248q0 23 22 221q29 276 66 449q39 193 104 329h35q27 -23 27 -53l-58 -248 q-113 -496 -112 -878v-39q-16 -4 -27 -15q-57 66 -57 234z" />
<glyph unicode="&#xcd;" horiz-adv-x="839" d="M-4 1247q0 46 55 74l170 84q55 41 180 119l125 61l74 49l76 43q23 4 80 27q55 -35 55 -68q0 -6 -113 -69l-178 -97l-190 -102q-8 -8 -49 -37q-164 -125 -226 -125q-59 0 -59 41zM270 233q0 23 23 222q29 276 65 448q41 199 105 332h37q23 -20 22 -53l-55 -248 q-115 -508 -115 -885v-35q-14 -4 -24 -14q-58 65 -58 233z" />
<glyph unicode="&#xce;" horiz-adv-x="706" d="M20 1282q0 16 37 39q47 27 56 35q18 18 71 82q12 15 49 37q49 29 58 32q12 12 33 45q18 29 28 39q23 20 60 21q45 0 65 -33l90 -137q55 -82 115 -125q4 -8 4 -21q0 -49 -55 -49q-12 0 -33 10q-14 31 -66 62q-6 8 -57 88q-53 78 -80 78q-2 0 -157 -121 q-158 -123 -164 -123q-18 0 -35 14q-19 15 -19 27zM160 248q0 39 20 221q34 286 68 449q41 201 102 329h37q25 -23 25 -53l-56 -248q-113 -496 -112 -878v-39q-16 -4 -27 -15q-57 66 -57 234z" />
<glyph unicode="&#xcf;" horiz-adv-x="778" d="M16 1456l35 64l76 47l106 6q43 -40 43 -92q0 -25 -10 -51q-8 -20 -45 -58q-16 -16 -61 -39l-4 -1l-4 -1q-10 0 -23 6q-23 6 -33 6h-12q-18 0 -27 -2q-20 2 -32 23q-8 16 -9 25v8v59zM174 231q0 25 23 224q37 309 65 446q35 188 105 334h36q25 -22 25 -55l-57 -248 q-113 -496 -113 -879v-41q-12 0 -25 -12q-59 69 -59 231zM453 1454v10q4 25 28 41l47 29q20 14 93 57l106 -45q6 -35 12 -49q0 -2 4.5 -11t6.5 -16h2q-18 -49 -62 -86q-55 -43 -104 -43h-4q-53 4 -88 41l-27 33q-14 16 -14 39z" />
<glyph unicode="&#xd1;" horiz-adv-x="1478" d="M53 45v66q0 10 260 454l301 510h39q84 -152 172 -561q49 -229 103 -336h2q6 0 14 -8q272 272 623 936q33 59 119 229l47 95q8 14 45 36q37 -25 37 -47q0 -59 -183 -389q-121 -219 -233 -403q-98 -158 -248 -361q-129 -178 -260 -254q-18 8 -33 23q0 2 -10 46l-37 159.5 l-55 234.5q-59 258 -150 422l-506 -864q-12 12 -43 12h-4zM664 1509q0 55 129 164q131 109 188 109q6 0 193 -105q184 -102 192 -102q41 0 45 4q6 4 45 14h2q10 0 21 9q18 12 39 18l11 8l33.5 25.5l49.5 38.5q72 57 88 57q51 0 51 -55q0 -45 -106 -125q-86 -65 -154 -92 q-86 -35 -197 -35q0 2 -133 98q-137 98 -184 98q-43 0 -150 -92l-106 -92q-20 0 -39 19q-18 16 -18 36z" />
<glyph unicode="&#xd2;" horiz-adv-x="1730" d="M59 326q0 117 86 254q78 125 181 202q45 33 135 131q80 90 139 125q63 41 268 88q190 43 283 43q223 0 412 -82q246 -104 245 -290q0 -28 -30 -123q-31 -83 -49 -123q-100 -197 -312 -338q-129 -86 -389 -164q-270 -82 -410 -82h-110q-137 0 -289 109q-160 117 -160 250z M143 358q0 -84 121 -188q117 -102 219 -102q6 0 17 2l14 2q4 0 35 -11q25 -8 33 -8q25 0 147 17q74 8 191 28q14 8 84 33q256 78 440 211q231 168 285 379q16 66 18 65q0 66 -39 105q-174 180 -379 180q-12 0 -26.5 -2t-24.5 -2q-4 0 -31 10q-23 8 -28 8q-8 0 -52 -6l-23 -4 t-17.5 -3t-8.5 -1q-90 0 -284 -47q-43 -8 -101 -25q-61 -20 -80 -53l-16 -53q-164 -113 -182 -127q-92 -80 -129 -178q-2 -2 -9 -82q-6 -49 -41 -64q-33 47 -43 95q-90 -152 -90 -179zM590 1583.5q0 24.5 6 30.5q9 6 43 6q57 0 170 -55q283 -133 500 -248l12 -10 q0 -10 -23 -29q-39 -29 -77 -29q-16 0 -86 27l-93 37q-104 43 -198 102q-121 74 -207 92q-47 52 -47 76.5z" />
<glyph unicode="&#xd3;" horiz-adv-x="1730" d="M59 326q0 117 86 254q78 125 181 202q45 33 135 131q80 90 139 125q63 41 268 88q190 43 283 43q223 0 412 -82q246 -104 245 -290q0 -28 -30 -123q-31 -83 -49 -123q-100 -197 -312 -338q-129 -86 -389 -164q-270 -82 -410 -82h-110q-137 0 -289 109q-160 117 -160 250z M143 358q0 -84 121 -188q117 -102 219 -102q6 0 17 2l14 2q4 0 35 -11q25 -8 33 -8q25 0 147 17q74 8 191 28q14 8 84 33q256 78 440 211q231 168 285 379q16 66 18 65q0 66 -39 105q-174 180 -379 180q-12 0 -26.5 -2t-24.5 -2q-4 0 -31 10q-23 8 -28 8q-8 0 -52 -6l-23 -4 t-17.5 -3t-8.5 -1q-90 0 -284 -47q-43 -8 -101 -25q-61 -20 -80 -53l-16 -53q-164 -113 -182 -127q-92 -80 -129 -178q-2 -2 -9 -82q-6 -49 -41 -64q-33 47 -43 95q-90 -152 -90 -179zM510 1196q0 46 55 74q55 29 168 82q74 53 180 121l125 61l74 49l78 43q14 2 78 25 q57 -37 57 -66q0 -4 -115 -69l-178 -97l-190 -102q-12 -12 -47 -37q-164 -125 -228 -125q-57 0 -57 41z" />
<glyph unicode="&#xd4;" horiz-adv-x="1730" d="M59 326q0 117 86 254q78 125 181 202q45 33 135 131q80 90 139 125q63 41 268 88q190 43 283 43q223 0 412 -82q246 -104 245 -290q0 -28 -30 -123q-31 -83 -49 -123q-100 -197 -312 -338q-129 -86 -389 -164q-270 -82 -410 -82h-110q-137 0 -289 109q-160 117 -160 250z M143 358q0 -84 121 -188q117 -102 219 -102q6 0 17 2l14 2q4 0 35 -11q25 -8 33 -8q25 0 147 17q74 8 191 28q14 8 84 33q256 78 440 211q231 168 285 379q16 66 18 65q0 66 -39 105q-174 180 -379 180q-12 0 -26.5 -2t-24.5 -2q-4 0 -31 10q-23 8 -28 8q-8 0 -52 -6l-23 -4 t-17.5 -3t-8.5 -1q-90 0 -284 -47q-43 -8 -101 -25q-61 -20 -80 -53l-16 -53q-164 -113 -182 -127q-92 -80 -129 -178q-2 -2 -9 -82q-6 -49 -41 -64q-33 47 -43 95q-90 -152 -90 -179zM594 1288q0 18 61 45q74 31 88 41q8 8 117 103q27 23 82 45q84 35 94 43q18 10 56 51 q27 33 47 49q43 27 94 27q72 0 108 -43l152 -166q86 -94 188 -156q6 -6 7 -24q0 -59 -93 -60q-27 0 -57 12q-25 37 -106 76q-4 0 -93 107q-84 96 -129 96q-12 0 -262 -150q-246 -147 -270 -147q-31 0 -55 16q-29 19 -29 35z" />
<glyph unicode="&#xd5;" horiz-adv-x="1730" d="M59 326q0 117 86 254q78 125 181 202q45 33 135 131q80 90 139 125q63 41 268 88q190 43 283 43q223 0 412 -82q246 -104 245 -290q0 -28 -30 -123q-31 -83 -49 -123q-100 -197 -312 -338q-129 -86 -389 -164q-270 -82 -410 -82h-110q-137 0 -289 109q-160 117 -160 250z M143 358q0 -84 121 -188q117 -102 219 -102q6 0 17 2l14 2q4 0 35 -11q25 -8 33 -8q25 0 147 17q74 8 191 28q14 8 84 33q256 78 440 211q231 168 285 379q16 66 18 65q0 66 -39 105q-174 180 -379 180q-12 0 -26.5 -2t-24.5 -2q-4 0 -31 10q-23 8 -28 8q-8 0 -52 -6l-23 -4 t-17.5 -3t-8.5 -1q-90 0 -284 -47q-43 -8 -101 -25q-61 -20 -80 -53l-16 -53q-164 -113 -182 -127q-92 -80 -129 -178q-2 -2 -9 -82q-6 -49 -41 -64q-33 47 -43 95q-90 -152 -90 -179zM559 1337q0 55 129 162q131 109 191 109q2 0 190 -103q184 -102 193 -102q45 0 47 2 q8 4 45 14h2q8 0 18 8q18 12 39 19l10 8q10 8 35 26.5t49 39.5q72 57 88 57q53 0 54 -55q0 -51 -107 -127q-86 -65 -153 -92q-80 -33 -197 -33l-133 96q-137 98 -187 98q-43 0 -147 -92l-109 -92q-18 0 -38 18q-19 19 -19 39z" />
<glyph unicode="&#xd6;" horiz-adv-x="1730" d="M59 326q0 117 86 254q78 125 181 202q45 33 135 131q80 90 139 125q63 41 268 88q190 43 283 43q223 0 412 -82q246 -104 245 -290q0 -28 -30 -123q-31 -83 -49 -123q-100 -197 -312 -338q-129 -86 -389 -164q-270 -82 -410 -82h-110q-137 0 -289 109q-160 117 -160 250z M143 358q0 -84 121 -188q117 -102 219 -102q6 0 17 2l14 2q4 0 35 -11q25 -8 33 -8q25 0 147 17q74 8 191 28q14 8 84 33q256 78 440 211q231 168 285 379q16 66 18 65q0 66 -39 105q-174 180 -379 180q-12 0 -26.5 -2t-24.5 -2q-4 0 -31 10q-23 8 -28 8q-8 0 -52 -6l-23 -4 t-17.5 -3t-8.5 -1q-90 0 -284 -47q-43 -8 -101 -25q-61 -20 -80 -53l-16 -53q-164 -113 -182 -127q-92 -80 -129 -178q-2 -2 -9 -82q-6 -49 -41 -64q-33 47 -43 95q-90 -152 -90 -179zM715 1442l35 61l73 49l109 4q43 -40 43 -92q0 -31 -10 -51q-8 -18 -45 -55 q-16 -18 -64 -41h-6q-14 0 -23 4q-22 6 -30 6q-2 0 -8.5 1t-10.5 1q-14 0 -20 -2q-20 0 -35 21q-8 16 -8 22q0 2 1 5t1 5zM1151 1442v8q2 25 27 39l49 29l92 59l104 -45q2 -8 6.5 -20.5l10.5 -30.5q0 -2 3 -11.5l5 -15.5h2q-14 -47 -61 -84q-55 -45 -105 -45h-4 q-49 2 -88 41l-27 33q-14 16 -14 43z" />
<glyph unicode="&#xd8;" horiz-adv-x="1605" d="M47 682q45 35 45 51q0 2 -10 19q-8 14 -8 18q0 158 274 309q199 111 422 168q25 6 64 6h30h33q6 0 154 -20q133 -18 151 -19q33 0 164 91l129 90h107q0 -2 14 -76q-178 -115 -234 -164q182 -182 183 -397q0 -94 -29 -178l-57 -170q-70 -217 -240 -283q-70 -27 -207 -59 q-141 -35 -207 -35q-8 0 -51 12t-51 12q-6 0 -32.5 -6t-33.5 -6q-10 0 -135 33q-117 31 -135 31q-66 0 -151 -242h-58q-2 16 -41 55q102 199 103 246q0 16 -47 76l-14.5 15t-19 23.5t-32.5 39.5q-45 66 -53 147v162q0 2 -13 26zM201 541q0 -72 45 -146q29 -43 94 -67 q127 190 342 395l381 356q-123 31 -162 31q0 2 -131 -16l-49 -70q-129 -2 -252 -59q-117 -53 -170 -146q-23 -39 -37 -96q-2 -8 -37 -90q-24 -55 -24 -92zM459 283q0 -49 159 -82q129 -27 207 -27q45 0 176 27q119 23 173 41q94 31 174 204q74 164 73 312q0 80 -41 172 q-49 104 -118 104q-57 0 -430 -348t-373 -403z" />
<glyph unicode="&#xd9;" horiz-adv-x="1742" d="M43 627q0 113 47 247q55 158 143 199q31 14 54 14q12 0 12 -24q-2 0 -129 -256q-33 -68 -33 -191q0 -174 135 -342q144 -178 314 -178h45q172 0 387 103q201 98 330 229q80 80 145 207q45 90 78 166q33 104 33 223q0 100 -50 119q-2 6 -2 14q0 61 39 62l17 -5 q70 -29 69 -200q0 -57 -69 -299q-35 -123 -109 -232q-139 -201 -403 -348q-260 -143 -496 -143q-96 0 -217 69q-106 57 -180 142q-20 25 -60 94q-4 2 -34 43l-13 43q-53 166 -53 244zM520 1606q0 27 6 32q4 4 41 4q57 0 162 -53l477 -250l11 -10q0 -10 -23 -29 q-35 -27 -72 -26q-20 0 -84 24l-86 37q-86 39 -188 105q-115 74 -199 92q-45 47 -45 74z" />
<glyph unicode="&#xda;" horiz-adv-x="1742" d="M43 627q0 113 47 247q55 158 143 199q31 14 54 14q12 0 12 -24q-2 0 -129 -256q-33 -68 -33 -191q0 -174 135 -342q144 -178 314 -178h45q172 0 387 103q201 98 330 229q80 80 145 207q45 90 78 166q33 104 33 223q0 100 -50 119q-2 6 -2 14q0 61 39 62l17 -5 q70 -29 69 -200q0 -57 -69 -299q-35 -123 -109 -232q-139 -201 -403 -348q-260 -143 -496 -143q-96 0 -217 69q-106 57 -180 142q-20 25 -60 94q-4 2 -34 43l-13 43q-53 166 -53 244zM496 1210q0 45 55 76l170 82q84 61 178 121l125 61l76 49l76 43q14 2 77 25 q59 -37 60 -65q0 -4 -117 -70l-176 -96l-191 -103q-6 -6 -23.5 -17t-25.5 -20q-164 -125 -225 -125q-59 0 -59 39z" />
<glyph unicode="&#xdb;" horiz-adv-x="1742" d="M43 627q0 113 47 247q55 158 143 199q31 14 54 14q12 0 12 -24q-2 0 -129 -256q-33 -68 -33 -191q0 -174 135 -342q144 -178 314 -178h45q172 0 387 103q201 98 330 229q80 80 145 207q45 90 78 166q33 104 33 223q0 100 -50 119q-2 6 -2 14q0 61 39 62l17 -5 q70 -29 69 -200q0 -57 -69 -299q-35 -123 -109 -232q-139 -201 -403 -348q-260 -143 -496 -143q-96 0 -217 69q-106 57 -180 142q-20 25 -60 94q-4 2 -34 43l-13 43q-53 166 -53 244zM381 1335q0 16 57 37q68 25 82 35l109 84q23 16 76 37q74 29 88 35q25 16 49 43 q27 31 45 39q35 20 88 20q66 0 100 -35l139 -135q86 -84 175 -127q6 -6 6 -20q0 -49 -86 -50q-20 0 -52 11q-20 29 -100 61l-86 88q-76 78 -119 78q-14 0 -243 -121q-233 -123 -250 -123q-25 0 -51.5 14.5t-26.5 28.5z" />
<glyph unicode="&#xdc;" horiz-adv-x="1742" d="M43 627q0 113 47 247q55 158 143 199q31 14 54 14q12 0 12 -24q-2 0 -129 -256q-33 -68 -33 -191q0 -174 135 -342q144 -178 314 -178h45q172 0 387 103q201 98 330 229q80 80 145 207q45 90 78 166q33 104 33 223q0 100 -50 119q-2 6 -2 14q0 61 39 62l17 -5 q70 -29 69 -200q0 -57 -69 -299q-35 -123 -109 -232q-139 -201 -403 -348q-260 -143 -496 -143q-96 0 -217 69q-106 57 -180 142q-20 25 -60 94q-4 2 -34 43l-13 43q-53 166 -53 244zM578 1462l34 64l74 49l109 4q43 -39 43 -90q0 -29 -13 -53q-10 -25 -43 -58 q-18 -18 -61 -39h-8q-8 0 -25 4q-22 6 -31 7h-10h-29q-18 0 -32 20q-8 12 -8 23v10v59zM1012 1462q0 2 1 5l1 3q4 27 26 41q12 8 24.5 14.5t25.5 12.5q27 23 92 59l104 -43q0 -6 3 -13t6 -18.5l5 -19.5l9 -24h2q-14 -47 -60 -86q-57 -45 -104 -45h-4q-53 4 -88 41l-29 32 q-14 16 -14 41z" />
<glyph unicode="&#xdd;" horiz-adv-x="1044" d="M129 1835q0 49 55 76q35 18 170 82q84 61 178 121l125 61l76 49l76 41q23 4 77 27q59 -37 60 -66q0 -4 -117 -69l-176 -97l-190 -102l-16 -11l-34 -26q-164 -125 -227 -125q-57 0 -57 39zM113 1475q0 145 57 200q18 -10 41 -30v-60q0 -414 172 -414q190 0 510 197 l483 303h45q12 -63 17 -63v4q0 -37 -131 -142l-168 -133l-99 -98l-227 -321q-178 -255 -362 -603q-40 -74 -56 -122q-6 -27 -41 -144q-22 -77 -80 -123h-65q-31 25 -31 72q0 37 144 324q80 160 245 436l254 432q-61 -12 -225 -78q-141 -55 -225 -55q-139 0 -207 147 q-51 109 -51 271z" />
<glyph unicode="&#xdf;" horiz-adv-x="1163" d="M41 -2l16 49q18 51 19 84q0 16 -6 90q-4 49 -4 88v359q0 18 8 43l12 37q31 203 31 536q0 249 37 387q20 78 206 144q160 53 265 53h-2q0 -2 143 -41q92 -27 170 -127q76 -96 76 -199q0 -156 -115 -280q-47 -53 -209 -170q-113 -80 -113 -136q0 -31 93 -92 q14 -10 29.5 -22.5t33.5 -24.5l242 -153q31 -20 84 -107q53 -84 53 -119q0 -53 -70 -135q-57 -63 -116 -102q-18 -6 -99 -41q-43 -43 -110 -94q-141 -92 -254 -152h-51q-29 18 -29 41q0 37 287 256q283 219 282 233q0 78 -96 138l-156 92q-270 172 -270 301q0 43 225 268 q225 229 226 279q0 106 -82 176q-78 66 -209 65q-82 0 -174 -28q-109 -37 -140 -92q-37 -70 -36 -299q0 -29 2 -70q0 -16 1 -33.5t2 -26t1 -12.5q0 -43 -45 -473l-25 -223q0 -16 25 -139q23 -129 22 -144q0 -12 -10 -45t-10 -51q0 -27 4 -61q6 -53 6 -60q-12 0 -51 -16 q-43 -18 -51 -19q-23 0 -45.5 22.5t-22.5 45.5z" />
<glyph unicode="&#xe0;" d="M47 141q0 111 244 258q227 141 348 142q51 0 90 -58v-43q-23 -29 -47 -28q-2 0 -33 12t-37 12q-39 0 -182 -82q-135 -76 -182 -114q-47 -41 -60 -90q33 -33 84 -33q27 0 240 82q217 84 260 84q70 0 96 -33q20 -31 52 -90q37 -66 79 -113v-45q-23 -29 -47 -29 q-14 0 -106 97q-92 98 -123 98l-219 -84q-227 -84 -285 -84q-49 0 -110.5 49t-61.5 92zM187 989q0 31 8 37q6 6 39 6q49 0 160 -64q268 -158 467 -290l10 -15q0 -10 -21 -30q-33 -33 -71 -33q-20 0 -82 31l-86 43q-88 45 -187 120q-113 88 -194 109q-43 55 -43 86z" />
<glyph unicode="&#xe1;" d="M47 141q0 111 244 258q227 141 348 142q51 0 90 -58v-43q-23 -29 -47 -28q-2 0 -33 12t-37 12q-39 0 -182 -82q-135 -76 -182 -114q-47 -41 -60 -90q33 -33 84 -33q27 0 240 82q217 84 260 84q70 0 96 -33q20 -31 52 -90q37 -66 79 -113v-45q-23 -29 -47 -29 q-14 0 -106 97q-92 98 -123 98l-219 -84q-227 -84 -285 -84q-49 0 -110.5 49t-61.5 92zM162 614q0 49 55 76q35 18 170 82q84 61 178 121l125 61l76 49l76 41q23 4 77 27q59 -37 60 -66q0 -4 -117 -69l-176 -97l-190 -102l-16 -11l-34 -26q-164 -125 -227 -125q-57 0 -57 39 z" />
<glyph unicode="&#xe2;" d="M47 141q0 111 244 258q227 141 348 142q51 0 90 -58v-43q-23 -29 -47 -28q-2 0 -33 12t-37 12q-39 0 -182 -82q-135 -76 -182 -114q-47 -41 -60 -90q33 -33 84 -33q27 0 240 82q217 84 260 84q70 0 96 -33q20 -31 52 -90q37 -66 79 -113v-45q-23 -29 -47 -29 q-14 0 -106 97q-92 98 -123 98l-219 -84q-227 -84 -285 -84q-49 0 -110.5 49t-61.5 92zM156 616q0 18 45 39q55 27 63 35l86 84q14 14 60 37q43 20 67 37q23 18 41 43q25 35 35 41q27 20 68 20q51 0 79 -34q16 -25 109 -138q61 -76 137 -129q4 -4 4 -22q0 -47 -67 -47 q-14 0 -39 10q-18 33 -78 61q-14 14 -70 88q-61 80 -92 80q-6 0 -190.5 -123t-196.5 -123q-20 0 -40.5 14.5t-20.5 26.5z" />
<glyph unicode="&#xe3;" d="M47 141q0 111 244 258q227 141 348 142q51 0 90 -58v-43q-23 -29 -47 -28q-2 0 -33 12t-37 12q-39 0 -182 -82q-135 -76 -182 -114q-47 -41 -60 -90q33 -33 84 -33q27 0 240 82q217 84 260 84q70 0 96 -33q20 -31 52 -90q37 -66 79 -113v-45q-23 -29 -47 -29 q-14 0 -106 97q-92 98 -123 98l-219 -84q-227 -84 -285 -84q-49 0 -110.5 49t-61.5 92zM127 676q0 49 96 145q96 94 142 94q2 0 145 -90q141 -92 143 -92q33 0 35 2q20 10 35 15q8 0 16 8q8 6 29 14l8 7q8 7 24.5 23.5t37.5 35.5q53 51 65 51q41 0 41 -49q0 -41 -80 -113 q-65 -55 -116 -80q-61 -31 -148 -31q0 2 -98 89q-104 86 -140 86q-33 0 -112 -82l-80 -82q-16 0 -31 16q-12 15 -12 33z" />
<glyph unicode="&#xe4;" d="M47 141q0 111 244 258q227 141 348 142q51 0 90 -58v-43q-23 -29 -47 -28q-2 0 -33 12t-37 12q-39 0 -182 -82q-135 -76 -182 -114q-47 -41 -60 -90q33 -33 84 -33q27 0 240 82q217 84 260 84q70 0 96 -33q20 -31 52 -90q37 -66 79 -113v-45q-23 -29 -47 -29 q-14 0 -106 97q-92 98 -123 98l-219 -84q-227 -84 -285 -84q-49 0 -110.5 49t-61.5 92zM201 688l1 3q1 3 1 5l-2 60l37 63l74 49l106 4q43 -40 43 -92q0 -23 -10 -49q-8 -23 -43 -57q-20 -20 -62 -41h-8q-6 0 -22 4q-20 6 -33 6h-10h-29q-20 0 -35 21q-8 10 -8 24zM637 756 v10q2 23 29 39l49 28q33 27 90 60l107 -45q4 -23 14 -51q0 -2 3 -11.5l5 -15.5h2q-18 -49 -59 -84q-55 -45 -102 -45h-7q-49 2 -90 43l-26 31q-15 16 -15 41z" />
<glyph unicode="&#xe5;" d="M47 141q0 111 244 258q227 141 348 142q51 0 90 -58v-43q-23 -29 -47 -28q-2 0 -33 12t-37 12q-39 0 -182 -82q-135 -76 -182 -114q-47 -41 -60 -90q33 -33 84 -33q27 0 240 82q217 84 260 84q70 0 96 -33q20 -31 52 -90q37 -66 79 -113v-45q-23 -29 -47 -29 q-14 0 -106 97q-92 98 -123 98l-219 -84q-227 -84 -285 -84q-49 0 -110.5 49t-61.5 92zM283 774q0 78 86 176.5t155 98.5q86 0 154 -33q2 -2 12 -10.5l26.5 -21.5l35.5 -28l14 -157q0 -10 -21 -37l-24 -31q-4 -12 -23 -49q-33 -45 -84 -74q-53 -33 -100 -33q-70 0 -115 23 q-39 20 -75 78q-41 63 -41 98zM397 784q0 -20 39 -49q35 -27 66 -26q53 0 96 36.5t43 83.5q0 59 -33 72q-10 4 -86 4q-39 0 -80 -41q-45 -45 -45 -80z" />
<glyph unicode="&#xe6;" horiz-adv-x="1591" d="M6 715q0 66 57 86q25 10 148 39q121 29 137 28q88 0 385 -192q23 23 88 123q49 76 103 102q113 57 284 57q72 0 140 -116q61 -108 61 -185q0 -92 -125 -163q-82 -45 -242 -91q-141 -39 -159 -57q16 -43 135 -121q115 -76 168 -75h321l43 -44v-45q-213 -66 -303 -65 q-39 0 -143 24q-106 27 -141 43q-31 18 -86 68q-66 55 -84 55h2q0 -6 -138 -100q-150 -104 -180 -104h-84q-100 0 -166 59q-63 57 -63 154q0 95 92 159q43 27 197 88q158 66 186 88q-45 68 -125 115q-150 84 -190 84q-35 0 -258 -90q-60 25 -60 76zM305 166q45 -29 109 -29 q90 0 143 33q45 25 107 113v59h-56q-31 0 -151 -49q-109 -45 -152 -72v-55zM870 522h68q51 0 182 47q137 49 160 84l-23 109q-20 57 -88 57q-4 0 -65 -12q-59 -12 -76 -12q-29 -18 -90 -99q-68 -86 -68 -104v-70z" />
<glyph unicode="&#xe7;" horiz-adv-x="1044" d="M43 244q0 123 170 213q250 135 311 135l127 -14q-12 0 -14 -23q-3 -34 -6 -37q-109 -35 -252 -108q-197 -102 -197 -154q0 -96 244 -125q10 0 24.5 -1t21.5 -2t11 -1h2l502 78l19 -17v-47q-57 -37 -121 -49q-100 -23 -285 -49q-104 -18 -147 -18q-129 0 -252 51 q-158 64 -158 168zM158 -444q0 8 8 26.5t8 26.5l21 -15q2 0 9 -1t24.5 -4t33.5 -5q49 -8 78 -8q43 0 156 27q123 31 122 63q0 51 -45 78q-25 14 -96 37q-63 18 -78 33q0 29 2 51q4 25 54 112q51 88 67 89q33 0 33 -37q0 -20 -20 -70q-27 -61 -29 -78q14 -10 86 -31 q23 -6 47 -30q34 -31 43 -37q35 -84 35 -111q0 -139 -230 -157q-27 0 -100 -7l-57 -8q-14 -4 -15 -4h4q-23 0 -71 -6q-35 -4 -72 -4l-18 10v60z" />
<glyph unicode="&#xe8;" horiz-adv-x="1052" d="M47 324q0 150 131 231q113 72 268 72q133 0 216 -60q80 -58 79 -159q0 -55 -190 -123q-158 -57 -232 -58q-4 0 -9 1t-7 1q0 -12 -22 -34q12 -20 116 -45q95 -25 135 -25h318l121 -19q35 -25 53 -53q-39 -45 -94 -45h-355q-125 0 -274 37q-199 49 -223 123q-31 93 -31 156 zM176 356q0 -27 19 -39h63q37 0 184 58q152 59 170 78q-55 57 -180 57q-84 0 -160 -35q-96 -43 -96 -119zM55 1063q0 31 8 37q6 6 39 6q49 0 160 -64q268 -158 467 -290l10 -15q0 -10 -21 -30q-33 -33 -71 -33q-20 0 -82 31l-86 43q-88 45 -187 120q-113 88 -194 109 q-43 55 -43 86z" />
<glyph unicode="&#xe9;" horiz-adv-x="1052" d="M47 324q0 150 131 231q113 72 268 72q133 0 216 -60q80 -58 79 -159q0 -55 -190 -123q-158 -57 -232 -58q-4 0 -9 1t-7 1q0 -12 -22 -34q12 -20 116 -45q95 -25 135 -25h318l121 -19q35 -25 53 -53q-39 -45 -94 -45h-355q-125 0 -274 37q-199 49 -223 123q-31 93 -31 156 zM176 356q0 -27 19 -39h63q37 0 184 58q152 59 170 78q-55 57 -180 57q-84 0 -160 -35q-96 -43 -96 -119zM4 666q0 49 55 76q35 18 170 82q84 61 178 121l125 61l76 49l76 41q23 4 77 27q59 -37 60 -66q0 -4 -117 -69l-176 -97l-190 -102l-16 -11l-34 -26 q-164 -125 -227 -125q-57 0 -57 39z" />
<glyph unicode="&#xea;" horiz-adv-x="1052" d="M-8 657q0 18 45 39q55 27 63 35l86 84q16 16 61.5 39t65.5 35q23 18 41 43q27 37 33 41q29 20 70 20q51 0 80 -35l108 -139q57 -72 137 -127q4 -8 4 -22q0 -47 -67 -47q-14 0 -39 10q-18 31 -80 61q-6 6 -68 88q-61 80 -92 80q-6 0 -190 -123q-181 -123 -197 -123 q-18 0 -39 15q-22 16 -22 26zM47 324q0 150 131 231q113 72 268 72q133 0 216 -60q80 -58 79 -159q0 -55 -190 -123q-158 -57 -232 -58q-4 0 -9 1t-7 1q0 -12 -22 -34q12 -20 116 -45q95 -25 135 -25h318l121 -19q35 -25 53 -53q-39 -45 -94 -45h-355q-125 0 -274 37 q-199 49 -223 123q-31 93 -31 156zM176 356q0 -27 19 -39h63q37 0 184 58q152 59 170 78q-55 57 -180 57q-84 0 -160 -35q-96 -43 -96 -119z" />
<glyph unicode="&#xeb;" horiz-adv-x="1052" d="M47 324q0 150 131 231q113 72 268 72q133 0 216 -60q80 -58 79 -159q0 -55 -190 -123q-158 -57 -232 -58q-4 0 -9 1t-7 1q0 -12 -22 -34q12 -20 116 -45q95 -25 135 -25h318l121 -19q35 -25 53 -53q-39 -45 -94 -45h-355q-125 0 -274 37q-199 49 -223 123q-31 93 -31 156 zM176 356q0 -27 19 -39h63q37 0 184 58q152 59 170 78q-55 57 -180 57q-84 0 -160 -35q-96 -43 -96 -119zM90 795l1 3q1 3 1 5l-2 60l37 63l74 49l106 4q43 -40 43 -92q0 -23 -10 -49q-8 -23 -43 -57q-20 -20 -62 -41h-8q-6 0 -22 4q-20 6 -33 6h-10h-29q-20 0 -35 21 q-8 10 -8 24zM526 863v10q2 23 29 39l49 28q33 27 90 60l107 -45q4 -23 14 -51q0 -2 3 -11.5l5 -15.5h2q-18 -49 -59 -84q-55 -45 -102 -45h-7q-49 2 -90 43l-26 31q-15 16 -15 41z" />
<glyph unicode="&#xec;" horiz-adv-x="741" d="M389 616q8 -31 15 -254q2 -63 2 -157q0 -86 -2 -107q0 -8 -33 -118q-92 27 -125 34q-6 104 -6 201q0 51 4 145q12 279 63 293q6 2 13 2q57 0 69 -39zM35 1020q0 31 8 37q6 6 39 6q49 0 160 -64q268 -158 467 -290l10 -15q0 -10 -21 -30q-33 -33 -71 -33q-20 0 -82 31 l-86 43q-88 45 -187 120q-113 88 -194 109q-43 55 -43 86z" />
<glyph unicode="&#xed;" horiz-adv-x="872" d="M518 616q8 -31 15 -254q2 -63 2 -157q0 -86 -2 -107q0 -8 -33 -118q-92 27 -125 34q-6 104 -6 201q0 51 4 145q12 279 63 293q6 2 13 2q57 0 69 -39zM31 659q0 49 55 76q35 18 170 82q84 61 178 121l125 61l76 49l76 41q23 4 77 27q59 -37 60 -66q0 -4 -117 -69l-176 -97 l-190 -102l-16 -11l-34 -26q-164 -125 -227 -125q-57 0 -57 39z" />
<glyph unicode="&#xee;" horiz-adv-x="858" d="M12 680q0 16 43 39q59 27 66 35l86 84q16 16 57 36l32.5 16.5t26 12.5t11.5 6q14 12 39 45q23 31 35 39q29 20 67 21q53 0 80 -33l109 -139q63 -80 137 -127q6 -6 6 -23q0 -49 -70 -49q-20 0 -39 8q-20 35 -77 64q-2 0 -68 90q-61 80 -94 80q-4 0 -191 -125 q-184 -123 -194 -123q-20 0 -41 14.5t-21 28.5zM346 215q0 51 4 145q12 279 64 293q6 2 12 2q61 0 70 -39q10 -39 16 -254v-149q0 -92 -2 -115l-35 -118q-113 33 -123 34q-6 105 -6 201z" />
<glyph unicode="&#xef;" horiz-adv-x="768" d="M401 616q8 -31 15 -254q2 -63 2 -157q0 -86 -2 -107q0 -8 -33 -118q-92 27 -125 34q-6 104 -6 201q0 51 4 145q12 279 63 293q6 2 13 2q57 0 69 -39zM14 835l1 3q1 3 1 5l-2 60l37 63l74 49l106 4q43 -40 43 -92q0 -23 -10 -49q-8 -23 -43 -57q-20 -20 -62 -41h-8 q-6 0 -22 4q-20 6 -33 6h-10h-29q-20 0 -35 21q-8 10 -8 24zM450 903v10q2 23 29 39l49 28q33 27 90 60l107 -45q4 -23 14 -51q0 -2 3 -11.5l5 -15.5h2q-18 -49 -59 -84q-55 -45 -102 -45h-7q-49 2 -90 43l-26 31q-15 16 -15 41z" />
<glyph unicode="&#xf1;" horiz-adv-x="1040" d="M29 -16v65q0 47 184 207q147 129 307 233q227 147 336 148q29 0 57 -33q27 -29 27 -63q0 -33 -20 -240q-4 -37 -46 -393q-4 -16 -30 -17q-41 0 -66 99q-18 74 -18 133q0 12 26 158q25 135 25 155q0 59 -33 60q-41 0 -174 -70q-117 -61 -170 -102q-96 -70 -227 -224 q-20 -25 -82 -92q-24 -24 -96 -24zM442 776q0 51 99 146q96 96 141 96q4 0 145 -92q137 -90 144 -90q33 0 35 2q4 4 32 12h2q8 0 17 6q10 10 28 16l9 8q8 7 24.5 23.5t36.5 34.5q53 51 66 51q41 0 41 -49q0 -43 -80 -111q-70 -59 -117 -81q-61 -31 -147 -31l-101 88 q-104 86 -137 86t-113 -82l-82 -82q-12 0 -28 16q-15 15 -15 33z" />
<glyph unicode="&#xf2;" horiz-adv-x="1241" d="M61 250q0 53 62 108q51 37 162 148q68 84 264 141q160 45 303 45q41 0 115 -33q70 -31 102 -63q31 -35 64 -111q33 -78 32 -120q0 -106 -45 -183q-41 -70 -291 -137q-217 -59 -337 -59q-135 0 -271 65q-160 80 -160 199zM190 238q0 -55 129 -99q117 -39 181 -39 q102 0 288 43q170 37 242 115q35 35 35 115q0 74 -90 141q-82 63 -162 64q-15 0 -233 -43q-92 -20 -154 -66q-236 -168 -236 -231zM289 1147q0 31 8 37q6 6 39 6q49 0 160 -64q268 -158 467 -290l10 -15q0 -10 -21 -30q-33 -33 -71 -33q-20 0 -82 31l-86 43q-88 45 -187 120 q-113 88 -194 109q-43 55 -43 86z" />
<glyph unicode="&#xf3;" horiz-adv-x="1241" d="M61 250q0 53 62 108q51 37 162 148q68 84 264 141q160 45 303 45q41 0 115 -33q70 -31 102 -63q31 -35 64 -111q33 -78 32 -120q0 -106 -45 -183q-41 -70 -291 -137q-217 -59 -337 -59q-135 0 -271 65q-160 80 -160 199zM190 238q0 -55 129 -99q117 -39 181 -39 q102 0 288 43q170 37 242 115q35 35 35 115q0 74 -90 141q-82 63 -162 64q-15 0 -233 -43q-92 -20 -154 -66q-236 -168 -236 -231zM209 688q0 49 55 76q35 18 170 82q84 61 178 121l125 61l76 49l76 41q23 4 77 27q59 -37 60 -66q0 -4 -117 -69l-176 -97l-190 -102l-16 -11 l-34 -26q-164 -125 -227 -125q-57 0 -57 39z" />
<glyph unicode="&#xf4;" horiz-adv-x="1241" d="M61 250q0 53 62 108q51 37 162 148q68 84 264 141q160 45 303 45q41 0 115 -33q70 -31 102 -63q31 -35 64 -111q33 -78 32 -120q0 -106 -45 -183q-41 -70 -291 -137q-217 -59 -337 -59q-135 0 -271 65q-160 80 -160 199zM190 238q0 -55 129 -99q117 -39 181 -39 q102 0 288 43q170 37 242 115q35 35 35 115q0 74 -90 141q-82 63 -162 64q-15 0 -233 -43q-92 -20 -154 -66q-236 -168 -236 -231zM305 782q0 18 45 39q59 27 66 35l86 82q20 20 57 39q59 29 70 35q14 12 39 45q23 31 34 39q29 20 68 20q55 0 80 -33l108 -139 q61 -76 138 -129q6 -6 6 -20q0 -49 -68 -50q-16 0 -41 11q-18 31 -78 63l-67 88q-58 80 -92 80q-6 0 -191 -125q-184 -123 -196 -123q-20 0 -41 15q-23 16 -23 28z" />
<glyph unicode="&#xf5;" horiz-adv-x="1241" d="M61 250q0 53 62 108q51 37 162 148q68 84 264 141q160 45 303 45q41 0 115 -33q70 -31 102 -63q31 -35 64 -111q33 -78 32 -120q0 -106 -45 -183q-41 -70 -291 -137q-217 -59 -337 -59q-135 0 -271 65q-160 80 -160 199zM190 238q0 -55 129 -99q117 -39 181 -39 q102 0 288 43q170 37 242 115q35 35 35 115q0 74 -90 141q-82 63 -162 64q-15 0 -233 -43q-92 -20 -154 -66q-236 -168 -236 -231zM227 797q0 47 103 149q100 100 149 101q6 0 152 -95q150 -96 151 -96q33 0 37 4q14 8 35 12q6 0 18 9q12 10 31 16q3 0 74 68q59 53 70 53 q41 0 40 -51q0 -45 -83 -117q-66 -59 -121 -84q-70 -33 -156 -33q0 3 -104 92q-109 90 -148 90q-34 0 -117 -86l-86 -84q-14 0 -28 17q-17 21 -17 35z" />
<glyph unicode="&#xf6;" horiz-adv-x="1241" d="M61 250q0 53 62 108q51 37 162 148q68 84 264 141q160 45 303 45q41 0 115 -33q70 -31 102 -63q31 -35 64 -111q33 -78 32 -120q0 -106 -45 -183q-41 -70 -291 -137q-217 -59 -337 -59q-135 0 -271 65q-160 80 -160 199zM190 238q0 -55 129 -99q117 -39 181 -39 q102 0 288 43q170 37 242 115q35 35 35 115q0 74 -90 141q-82 63 -162 64q-15 0 -233 -43q-92 -20 -154 -66q-236 -168 -236 -231zM283 866l1 3q1 3 1 5l-2 60l37 63l74 49l106 4q43 -40 43 -92q0 -23 -10 -49q-8 -23 -43 -57q-20 -20 -62 -41h-8q-6 0 -22 4q-20 6 -33 6 h-10h-29q-20 0 -35 21q-8 10 -8 24zM719 934v10q2 23 29 39l49 28q33 27 90 60l107 -45q4 -23 14 -51q0 -2 3 -11.5l5 -15.5h2q-18 -49 -59 -84q-55 -45 -102 -45h-7q-49 2 -90 43l-26 31q-15 16 -15 41z" />
<glyph unicode="&#xf7;" horiz-adv-x="1280" d="M84 457v88q72 39 332 39q-23 0 -25 -2q70 -8 549 -17h2q20 0 96 13q84 12 95 12q49 0 114 -109q-6 -18 -51 -51t-63 -33q-9 0 -43 13q-29 10 -41 10q-2 0 -7.5 -1t-16.5 -2t-21.5 -1t-20.5 -1t-15 -2t-7 -1q-18 0 -130 24q-119 27 -129 27q-4 0 -32 -14q-25 -12 -33 -13 l-92 4q-2 0 -70 6q-61 6 -74 7q-15 0 -104 -12.5t-104 -12.5q-68 0 -109 29zM520 242q0 70 86 69q20 0 82 -28v-68q0 -15 -31 -37q-29 -20 -51 -20q-25 0 -55.5 30.5t-30.5 53.5zM598 780l29 76q15 49 55 49q31 0 53 -59q20 -55 21 -82q0 -12 -33 -78l-64 23q-49 18 -61 71z " />
<glyph unicode="&#xf8;" horiz-adv-x="1067" d="M76 295q0 135 86 243.5t235 151.5q63 18 148 27q8 0 40.5 10t49.5 10q4 0 47 -6q27 -6 49 -6q14 0 104.5 84t112.5 84q63 0 64 -51q0 -18 -56 -80l-71 -80q76 -57 86 -70q55 -65 55 -178q0 -12 -10 -53q-12 -49 -12 -59q0 -264 -461 -310q-16 0 -53 -4t-99 -8 q-31 -2 -59 -61l-45 -86q-59 -66 -103 -66q-33 0 -32 45q0 4 32 80q31 74 31 82q0 76 -31 108q-61 61 -65 74q-43 70 -43 119zM215 399q0 -68 23 -131q31 -84 88 -84q18 0 65 52q35 39 51 69q33 63 82 125l88 121v45h-43q-20 -6 -100 -64q-70 -51 -86 -51q-4 0 -28.5 6.5 t-28.5 6.5q-47 0 -109 -66q-2 -9 -2 -29zM473 164l111 -17l207 58q96 39 96 178q0 20 -2 49q-2 16 -2 41q0 4 1 10t1 9q-41 41 -90 40q-43 0 -166 -159z" />
<glyph unicode="&#xf9;" horiz-adv-x="1019" d="M51 313q0 100 39 199q20 0 33 12q23 -16 51 -41q-10 -88 -10 -139q0 -242 158 -242q154 0 364 191l320 299h16q33 0 33 -29q0 -37 -154 -209q-137 -150 -199 -196l-141 -105q-47 -31 -137 -61q-102 -33 -150 -33q-100 0 -168 131q-55 106 -55 223zM223 1006q0 31 8 37 q6 6 39 6q49 0 160 -64q268 -158 467 -290l10 -15q0 -10 -21 -30q-33 -33 -71 -33q-20 0 -82 31l-86 43q-88 45 -187 120q-113 88 -194 109q-43 55 -43 86z" />
<glyph unicode="&#xfa;" horiz-adv-x="1019" d="M51 313q0 100 39 199q20 0 33 12q23 -16 51 -41q-10 -88 -10 -139q0 -242 158 -242q154 0 364 191l320 299h16q33 0 33 -29q0 -37 -154 -209q-137 -150 -199 -196l-141 -105q-47 -31 -137 -61q-102 -33 -150 -33q-100 0 -168 131q-55 106 -55 223zM156 657q0 49 55 76 q35 18 170 82q84 61 178 121l125 61l76 49l76 41q23 4 77 27q59 -37 60 -66q0 -4 -117 -69l-176 -97l-190 -102l-16 -11l-34 -26q-164 -125 -227 -125q-57 0 -57 39z" />
<glyph unicode="&#xfb;" horiz-adv-x="1019" d="M51 313q0 100 39 199q20 0 33 12q23 -16 51 -41q-10 -88 -10 -139q0 -242 158 -242q154 0 364 191l320 299h16q33 0 33 -29q0 -37 -154 -209q-137 -150 -199 -196l-141 -105q-47 -31 -137 -61q-102 -33 -150 -33q-100 0 -168 131q-55 106 -55 223zM178 686q0 18 45 39 q55 27 64 35l86 84q14 14 59 37q59 29 70 34q14 12 39 46q27 37 32 40q29 20 70 21q51 0 80 -35l108 -139q57 -72 138 -127q4 -4 4 -23q0 -49 -68 -49q-16 0 -41 10q-20 35 -78 64q-6 6 -67 88q-61 80 -92 80q-8 0 -191 -123q-186 -125 -196 -125q-18 0 -41 16 q-21 15 -21 27z" />
<glyph unicode="&#xfc;" horiz-adv-x="1019" d="M51 313q0 100 39 199q20 0 33 12q23 -16 51 -41q-10 -88 -10 -139q0 -242 158 -242q154 0 364 191l320 299h16q33 0 33 -29q0 -37 -154 -209q-137 -150 -199 -196l-141 -105q-47 -31 -137 -61q-102 -33 -150 -33q-100 0 -168 131q-55 106 -55 223zM194 717l1 3q1 3 1 5 l-2 60l37 63l74 49l106 4q43 -40 43 -92q0 -23 -10 -49q-8 -23 -43 -57q-20 -20 -62 -41h-8q-6 0 -22 4q-20 6 -33 6h-10h-29q-20 0 -35 21q-8 10 -8 24zM630 785v10q2 23 29 39l49 28q33 27 90 60l107 -45q4 -23 14 -51q0 -2 3 -11.5l5 -15.5h2q-18 -49 -59 -84 q-55 -45 -102 -45h-7q-49 2 -90 43l-26 31q-15 16 -15 41z" />
<glyph unicode="&#xfd;" horiz-adv-x="909" d="M101 854q0 49 55 76q35 18 170 82q84 61 178 121l125 61l76 49l76 41q23 4 77 27q59 -37 60 -66q0 -4 -117 -69l-176 -97l-190 -102l-16 -11l-34 -26q-164 -125 -227 -125q-57 0 -57 39zM66 475q0 25 28 82h58q74 -309 208 -309q113 0 273 117l178 131q63 -20 63 -90 q0 -12 -12 -58q-14 -45 -14 -51v-8q0 -10 -4 -72q-53 -129 -131 -356q-25 -25 -107 -199l2 2q0 -12 -55 -158q-25 -66 -86 -213q-2 -10 -9 -49t-14 -65q-6 -29 -24 -76q-20 -47 -21 -74q0 -6 4 -14q-18 -31 -71 -84h-43q-31 55 -31 82q0 100 131 436q49 127 129 309 q25 46 80 166q16 51 41 105q18 29 66 161q-4 4 -5 11q0 12 7 26q2 6 2 13q0 10 -9 10q-10 0 -118.5 -45t-118.5 -45q-20 0 -101 -13q-20 -4 -43.5 -7t-34 -5t-14.5 -2q-84 0 -147 131q-57 113 -57 211z" />
<glyph unicode="&#xff;" horiz-adv-x="909" d="M66 475q0 25 28 82h58q74 -309 208 -309q113 0 273 117l178 131q63 -20 63 -90q0 -12 -12 -58q-14 -45 -14 -51v-8q0 -10 -4 -72q-53 -129 -131 -356q-25 -25 -107 -199l2 2q0 -12 -55 -158q-25 -66 -86 -213q-2 -10 -9 -49t-14 -65q-6 -29 -24 -76q-20 -47 -21 -74 q0 -6 4 -14q-18 -31 -71 -84h-43q-31 55 -31 82q0 100 131 436q49 127 129 309q25 46 80 166q16 51 41 105q18 29 66 161q-4 4 -5 11q0 12 7 26q2 6 2 13q0 10 -9 10q-10 0 -118.5 -45t-118.5 -45q-20 0 -101 -13q-20 -4 -43.5 -7t-34 -5t-14.5 -2q-84 0 -147 131 q-57 113 -57 211zM131 749l1 3q1 3 1 5l-2 60l37 63l74 49l106 4q43 -40 43 -92q0 -23 -10 -49q-8 -23 -43 -57q-20 -20 -62 -41h-8q-6 0 -22 4q-20 6 -33 6h-10h-29q-20 0 -35 21q-8 10 -8 24zM567 817v10q2 23 29 39l49 28q33 27 90 60l107 -45q4 -23 14 -51q0 -2 3 -11.5 l5 -15.5h2q-18 -49 -59 -84q-55 -45 -102 -45h-7q-49 2 -90 43l-26 31q-15 16 -15 41z" />
<glyph unicode="&#x131;" horiz-adv-x="323" d="M229 616q8 -31 15 -254q2 -63 2 -157q0 -86 -2 -107q0 -8 -33 -118q-92 27 -125 34q-6 104 -6 201q0 51 4 145q12 279 63 293q6 2 13 2q57 0 69 -39z" />
<glyph unicode="&#x152;" horiz-adv-x="2424" d="M55 604q0 147 45 301q52 172 136 271q166 197 419 278q57 18 76 25l49 59q31 6 82 6h49q70 0 183 -8q195 -16 249 -18q279 -16 674 -17h15q133 0 329 19q236 18 330 18v-74l-68 -65q-39 -37 -79 -37q-4 0 -35 12q-8 4 -16.5 7t-12.5 5.5t-6 2.5l-86 -15q-59 -10 -86 -10 q-113 0 -236 2l-233 2q-344 0 -477 -45q102 -121 186 -389q0 -12 49 -252q197 29 312 29q92 0 241 -25q176 -27 221 -65v-78q-6 0 -53 6q-46 6 -55 6q-6 0 -39 -16q-29 -14 -39 -15q-12 0 -22 13l-7 14q-45 31 -200 31q-29 0 -150 -20.5t-147 -20.5q-39 0 -64 26 q-123 -283 -248 -413l803 -9q4 0 27 -16q14 -12 24 -12h99l98 -2v-11q2 -4 2 -14q0 -61 -70 -117q-52 43 -116 43h-819q-8 0 -80 -43q-68 -41 -80 -41h-117q-6 15 -6 37v-6l4 84q-4 0 -291 -31q-135 -14 -160 -14q-166 0 -368 127q-188 119 -219 262q-17 78 -17 213z M184 575q0 -244 228 -354q49 -23 151 -39q2 0 76 -22q49 -14 72 -15q150 0 358 60q225 63 305 205q92 160 92 252q0 53 -51 235q-46 160 -92 221q-59 76 -141 111q-4 2 -21.5 8t-60.5 23.5t-82 31.5l-215 82q-10 0 -215 -96q-178 -82 -287 -242q-53 -76 -88 -223 q-29 -117 -29 -238z" />
<glyph unicode="&#x153;" horiz-adv-x="1835" d="M61 324q0 88 66 165q6 8 129 125q23 37 80 97q20 12 84 26q59 12 84 21q4 0 33 26q29 23 45 23q45 0 133 -33l141 -51q74 -31 102 -109q27 -14 43 -14h-4q0 14 166 96q186 96 293 97q88 0 164 -88q74 -90 74 -189q0 -12 2 -29v-30q0 -76 -109 -135q-20 -12 -96 -15 q-89 -3 -111 -6q-18 -4 -94 -25q-51 -14 -96 -14l-35 -29q23 -47 92 -90q72 -43 125 -43q20 0 156 31q143 33 153 33q63 0 64 -80v-43q-2 -25 -2 -43q-10 10 -49 10l-170 -51q-125 -39 -267 -39q-12 0 -194 98v15q-12 20 -53 69q-45 51 -68 52q-12 0 -106 -64 q-100 -63 -121 -74q-68 -31 -197 -30q-166 0 -303 84q-154 98 -154 256zM193 338q0 -84 94 -139q82 -49 172 -49q426 0 426 276v23l2 22v-2q0 53 -60 113q-15 15 -61 36q-43 20 -68 21q-102 0 -192 -16q-33 -6 -66 -29l-151 -111q-96 -73 -96 -145zM1116 422h209q25 0 98 20 q76 20 86 21l7 5l16 13t20 19q-4 41 -30 92q-33 59 -66 59q-96 0 -209 -65q-127 -74 -131 -164z" />
<glyph unicode="&#x178;" horiz-adv-x="845" d="M90 1194q0 117 47 164q4 -2 33 -27v-47q0 -334 139 -334q156 0 414 160l393 246h35q10 -53 12 -53v2q0 -33 -104 -113l-137 -109l-80 -79l-183 -261q-147 -209 -294 -487q-31 -63 -43 -100q-4 -18 -33 -115q-18 -63 -66 -100h-55q-25 18 -25 57q0 29 117 262 q63 125 201 354l205 349q-49 -8 -183 -62q-111 -45 -184 -45q-113 0 -168 121q-41 94 -41 217zM307 1526q0 2 1 4t1 4l-2 59l35 64l76 49l106 4q43 -40 43 -92q0 -29 -10 -49q-8 -23 -45 -60q-14 -16 -61 -39h-9q-6 0 -22 5q-22 6 -31 6h-10h-29q-23 0 -35 20q-8 11 -8 25z M743 1593v9q4 25 29 40q12 8 24.5 14.5l24.5 12.5q53 37 90 60l107 -43q4 -23 14 -52q0 -2 3 -11l5 -15h2q-14 -43 -61 -84q-57 -45 -102 -45h-7q-53 4 -88 41l-26 32q-15 16 -15 41z" />
<glyph unicode="&#x2c6;" horiz-adv-x="989" d="M39 1329q0 29 51 62q72 51 74 53q12 18 98 133q18 25 70 59q72 49 78 56q20 20 45 67q27 53 39 66q33 33 79 33q59 0 91 -56l124 -217q72 -127 158 -203q4 -6 4 -34q0 -76 -76 -76q-25 0 -47 14q-20 47 -90 98l-8 15l-28.5 51l-41.5 76q-68 127 -106 127q-4 0 -219 -197 q-213 -195 -225 -194q-18 0 -46 22q-24 25 -24 45z" />
<glyph unicode="&#x2dc;" horiz-adv-x="1417" d="M23 1516q0 74 163 206q162 135 236 136q6 0 240 -129q238 -131 241 -132q49 0 58 5q10 4 57 18h2q12 0 24 10q16 12 50 23q6 3 116 92q90 72 111 72q63 0 63 -70q0 -59 -131 -158q-111 -82 -192 -114q-104 -43 -248 -43q0 3 -166 122q-172 123 -231 123q-55 0 -189 -116 l-133 -115q-25 0 -47 24q-24 21 -24 46z" />
<glyph unicode="&#x2000;" horiz-adv-x="1144" />
<glyph unicode="&#x2001;" horiz-adv-x="2291" />
<glyph unicode="&#x2002;" horiz-adv-x="1144" />
<glyph unicode="&#x2003;" horiz-adv-x="2291" />
<glyph unicode="&#x2004;" horiz-adv-x="763" />
<glyph unicode="&#x2005;" horiz-adv-x="571" />
<glyph unicode="&#x2006;" horiz-adv-x="380" />
<glyph unicode="&#x2007;" horiz-adv-x="380" />
<glyph unicode="&#x2008;" horiz-adv-x="284" />
<glyph unicode="&#x2009;" horiz-adv-x="456" />
<glyph unicode="&#x200a;" horiz-adv-x="126" />
<glyph unicode="&#x2010;" horiz-adv-x="765" d="M59 422q0 53 60 65q96 20 260 21q39 0 117 4q12 0 61 16q55 18 68 19q31 0 57.5 -53.5t26.5 -81.5q0 -57 -52 -58q-14 0 -89.5 12.5t-90.5 12.5q-133 0 -219 -14q-27 -4 -55.5 -9.5l-45 -8.5t-22.5 -5l-8 -2q0 -2 2 -2q-18 0 -43 31q-27 33 -27 53z" />
<glyph unicode="&#x2011;" horiz-adv-x="765" d="M59 422q0 53 60 65q96 20 260 21q39 0 117 4q12 0 61 16q55 18 68 19q31 0 57.5 -53.5t26.5 -81.5q0 -57 -52 -58q-14 0 -89.5 12.5t-90.5 12.5q-133 0 -219 -14q-27 -4 -55.5 -9.5l-45 -8.5t-22.5 -5l-8 -2q0 -2 2 -2q-18 0 -43 31q-27 33 -27 53z" />
<glyph unicode="&#x2012;" horiz-adv-x="765" d="M59 422q0 53 60 65q96 20 260 21q39 0 117 4q12 0 61 16q55 18 68 19q31 0 57.5 -53.5t26.5 -81.5q0 -57 -52 -58q-14 0 -89.5 12.5t-90.5 12.5q-133 0 -219 -14q-27 -4 -55.5 -9.5l-45 -8.5t-22.5 -5l-8 -2q0 -2 2 -2q-18 0 -43 31q-27 33 -27 53z" />
<glyph unicode="&#x2013;" horiz-adv-x="1273" d="M94 373q0 49 58 63q80 10 241 23l414 22q127 10 174 15q6 0 61 18q49 16 68 16q29 0 55.5 -47t26.5 -88q0 -57 -51 -57q-10 0 -88 12q-77 12 -92 12q-295 0 -566 -51q-135 -23 -229 -22q-18 0 -45 30q-27 29 -27 54z" />
<glyph unicode="&#x2014;" horiz-adv-x="2828" d="M121 420q0 82 176 82h1036q39 0 90.5 -2t89.5 -2q12 0 39 8t39 8q10 0 76 -12q55 -12 76 -13h4l584 52q8 0 34 -13q27 -14 37 -14q88 0 195 64q6 -25 51 -39q43 -14 43 -70q0 -43 -24.5 -76t-53.5 -33q-6 0 -43 12.5t-47 12.5q-20 0 -143 -25q-127 -25 -146 -24 q-14 0 -77.5 12t-75.5 12q-45 0 -303 6.5t-303 6.5q-14 0 -113 -13q-115 -14 -119 -14q-10 0 -78 19q-76 20 -82 20q-20 0 -86 -8l-40.5 -4l-31 -3t-14.5 -1t-53 1t-94 1l-150 2q-82 0 -151 -4q-25 0 -129 -19q-92 -14 -123 -14q-35 0 -61 26q-29 29 -29 58z" />
<glyph unicode="&#x2018;" horiz-adv-x="417" d="M57 1274q0 20 29 153q12 53 117 138q111 88 157 88q2 0 5.5 -1t9.5 -3t12 -4.5l11 -4.5t9 -3l3 -1v-84q-147 -83 -191 -153q-2 -4 -8 -17.5t-18.5 -44l-24.5 -59.5q-37 -88 -51 -88q-18 0 -43 12q0 6 -8.5 33t-8.5 39z" />
<glyph unicode="&#x2019;" horiz-adv-x="448" d="M68 1270q68 53 84 73q20 16 37.5 34t31.5 30q37 37 37 86v2q0 39 -16 86q-25 76 -27 88l41 17q137 -47 137 -170q0 -102 -76 -193q-68 -84 -122 -102q-29 -2 -89 -19q-20 31 -38 68z" />
<glyph unicode="&#x201a;" horiz-adv-x="614" d="M18 -215q0 45 109 106l152 80q120 86 159 160l99 199h57q29 -53 29 -109q0 -109 -199 -295t-309 -186h-80q-17 10 -17 45z" />
<glyph unicode="&#x201c;" horiz-adv-x="765" d="M59 1382v111q6 72 148 176q78 59 112 60q63 0 64 -76v-25l-141 -67q-53 -37 -54 -134q0 -57 17 -84q8 -16 61 -63q-2 -2 -8 -37q-2 -20 -20 -20q-179 -1 -179 159zM381 1331q0 31 27 156q12 53 116 135q111 88 158 88q10 0 29 -6l20 -8v-84q-145 -84 -188 -156 q-10 -16 -54 -121q-37 -88 -53 -88q-10 0 -41 15q0 2 -2 7t-3 13t-3 14q-6 27 -6 35z" />
<glyph unicode="&#x201d;" horiz-adv-x="669" d="M33 1296q70 55 86 76l67 62q37 37 37 88v2q0 43 -14 88q-27 78 -29 88l41 14q101 -34 123 -98q14 -43 14 -74q0 -96 -77 -190q-68 -83 -123 -105q-39 -4 -88 -14zM393 1296q8 29 74 131q37 59 37 119v15q-14 43 -21 59q-10 27 -10 55q0 39 35 56q129 -31 129 -203 q0 -123 -184 -301q-8 4 -25 4q-6 0 -10 -2z" />
<glyph unicode="&#x201e;" horiz-adv-x="790" d="M0 -172q74 23 106 43q186 106 236 238q14 39 14 90q3 71 6 92h46q80 -68 79 -133q0 -70 -81 -195q-84 -129 -152 -168q-90 -55 -152 -55q-20 0 -45 6l-20 4t-15.5 3t-7.5 1q-8 21 -14 74zM387 -213l156 166q98 106 121 178q4 16 4 64q0 96 61 98q68 -46 68 -123 q0 -137 -127 -281q-109 -123 -252 -188q-10 10 -31 14v72z" />
<glyph unicode="&#x2022;" horiz-adv-x="765" d="M92 645q0 70 139 166q133 90 209 90q86 0 145.5 -71.5t59.5 -172.5q0 -68 -110 -133q-98 -59 -173 -59q-58 0 -159 61q-111 66 -111 119z" />
<glyph unicode="&#x2026;" horiz-adv-x="1507" d="M92 137q0 25 12 49q20 35 62 56q55 10 76 16q57 18 75 18q109 0 109 -145q0 -35 -76 -92q-33 -27 -108 -27q-61 0 -82 13q-41 23 -58 63q-10 20 -10 49zM670 135q0 59 45 103q46 43 110 43q35 0 66 -37q33 -35 33 -74q0 -59 -50 -109q-47 -47 -106 -47q-31 0 -63 43 q-35 45 -35 78zM1147 127l18 115q14 0 58 20q35 16 57 17q104 0 135 -23l8 -129v-6q0 -90 -172 -90q-51 0 -104 96z" />
<glyph unicode="&#x202f;" horiz-adv-x="456" />
<glyph unicode="&#x2039;" horiz-adv-x="972" d="M47 539q0 43 229 227q264 215 281 233q9 28 43 74l82 47q211 137 219 137q72 0 72 -90q0 -33 -6 -45q-117 -111 -203 -170q-111 -63 -244 -159l-256 -238q20 -27 240 -170q221 -144 264 -209q2 -4 88 -90q58 -55 62 -98q-57 -12 -58 -17h2q-78 0 -129 45q-74 70 -217 183 q-41 33 -301 178q-29 16 -94 76q-74 64 -74 86z" />
<glyph unicode="&#x203a;" horiz-adv-x="901" d="M57 1085v45q25 29 66 29q29 0 104 -39q74 -34 99 -55l231 -203q137 -115 254 -172q55 -25 55 -78q0 -41 -200 -239l-254 -250q-55 -59 -140 -141q-12 -4 -34 -5q-2 0 -10.5 1.5t-23 3.5t-30.5 4l-31.5 4l-23.5 3t-10 1v43q6 8 100 86q55 45 55 92v16l53 7 q111 100 347 337z" />
<glyph unicode="&#x2044;" horiz-adv-x="692" d="M1163 1798q0 -72 -272 -407l-84 -109q-18 -31 -125 -195q-129 -156 -223 -280q-40 -55 -461 -750l-152 -241q-25 -39 -77 -39q-39 0 -70 14q-14 20 -14 37q0 8 26 63l16.5 34t11.5 25t3 9q106 94 199 248l165 270q45 96 84 168q2 2 181 225q125 154 129 238 q78 63 200 233q108 147 166 265q-10 10 -26 10h-11q2 6 93 90q127 113 194 164q47 -23 47 -72z" />
<glyph unicode="&#x205f;" horiz-adv-x="571" />
<glyph unicode="&#x2122;" horiz-adv-x="1392" d="M29 1489v70q49 55 198 55l4 -1l11.5 -3t13.5 -4l29 -7q6 0 125 33q111 31 125 31q31 0 200 -127q162 -121 162 -129h-2q20 0 156 109q43 37 166 135q39 -20 75 -92q23 -41 54 -179q31 -135 30 -186q0 -23 -24.5 -59.5t-45 -36.5t-36.5 16q-20 20 -29 25q-35 35 -41 78v88 q0 63 -37 102l-143 -121q-119 -98 -137 -98l-5 2q-5 2 -16.5 6t-21.5 8q-51 86 -189 162q-6 -10 -12 -98q-6 -80 -10 -92q-8 -18 -25 -39h-74q-10 14 -43 174q-31 152 -45 174q-135 -9 -135 -105q0 -12 12.5 -77.5t12.5 -75.5q0 -29 -27 -76q-8 -14 -17 -33.5t-14.5 -30 l-7.5 -14.5q-88 70 -88 144q0 4 10 71q10 51 11 72q0 74 -39 94q-29 16 -107 16h-10z" />
<glyph unicode="&#xe000;" horiz-adv-x="810" d="M0 810h810v-810h-810v810z" />
<glyph unicode="&#xfb01;" horiz-adv-x="1959" d="M1684 104q0 381 94 402q35 -16 37 -51q0 14 -4 14q0 -4 1 -12t1 -15q0 -80 -15 -235q-12 -162 -12 -189q-47 -27 -86 -26q-16 49 -16 112zM1712 952q31 72 66 72q37 0 115 -53v-4q0 -41 -82 -97q-23 6 -99 82zM20 332v4q0 45 41 63q117 55 463 86q22 15 31 31 q-14 109 -14 232q0 391 170 647q195 295 567 295q166 0 328 -72q199 -92 198 -236v2l-2 -5q-2 -5 -5 -19t-7 -29q-176 244 -504 244q-106 0 -235 -53q-133 -55 -195 -138q-63 -86 -133 -280q-74 -205 -74 -299q0 -12 15 -131q4 -29 7 -59.5t5 -47t2 -22.5q45 -35 67 -35 q14 0 48 8q12 2 21 5t14 4l6 1q68 8 337 9q156 0 326 -11q-10 0 -43 -26l2 -29l-371 -20q-225 -12 -348 -93q31 -104 129 -278v-55q-9 -18 -37 -19q-29 0 -139 180q-113 180 -137 181q-53 0 -166 -23q-59 -16 -131 -43q-98 -37 -115 -37q-55 0 -121 68z" />
<glyph unicode="&#xfb02;" horiz-adv-x="1974" d="M1667 252q0 45 6 192q4 102 17 394q4 113 22 290q20 215 21 287q0 289 37 402l14 2h6q33 0 45 -39q14 -37 21 -70l-58 -1264q-6 -3 -6 -24q0 -22 6 -55q18 -137 52 -357q-2 -6 -33 -18q-2 0 -6 -1t-7 -1q-104 0 -135 241q0 2 -1 8.5t-1 12.5zM20 332v4q0 45 41 63 q117 55 463 86q22 15 31 31q-14 109 -14 232q0 391 170 647q195 295 567 295q166 0 328 -72q199 -92 198 -236v2l-2 -5q-2 -5 -5 -19t-7 -29q-176 244 -504 244q-106 0 -235 -53q-133 -55 -195 -138q-63 -86 -133 -280q-74 -205 -74 -299q0 -12 15 -131q4 -29 7 -59.5t5 -47 t2 -22.5q45 -35 67 -35q14 0 48 8q12 2 21 5t14 4l6 1q68 8 337 9q156 0 326 -11q-10 0 -43 -26l2 -29l-371 -20q-225 -12 -348 -93q31 -104 129 -278v-55q-9 -18 -37 -19q-29 0 -139 180q-113 180 -137 181q-53 0 -166 -23q-59 -16 -131 -43q-98 -37 -115 -37 q-55 0 -121 68z" />
<glyph unicode="&#xfb03;" horiz-adv-x="3487" d="M3212 104q0 381 94 402q35 -16 37 -51q0 14 -4 14q0 -4 1 -12t1 -15q0 -80 -15 -235q-12 -162 -12 -189q-47 -27 -86 -26q-16 49 -16 112zM3240 952q31 72 66 72q37 0 115 -53v-4q0 -41 -82 -97q-23 6 -99 82zM1548 332v4q0 45 41 63q117 55 463 86q22 15 31 31 q-14 109 -14 232q0 391 170 647q195 295 567 295q166 0 328 -72q199 -92 198 -236v2l-2 -5q-2 -5 -5 -19t-7 -29q-176 244 -504 244q-106 0 -235 -53q-133 -55 -195 -138q-63 -86 -133 -280q-74 -205 -74 -299q0 -12 15 -131q4 -29 7 -59.5t5 -47t2 -22.5q45 -35 67 -35 q14 0 48 8q12 2 21 5t14 4l6 1q68 8 337 9q156 0 326 -11q-10 0 -43 -26l2 -29l-371 -20q-225 -12 -348 -93q31 -104 129 -278v-55q-9 -18 -37 -19q-29 0 -139 180q-113 180 -137 181q-53 0 -166 -23q-59 -16 -131 -43q-98 -37 -115 -37q-55 0 -121 68zM20 332v4q0 45 41 63 q117 55 463 86q22 15 31 31q-14 109 -14 232q0 391 170 647q195 295 567 295q166 0 328 -72q199 -92 198 -236v2l-2 -5q-2 -5 -5 -19t-7 -29q-176 244 -504 244q-106 0 -235 -53q-133 -55 -195 -138q-63 -86 -133 -280q-74 -205 -74 -299q0 -12 15 -131q4 -29 7 -59.5t5 -47 t2 -22.5q45 -35 67 -35q14 0 48 8q12 2 21 5t14 4l6 1q68 8 337 9q156 0 326 -11q-10 0 -43 -26l2 -29l-371 -20q-225 -12 -348 -93q31 -104 129 -278v-55q-9 -18 -37 -19q-29 0 -139 180q-113 180 -137 181q-53 0 -166 -23q-59 -16 -131 -43q-98 -37 -115 -37 q-55 0 -121 68z" />
<glyph unicode="&#xfb04;" horiz-adv-x="3502" d="M3195 252q0 45 6 192q4 102 17 394q4 113 22 290q20 215 21 287q0 289 37 402l14 2h6q33 0 45 -39q14 -37 21 -70l-58 -1264q-6 -3 -6 -24q0 -22 6 -55q18 -137 52 -357q-2 -6 -33 -18q-2 0 -6 -1t-7 -1q-104 0 -135 241q0 2 -1 8.5t-1 12.5zM1548 332v4q0 45 41 63 q117 55 463 86q22 15 31 31q-14 109 -14 232q0 391 170 647q195 295 567 295q166 0 328 -72q199 -92 198 -236v2l-2 -5q-2 -5 -5 -19t-7 -29q-176 244 -504 244q-106 0 -235 -53q-133 -55 -195 -138q-63 -86 -133 -280q-74 -205 -74 -299q0 -12 15 -131q4 -29 7 -59.5t5 -47 t2 -22.5q45 -35 67 -35q14 0 48 8q12 2 21 5t14 4l6 1q68 8 337 9q156 0 326 -11q-10 0 -43 -26l2 -29l-371 -20q-225 -12 -348 -93q31 -104 129 -278v-55q-9 -18 -37 -19q-29 0 -139 180q-113 180 -137 181q-53 0 -166 -23q-59 -16 -131 -43q-98 -37 -115 -37 q-55 0 -121 68zM20 332v4q0 45 41 63q117 55 463 86q22 15 31 31q-14 109 -14 232q0 391 170 647q195 295 567 295q166 0 328 -72q199 -92 198 -236v2l-2 -5q-2 -5 -5 -19t-7 -29q-176 244 -504 244q-106 0 -235 -53q-133 -55 -195 -138q-63 -86 -133 -280 q-74 -205 -74 -299q0 -12 15 -131q4 -29 7 -59.5t5 -47t2 -22.5q45 -35 67 -35q14 0 48 8q12 2 21 5t14 4l6 1q68 8 337 9q156 0 326 -11q-10 0 -43 -26l2 -29l-371 -20q-225 -12 -348 -93q31 -104 129 -278v-55q-9 -18 -37 -19q-29 0 -139 180q-113 180 -137 181 q-53 0 -166 -23q-59 -16 -131 -43q-98 -37 -115 -37q-55 0 -121 68z" />
</font>
</defs>
</svg>
